<svg width="85" height="98" viewBox="0 0 85 98" fill="none" xmlns="http://www.w3.org/2000/svg">
<rect x="2.46875" y="1.7843" width="62.6816" height="94.2306" rx="2.10777" stroke="#FF9800" stroke-width="3.0614"/>
<line x1="15.5385" y1="20.2245" x2="51.8085" y2="20.2246" stroke="#FF9800" stroke-width="3.0614" stroke-linecap="round"/>
<line x1="15.5385" y1="35.3267" x2="51.8085" y2="35.3267" stroke="#FF9800" stroke-width="3.0614" stroke-linecap="round"/>
<line x1="15.5385" y1="50.429" x2="51.8085" y2="50.429" stroke="#FF9800" stroke-width="3.0614" stroke-linecap="round"/>
<line x1="15.5385" y1="65.5312" x2="51.8085" y2="65.5312" stroke="#FF9800" stroke-width="3.0614" stroke-linecap="round"/>
<line x1="15.5385" y1="80.6334" x2="51.8085" y2="80.6334" stroke="#FF9800" stroke-width="3.0614" stroke-linecap="round"/>
<circle cx="57.3163" cy="50.8801" r="24.0755" transform="rotate(-32.5086 57.3163 50.8801)" fill="white" stroke="#FF9800" stroke-width="3.0614"/>
<path d="M81.6333 95.0505C82.0876 95.7634 83.0338 95.973 83.7468 95.5187C84.4597 95.0644 84.6693 94.1181 84.215 93.4052L81.6333 95.0505ZM66.881 71.9017L81.6333 95.0505L84.215 93.4052L69.4627 70.2565L66.881 71.9017Z" fill="#FF9800"/>
<path d="M64.8237 50.0269C65.3221 50.809 65.5489 51.5767 65.5041 52.3301C65.4771 53.0721 65.2458 54.0818 64.8102 55.3592C64.4681 56.352 63.8689 57.1963 63.0126 57.892C63.5223 58.6919 63.8371 59.1661 63.9568 59.3148C64.0701 59.4925 64.0928 59.6655 64.025 59.8337C63.975 59.9905 63.8611 60.1256 63.6834 60.2388C63.4523 60.3861 63.188 60.442 62.8905 60.4067C62.6222 60.3777 62.403 60.23 62.2331 59.9633C62.0405 59.6612 61.8019 59.3259 61.5171 58.9575C61.1147 59.1889 60.705 59.35 60.288 59.4408C59.871 59.5316 59.513 59.5973 59.2139 59.638C58.9327 59.6672 58.7451 59.6868 58.6514 59.6965C57.7283 59.6599 57.0218 59.6103 56.5319 59.5476C56.0307 59.4671 55.5748 59.3202 55.164 59.1071C54.7533 58.894 54.4006 58.5564 54.1061 58.0942C53.8229 57.6498 53.7281 57.2854 53.8217 57.0008C53.9039 56.6984 54.2028 56.383 54.7183 56.0545C54.9493 55.9072 55.2112 55.8278 55.5038 55.8163C55.7964 55.8048 56.0526 55.854 56.2726 55.9638C57.5275 56.6387 58.6964 56.806 59.7793 56.4658C59.7113 56.3592 59.3496 55.7524 58.6942 54.6455C58.0387 53.5385 57.3687 52.4284 56.6842 51.315C55.4444 51.6052 54.5433 51.7795 53.9808 51.8381C51.7129 52.0837 50.0578 51.3888 49.0157 49.7535C48.5739 49.0603 48.3608 48.1964 48.3762 47.1617C48.3917 46.1271 48.6231 45.2548 49.0705 44.5448C49.24 44.2618 49.5049 43.8931 49.8651 43.4386C50.2253 42.9841 50.5847 42.5676 50.9434 42.189C50.6262 41.6913 50.3851 41.3326 50.2201 41.1129C50.0162 40.7929 49.9546 40.5198 50.0352 40.2934C50.1046 40.0492 50.2193 39.8762 50.3792 39.7742C50.7881 39.5137 51.1275 39.4973 51.3976 39.7251C51.6855 39.9415 52.0415 40.402 52.4655 41.1066C53.0683 40.7974 53.8352 40.6086 54.7663 40.5401C55.8607 40.4925 56.699 40.5331 57.281 40.6621C57.8695 40.7619 58.3337 41.0785 58.6735 41.6117C58.8661 41.9139 58.9003 42.2421 58.776 42.5962C58.6518 42.9503 58.3052 43.3086 57.7364 43.6711C57.4876 43.8297 57.0091 43.7847 56.3008 43.5362C55.6961 43.3717 55.2677 43.3073 55.0155 43.3431C54.9331 43.3706 54.7949 43.4087 54.6009 43.4573C54.3956 43.4881 54.2017 43.5368 54.0191 43.6032C55.0499 45.2207 55.8873 46.5741 56.5315 47.6632L56.7863 48.0631C58.018 47.8781 59.0696 47.7828 59.9409 47.7774C61.134 47.7669 62.0959 47.9037 62.8268 48.1877C63.5464 48.454 64.212 49.0671 64.8237 50.0269ZM51.6236 47.9041C51.8502 48.2596 52.2343 48.4897 52.7759 48.5944C53.3062 48.6813 53.8445 48.6632 54.3909 48.54L54.8758 48.4184L52.429 44.579C51.9217 45.0773 51.5712 45.6255 51.3776 46.2238C51.2018 46.8107 51.2838 47.3708 51.6236 47.9041ZM61.3887 55.4027C61.9153 54.8171 62.2382 54.1865 62.3574 53.5107C62.4766 52.8348 62.3946 52.2747 62.1114 51.8304C61.613 51.0483 60.4578 50.7847 58.6457 51.0397C59.2057 51.9576 60.12 53.4119 61.3887 55.4027Z" fill="#FF9800"/>
</svg>
