<svg width="108" height="102" viewBox="0 0 108 102" fill="none" xmlns="http://www.w3.org/2000/svg">
<circle cx="59.0026" cy="50.7074" r="16.3937" stroke="#FF9800" stroke-width="3.0614"/>
<path d="M63.5889 21.1417L62.1011 21.5013L63.5889 21.1417ZM65.1116 25.6086L64.7606 27.0985L65.1116 25.6086ZM64.5301 25.0359L66.018 24.6763L64.5301 25.0359ZM72.6872 28.7475L71.8822 30.0494L72.6872 28.7475ZM77.9262 26.8865L76.8155 27.9397L77.9262 26.8865ZM76.9895 26.7496L76.2266 25.4225L76.9895 26.7496ZM82.8413 32.8526L84.1763 33.6014L82.8413 32.8526ZM82.7291 31.9516L81.6184 33.0048L82.7291 31.9516ZM80.9841 36.9987L82.2815 36.1865L80.9841 36.9987ZM80.9614 36.2044L79.6263 35.4556L80.9614 36.2044ZM84.8191 45.5167L84.4447 47.0009L84.8191 45.5167ZM84.2522 44.9299L85.7454 44.593L84.2522 44.9299ZM88.9593 47.1649L87.4287 47.1497L88.9593 47.1649ZM88.3812 46.4152L88.7555 44.931L88.3812 46.4152ZM88.3441 54.8704L88.7831 56.3368L88.3441 54.8704ZM88.8899 54.1448L90.4206 54.16L88.8899 54.1448ZM84.1975 56.5223L85.6873 56.8735L84.1975 56.5223ZM84.7298 55.9523L85.1688 57.4187L84.7298 55.9523ZM80.8834 64.3756L79.5919 63.5538L80.8834 64.3756ZM82.6384 69.1536L81.5478 68.0795L82.6384 69.1536ZM82.7432 68.2127L81.443 69.0204L82.7432 68.2127ZM76.8436 74.2696L77.5464 72.9097L76.8436 74.2696ZM77.7403 74.1267L76.6497 73.0526L77.7403 74.1267ZM72.6157 72.5113L71.815 71.2067L72.6157 72.5113ZM73.3806 72.4799L74.0834 71.12L73.3806 72.4799ZM64.5814 76.1667L63.0936 75.8071L64.5814 76.1667ZM65.1614 75.5943L64.8074 74.1051L65.1614 75.5943ZM55.1338 80.3203L53.6718 80.7738L55.1338 80.3203ZM53.2655 75.601L53.6179 74.1114L53.2655 75.601ZM53.8326 76.1258L55.2946 75.6723L53.8326 76.1258ZM45.0078 72.4736L45.7106 73.8334L45.0078 72.4736ZM45.773 72.5052L44.9717 73.8094L45.773 72.5052ZM40.2581 74.322L41.3487 73.2479L40.2581 74.322ZM41.1548 74.4649L40.452 73.105L41.1548 74.4649ZM35.2552 68.408L36.5554 69.2157L35.2552 68.408ZM35.36 69.3489L34.2695 70.423L35.36 69.3489ZM37.3791 64.1591L38.6786 63.3503L37.3791 64.1591ZM37.3833 64.9821L36.0831 64.1744L37.3833 64.9821ZM33.7512 56.2916L33.3122 57.758L33.7512 56.2916ZM34.2811 56.8515L35.7662 56.4805L34.2811 56.8515ZM29.6543 55.0652L30.0933 53.5988L29.6543 55.0652ZM34.1249 45.0264L32.6304 44.6952L34.1249 45.0264ZM37.1712 36.6385L38.5063 35.8897L37.1712 36.6385ZM37.1565 37.42L38.4693 38.2071L37.1565 37.42ZM35.1571 33.0474L33.8221 33.7962L35.1571 33.0474ZM41.009 26.9444L40.2461 28.2715L41.009 26.9444ZM45.369 28.963L46.1945 30.252L45.369 28.963ZM44.5607 28.986L45.3235 27.6589L44.5607 28.986ZM55.1338 21.0947L56.5958 21.5483L55.1338 21.0947ZM53.8996 25.0731L52.4377 24.6196L53.8996 25.0731ZM53.3306 25.5984L52.9821 24.1079L53.3306 25.5984ZM55.3616 25.5267L56.5958 21.5483L53.6718 20.6412L52.4377 24.6196L55.3616 25.5267ZM46.1945 30.252C48.4601 28.8014 50.9829 27.7192 53.679 27.0889L52.9821 24.1079C49.9409 24.8188 47.0963 26.0394 44.5436 27.6739L46.1945 30.252ZM40.2461 28.2715L43.7979 30.3131L45.3235 27.6589L41.7718 25.6173L40.2461 28.2715ZM36.38 33.1996L41.1829 28.1346L38.9614 26.0281L34.1585 31.0932L36.38 33.1996ZM38.5063 35.8897L36.4922 32.2986L33.8221 33.7962L35.8362 37.3872L38.5063 35.8897ZM35.6193 45.3575C36.1865 42.798 37.16 40.3909 38.4693 38.2071L35.8437 36.6329C34.3682 39.0939 33.2701 41.8082 32.6304 44.6952L35.6193 45.3575ZM29.9916 48.0942L33.9317 47.1004L33.183 44.132L29.2429 45.1258L29.9916 48.0942ZM30.6391 54.3244L30.5697 47.3445L27.5085 47.375L27.5778 54.3548L30.6391 54.3244ZM34.1902 54.8252L30.0933 53.5988L29.2153 56.5316L33.3122 57.758L34.1902 54.8252ZM38.6786 63.3503C37.3731 61.2527 36.3808 58.9411 35.7662 56.4805L32.7961 57.2224C33.4893 59.998 34.6085 62.6044 36.0795 64.9679L38.6786 63.3503ZM36.5554 69.2157L38.6836 65.7898L36.0831 64.1744L33.9549 67.6003L36.5554 69.2157ZM41.3487 73.2479L36.4506 68.2748L34.2695 70.423L39.1676 75.3961L41.3487 73.2479ZM44.3051 71.1138L40.452 73.105L41.8575 75.8247L45.7106 73.8334L44.3051 71.1138ZM53.6179 74.1114C51.0943 73.5146 48.7235 72.5215 46.5744 71.201L44.9717 73.8094C47.3934 75.2974 50.0667 76.4174 52.9132 77.0906L53.6179 74.1114ZM56.5958 79.8668L55.2946 75.6723L52.3706 76.5794L53.6718 80.7738L56.5958 79.8668ZM62.845 79.3282H55.8648V82.3896H62.845V79.3282ZM63.0936 75.8071L62.1011 79.9137L65.0768 80.6329L66.0693 76.5263L63.0936 75.8071ZM71.815 71.2067C69.6759 72.5198 67.3174 73.5085 64.8074 74.1051L65.5155 77.0835C68.3466 76.4105 71.0061 75.2954 73.4165 73.8158L71.815 71.2067ZM77.5464 72.9097L74.0834 71.12L72.6779 73.8397L76.1409 75.6294L77.5464 72.9097ZM81.5478 68.0795L76.6497 73.0526L78.8309 75.2008L83.7289 70.2277L81.5478 68.0795ZM79.5747 66.0128L81.443 69.0204L84.0435 67.405L82.1752 64.3974L79.5747 66.0128ZM82.7076 56.1712C82.0814 58.8278 81.0161 61.3155 79.5919 63.5538L82.1748 65.1973C83.7795 62.6753 84.9809 59.8702 85.6873 56.8735L82.7076 56.1712ZM87.9051 53.404L84.2908 54.4859L85.1688 57.4187L88.7831 56.3368L87.9051 53.404ZM87.4287 47.1497L87.3593 54.1295L90.4206 54.16L90.4899 47.1801L87.4287 47.1497ZM84.4447 47.0009L88.0068 47.8994L88.7555 44.931L85.1935 44.0325L84.4447 47.0009ZM79.6866 37.8109C81.1028 40.0731 82.1541 42.5856 82.7591 45.2668L85.7454 44.593C85.0629 41.5686 83.8772 38.7355 82.2815 36.1865L79.6866 37.8109ZM81.5062 32.1038L79.6263 35.4556L82.2964 36.9531L84.1763 33.6014L81.5062 32.1038ZM76.8155 27.9397L81.6184 33.0048L83.8399 30.8983L79.037 25.8333L76.8155 27.9397ZM74.248 30.091L77.7523 28.0767L76.2266 25.4225L72.7223 27.4368L74.248 30.091ZM64.7606 27.0985C67.3144 27.7002 69.7121 28.7075 71.8822 30.0494L73.4923 27.4456C71.0469 25.9335 68.3433 24.7974 65.4627 24.1187L64.7606 27.0985ZM62.1011 21.5013L63.0422 25.3955L66.018 24.6763L65.0768 20.7821L62.1011 21.5013ZM55.8648 22.0869H62.845V19.0255H55.8648V22.0869ZM65.0768 20.7821C64.8277 19.7515 63.9053 19.0255 62.845 19.0255V22.0869C62.4916 22.0869 62.1841 21.8448 62.1011 21.5013L65.0768 20.7821ZM65.4627 24.1187C65.7225 24.1799 65.9476 24.385 66.018 24.6763L63.0422 25.3955C63.2506 26.2578 63.929 26.9026 64.7606 27.0985L65.4627 24.1187ZM72.7223 27.4368C72.9752 27.2915 73.2706 27.3085 73.4923 27.4456L71.8822 30.0494C72.5907 30.4875 73.4989 30.5215 74.248 30.091L72.7223 27.4368ZM79.037 25.8333C78.3074 25.0639 77.1459 24.8941 76.2266 25.4225L77.7523 28.0767C77.4459 28.2528 77.0587 28.1962 76.8155 27.9397L79.037 25.8333ZM84.1763 33.6014C84.6685 32.724 84.5321 31.6283 83.8399 30.8983L81.6184 33.0048C81.3877 32.7615 81.3422 32.3963 81.5062 32.1038L84.1763 33.6014ZM82.2815 36.1865C82.4192 36.4064 82.4384 36.7001 82.2964 36.9531L79.6263 35.4556C79.2058 36.2054 79.2468 37.1084 79.6866 37.8109L82.2815 36.1865ZM85.1935 44.0325C85.4839 44.1058 85.6867 44.3327 85.7454 44.593L82.7591 45.2668C82.9471 46.0998 83.5849 46.7841 84.4447 47.0009L85.1935 44.0325ZM90.4899 47.1801C90.5005 46.1199 89.7836 45.1903 88.7555 44.931L88.0068 47.8994C87.6641 47.813 87.4252 47.5031 87.4287 47.1497L90.4899 47.1801ZM88.7831 56.3368C89.7468 56.0482 90.4106 55.1659 90.4206 54.16L87.3593 54.1295C87.3626 53.7942 87.5839 53.5001 87.9051 53.404L88.7831 56.3368ZM85.6873 56.8735C85.6291 57.1204 85.4409 57.3373 85.1688 57.4187L84.2908 54.4859C83.4849 54.7272 82.8936 55.3819 82.7076 56.1712L85.6873 56.8735ZM82.1752 64.3974C82.3363 64.6567 82.321 64.9676 82.1748 65.1973L79.5919 63.5538C79.1243 64.2888 79.0976 65.2448 79.5747 66.0128L82.1752 64.3974ZM83.7289 70.2277C84.473 69.4723 84.603 68.3057 84.0435 67.405L81.443 69.0204C81.2565 68.7202 81.2998 68.3313 81.5478 68.0795L83.7289 70.2277ZM76.1409 75.6294C77.0346 76.0913 78.1249 75.9175 78.8309 75.2008L76.6497 73.0526C76.885 72.8137 77.2485 72.7558 77.5464 72.9097L76.1409 75.6294ZM73.4165 73.8158C73.2045 73.946 72.9247 73.9673 72.6779 73.8397L74.0834 71.12C73.352 70.7421 72.4919 70.7912 71.815 71.2067L73.4165 73.8158ZM66.0693 76.5263C65.9991 76.817 65.7746 77.0219 65.5155 77.0835L64.8074 74.1051C63.9778 74.3023 63.3016 74.9465 63.0936 75.8071L66.0693 76.5263ZM62.845 82.3896C63.9053 82.3896 64.8277 81.6636 65.0768 80.6329L62.1011 79.9137C62.1841 79.5702 62.4916 79.3282 62.845 79.3282V82.3896ZM53.6718 80.7738C53.9699 81.7347 54.8588 82.3896 55.8648 82.3896V79.3282C56.2001 79.3282 56.4964 79.5465 56.5958 79.8668L53.6718 80.7738ZM52.9132 77.0906C52.669 77.0329 52.4539 76.8477 52.3706 76.5794L55.2946 75.6723C55.048 74.8774 54.3986 74.2961 53.6179 74.1114L52.9132 77.0906ZM45.7106 73.8334C45.4637 73.9611 45.1837 73.9397 44.9717 73.8094L46.5744 71.201C45.8973 70.785 45.0368 70.7356 44.3051 71.1138L45.7106 73.8334ZM39.1676 75.3961C39.8735 76.1129 40.9638 76.2866 41.8575 75.8247L40.452 73.105C40.7499 72.9511 41.1134 73.009 41.3487 73.2479L39.1676 75.3961ZM33.9549 67.6003C33.3954 68.501 33.5254 69.6676 34.2695 70.423L36.4506 68.2748C36.6986 68.5266 36.7419 68.9155 36.5554 69.2157L33.9549 67.6003ZM36.0795 64.9679C35.937 64.7389 35.9235 64.4312 36.0831 64.1744L38.6836 65.7898C39.1562 65.029 39.1346 64.0829 38.6786 63.3503L36.0795 64.9679ZM33.3122 57.758C33.0437 57.6776 32.8567 57.4653 32.7961 57.2224L35.7662 56.4805C35.5723 55.7042 34.9853 55.0633 34.1902 54.8252L33.3122 57.758ZM27.5778 54.3548C27.5878 55.3608 28.2516 56.2431 29.2153 56.5316L30.0933 53.5988C30.4145 53.6949 30.6358 53.989 30.6391 54.3244L27.5778 54.3548ZM29.2429 45.1258C28.2148 45.3851 27.4979 46.3147 27.5085 47.375L30.5697 47.3445C30.5732 47.698 30.3343 48.0078 29.9916 48.0942L29.2429 45.1258ZM32.6304 44.6952C32.6883 44.4338 32.8915 44.2055 33.183 44.132L33.9317 47.1004C34.7947 46.8827 35.4339 46.1944 35.6193 45.3575L32.6304 44.6952ZM35.8362 37.3872C35.6969 37.139 35.7127 36.8513 35.8437 36.6329L38.4693 38.2071C38.8875 37.5095 38.9188 36.6252 38.5063 35.8897L35.8362 37.3872ZM34.1585 31.0932C33.4663 31.8232 33.3299 32.9188 33.8221 33.7962L36.4922 32.2986C36.6562 32.5911 36.6107 32.9563 36.38 33.1996L34.1585 31.0932ZM41.7718 25.6173C40.8525 25.0889 39.691 25.2587 38.9614 26.0281L41.1829 28.1346C40.9397 28.391 40.5525 28.4476 40.2461 28.2715L41.7718 25.6173ZM44.5436 27.6739C44.7664 27.5312 45.0668 27.5113 45.3235 27.6589L43.7979 30.3131C44.5586 30.7503 45.4823 30.7081 46.1945 30.252L44.5436 27.6739ZM56.5958 21.5483C56.4964 21.8686 56.2001 22.0869 55.8648 22.0869V19.0255C54.8588 19.0255 53.9699 19.6804 53.6718 20.6412L56.5958 21.5483ZM52.4377 24.6196C52.5212 24.3505 52.7371 24.1652 52.9821 24.1079L53.679 27.0889C54.4622 26.9059 55.1144 26.3237 55.3616 25.5267L52.4377 24.6196Z" fill="#FF9800"/>
<path d="M18.8824 23.6993C18.4701 24.4373 18.7343 25.3698 19.4724 25.7821C20.2104 26.1943 21.1429 25.9301 21.5551 25.1921L18.8824 23.6993ZM88.9638 17.086C89.8054 17.0069 90.4236 16.2605 90.3445 15.4188L89.0556 1.70292C88.9765 0.861245 88.23 0.243055 87.3884 0.322152C86.5467 0.40125 85.9285 1.14768 86.0076 1.98936L87.1533 14.1812L74.9615 15.327C74.1198 15.4061 73.5016 16.1525 73.5807 16.9942C73.6598 17.8359 74.4062 18.454 75.2479 18.3749L88.9638 17.086ZM21.5551 25.1921C25.5402 18.0569 34.8092 9.84284 46.7588 6.47992C58.6095 3.14483 73.1449 4.56704 87.8442 16.7409L89.7969 14.3831C74.3174 1.56312 58.7406 -0.0724063 45.9294 3.533C33.2171 7.11059 23.2745 15.8353 18.8824 23.6993L21.5551 25.1921Z" fill="#FF9800"/>
<path d="M100.551 29.178C100.104 28.4603 99.1604 28.2407 98.4428 28.6875C97.7251 29.1342 97.5055 30.0782 97.9522 30.7959L100.551 29.178ZM72.4572 93.7215C72.1195 94.4965 72.474 95.3985 73.249 95.7362L85.8784 101.239C86.6535 101.577 87.5555 101.222 87.8932 100.447C88.2309 99.6724 87.8764 98.7704 87.1013 98.4327L75.8752 93.5411L80.7668 82.315C81.1045 81.54 80.75 80.6379 79.975 80.3002C79.2 79.9626 78.2979 80.3171 77.9602 81.0921L72.4572 93.7215ZM97.9522 30.7959C98.4727 31.6319 98.9722 32.5468 99.4428 33.5324L102.205 32.2134C101.69 31.1332 101.136 30.1178 100.551 29.178L97.9522 30.7959ZM101.641 39.4425C102.192 41.3979 102.626 43.4871 102.914 45.67L105.949 45.2705C105.643 42.9433 105.179 40.7101 104.588 38.6123L101.641 39.4425ZM103.309 52.0231C103.295 54.1046 103.14 56.2279 102.822 58.3643L105.851 58.8139C106.19 56.5297 106.355 54.2628 106.37 52.0436L103.309 52.0231ZM101.433 64.5596C100.828 66.5473 100.066 68.5224 99.1286 70.4623L101.885 71.794C102.894 69.7066 103.713 67.5837 104.362 65.4505L101.433 64.5596ZM95.9356 75.9265C94.7627 77.6132 93.4302 79.2548 91.9242 80.8343L94.1398 82.9469C95.7549 81.253 97.1869 79.4893 98.449 77.6743L95.9356 75.9265ZM87.2119 85.1045C85.6047 86.3661 83.8543 87.5693 81.9511 88.7022L83.517 91.3328C85.5302 90.1345 87.3892 88.8572 89.1021 87.5126L87.2119 85.1045ZM76.2664 91.6571C75.309 92.09 74.3206 92.5074 73.3006 92.9083L74.4204 95.7576C75.4872 95.3383 76.5227 94.901 77.5277 94.4466L76.2664 91.6571Z" fill="#FF9800"/>
<path d="M54.4798 99.1967C55.3252 99.1996 56.0128 98.5166 56.0157 97.6712C56.0186 96.8259 55.3357 96.1382 54.4903 96.1353L54.4798 99.1967ZM14.7323 41.0996C14.2552 40.4017 13.3027 40.2227 12.6048 40.6997L1.2318 48.4742C0.533905 48.9513 0.354891 49.9038 0.831971 50.6017C1.30905 51.2996 2.26156 51.4786 2.95946 51.0015L13.0688 44.0909L19.9794 54.2002C20.4565 54.8981 21.409 55.0771 22.1069 54.6C22.8048 54.123 22.9838 53.1704 22.5067 52.4725L14.7323 41.0996ZM54.4903 96.1353C46.3177 96.1073 34.6408 91.9801 25.9082 83.1573C17.2478 74.4074 11.4477 61.0036 14.973 42.2461L11.9642 41.6807C8.25188 61.4338 14.37 75.8518 23.7323 85.3108C33.0224 94.6969 45.4724 99.1658 54.4798 99.1967L54.4903 96.1353Z" fill="#FF9800"/>
</svg>
