<svg width="101" height="96" viewBox="0 0 101 96" fill="none" xmlns="http://www.w3.org/2000/svg">
<path d="M47.9229 20.3608L44.7255 32.8854L42.8297 32.4014L45.5431 21.7726L45.4697 21.7539L41.9735 22.9458L42.4356 21.1356L46.0822 19.8908L47.9229 20.3608ZM52.4208 35.0714C51.4556 34.8207 50.6951 34.3551 50.1392 33.6747C49.5833 32.9943 49.2473 32.1246 49.1311 31.0657C49.0149 30.0068 49.1306 28.7965 49.4783 27.4348C49.8249 26.0772 50.3024 24.9636 50.9109 24.094C51.5235 23.2255 52.2368 22.6259 53.0508 22.2952C53.8689 21.9656 54.757 21.923 55.7151 22.1676C56.6732 22.4122 57.4296 22.8768 57.9845 23.5613C58.5403 24.2417 58.8769 25.1093 58.9941 26.1641C59.1164 27.2159 59.0043 28.4206 58.6577 29.7782C58.309 31.1441 57.8299 32.2638 57.2204 33.1374C56.6119 34.0069 55.9001 34.6091 55.0851 34.9439C54.2711 35.2746 53.383 35.3171 52.4208 35.0714ZM52.8377 33.4386C53.6857 33.6551 54.4539 33.4104 55.1422 32.7045C55.8345 31.9997 56.3806 30.8645 56.7802 29.2989C57.0457 28.2593 57.1599 27.3526 57.1229 26.5788C57.0911 25.802 56.9186 25.1761 56.6056 24.701C56.2978 24.2229 55.8646 23.9125 55.306 23.7699C54.4621 23.5545 53.6934 23.8012 53 24.5101C52.3065 25.219 51.7585 26.3536 51.3558 27.9141C51.0893 28.9578 50.972 29.8681 51.0039 30.6449C51.0408 31.4187 51.2138 32.0426 51.5227 32.5166C51.8326 32.9866 52.271 33.2939 52.8377 33.4386ZM66.3671 35.9089L66.5357 35.2484C66.6565 34.7755 66.8646 34.3683 67.1602 34.0269C67.461 33.6824 67.8311 33.4403 68.2707 33.3007C68.7153 33.158 69.2087 33.1558 69.751 33.2943C70.3055 33.4358 70.7401 33.6727 71.0548 34.0049C71.3695 34.3371 71.5722 34.7255 71.6629 35.1698C71.7576 35.6153 71.7446 36.0745 71.6239 36.5474L71.4552 37.2079C71.3345 37.6808 71.1258 38.09 70.8292 38.4355C70.5335 38.777 70.1654 39.0196 69.7249 39.1633C69.2894 39.304 68.7985 39.3047 68.2522 39.1652C67.7018 39.0247 67.2672 38.7878 66.9484 38.4545C66.6306 38.1172 66.4239 37.7278 66.3281 37.2865C66.2334 36.841 66.2464 36.3819 66.3671 35.9089ZM67.9606 35.6122L67.792 36.2727C67.7025 36.6233 67.7049 36.9627 67.7992 37.2907C67.8935 37.6188 68.1486 37.8359 68.5644 37.9421C68.9762 38.0472 69.3001 37.9779 69.536 37.7341C69.772 37.4904 69.9347 37.1932 70.0242 36.8425L70.1928 36.1821C70.2823 35.8314 70.284 35.4931 70.1979 35.1671C70.1158 34.8422 69.8628 34.6256 69.4387 34.5174C69.031 34.4133 68.7051 34.4821 68.461 34.7238C68.217 34.9654 68.0502 35.2616 67.9606 35.6122ZM61.8979 27.1334L62.0665 26.4729C62.1872 26 62.3959 25.5908 62.6926 25.2452C62.9933 24.9008 63.3634 24.6587 63.803 24.519C64.2466 24.3804 64.7395 24.3803 65.2818 24.5187C65.8362 24.6603 66.2708 24.8972 66.5856 25.2294C66.9003 25.5616 67.103 25.9499 67.1936 26.3943C67.2843 26.8387 67.2692 27.2974 67.1485 27.7703L66.9799 28.4308C66.8592 28.9037 66.6505 29.313 66.3538 29.6585C66.0623 30.0009 65.6962 30.2441 65.2556 30.3878C64.8202 30.5285 64.3293 30.5291 63.783 30.3897C63.2285 30.2481 62.7918 30.0107 62.4731 29.6774C62.1594 29.3411 61.9546 28.9523 61.8589 28.511C61.7641 28.0655 61.7771 27.6063 61.8979 27.1334ZM63.4975 26.8383L63.3289 27.4987C63.2394 27.8494 63.2398 28.1882 63.33 28.5152C63.4243 28.8433 63.6794 29.0604 64.0952 29.1666C64.5029 29.2706 64.8247 29.2008 65.0607 28.957C65.3007 28.7143 65.4655 28.4177 65.555 28.067L65.7236 27.4065C65.8131 27.0559 65.8148 26.7176 65.7286 26.3916C65.6425 26.0656 65.3894 25.849 64.9695 25.7418C64.5618 25.6378 64.2359 25.7066 63.9918 25.9482C63.7518 26.191 63.587 26.4876 63.4975 26.8383ZM60.0495 36.7975L71.8577 26.4711L73.3193 26.8442L61.5112 37.1707L60.0495 36.7975Z" fill="#FF9800"/>
<path d="M33.0176 43.0813C32.5309 42.957 32.1176 42.7622 31.7777 42.4967C31.4402 42.2319 31.1984 41.9223 31.0523 41.5679C30.9092 41.2118 30.8797 40.8343 30.9639 40.4356L32.0766 40.7197C32.0359 40.9383 32.0603 41.1433 32.1499 41.3348C32.2424 41.5245 32.3841 41.689 32.575 41.8283C32.7659 41.9676 32.9913 42.0705 33.2512 42.1368C33.537 42.2098 33.8025 42.2247 34.0475 42.1816C34.2949 42.1391 34.5039 42.0452 34.6743 41.9C34.8454 41.7524 34.9607 41.5616 35.0205 41.3277C35.0826 41.0844 35.0746 40.8546 34.9964 40.6384C34.9212 40.4204 34.7778 40.2278 34.5664 40.0605C34.3573 39.8939 34.085 39.7678 33.7495 39.6821L33.1364 39.5256L33.3644 38.6326L33.9775 38.7891C34.2468 38.8579 34.4954 38.8697 34.7233 38.8247C34.9536 38.7804 35.1486 38.6867 35.3084 38.5438C35.4688 38.3985 35.5789 38.2089 35.6386 37.9751C35.6959 37.7506 35.6948 37.5427 35.6355 37.3514C35.579 37.1584 35.4708 36.9911 35.3106 36.8495C35.1528 36.7086 34.9499 36.6064 34.7018 36.5431C34.4656 36.4828 34.2335 36.4701 34.0057 36.5051C33.7808 36.5382 33.5841 36.6189 33.4155 36.7469C33.2475 36.8727 33.1304 37.0454 33.0643 37.265L32.0047 36.9945C32.1166 36.6054 32.3204 36.29 32.6162 36.0484C32.9142 35.8074 33.2666 35.6495 33.6732 35.5746C34.0799 35.4998 34.5053 35.5191 34.9494 35.6324C35.4148 35.7513 35.7933 35.9447 36.0846 36.2129C36.379 36.4793 36.58 36.786 36.6877 37.1331C36.7978 37.4808 36.8061 37.8327 36.7126 38.1889C36.6112 38.5958 36.4098 38.9118 36.1082 39.1368C35.8091 39.3624 35.4581 39.4754 35.0554 39.4757L35.0409 39.5324C35.5042 39.7287 35.8286 40.0154 36.0142 40.3924C36.2021 40.77 36.2364 41.1877 36.1171 41.6454C36.0175 42.0453 35.8151 42.3749 35.5098 42.6342C35.2069 42.894 34.8397 43.0658 34.4082 43.1494C33.9773 43.2306 33.5137 43.2079 33.0176 43.0813ZM37.0474 44.0043L38.9002 36.7467L39.9952 37.0263L39.19 40.1802L42.8082 41.1039L43.6134 37.95L44.712 38.2304L42.8592 45.488L41.7606 45.2076L42.5685 42.043L38.9503 41.1193L38.1424 44.2839L37.0474 44.0043ZM46.3067 38.6375L47.391 38.9144L46.0304 44.2442L46.0977 44.2614L51.151 39.8743L52.1645 40.133L50.3117 47.3906L49.2167 47.1111L50.5755 41.7883L50.5082 41.7711L45.4638 46.153L44.4538 45.8952L46.3067 38.6375ZM58.4679 41.7422L56.6151 48.9998L55.5307 48.723L57.3836 41.4654L58.4679 41.7422ZM51.3881 47.6654L54.6826 44.46L53.4039 40.4494L54.7435 40.7914L55.7421 44.3907L58.5311 45.1027L61.1187 42.4189L62.4547 42.76L59.4153 45.6757L60.7578 50.0574L59.4785 49.7308L58.4442 46.1677L55.2938 45.3634L52.6532 47.9884L51.3881 47.6654ZM66.1354 51.4303L64.5278 47.5547L63.7553 47.3575L62.9248 50.6106L61.8298 50.3311L63.6826 43.0735L64.7776 43.353L63.995 46.4184L64.353 46.5097L67.8784 44.1446L69.2144 44.4857L65.4824 46.9944L67.4714 51.7714L66.1354 51.4303ZM69.0989 52.1868L67.9366 51.8901L72.4011 45.2992L73.6662 45.6222L74.4252 53.5466L73.2628 53.2498L72.7273 46.7867L72.6706 46.7722L69.0989 52.1868ZM70.0194 49.3945L73.7899 50.3571L73.5547 51.2785L69.7842 50.3159L70.0194 49.3945Z" fill="#FF9800"/>
<path d="M31.8201 50.4221L32.3705 50.5626L31.9094 52.3687L34.4751 53.0237L34.9362 51.2176L35.4865 51.3581L34.4457 55.4354L33.8953 55.2949L34.3544 53.4965L31.7887 52.8415L31.3296 54.6398L30.7793 54.4993L31.8201 50.4221ZM40.756 52.7034L39.7151 56.7806L39.188 56.646L39.3938 55.8399C39.1585 56.0716 38.8855 56.2248 38.5746 56.2995C38.269 56.3756 37.9456 56.3701 37.6046 56.2831C37.2222 56.1855 36.8984 56.0092 36.6332 55.7544C36.368 55.4995 36.1878 55.192 36.0925 54.832C35.9973 54.4719 36.0011 54.0903 36.104 53.6872C36.2069 53.2842 36.3865 52.9474 36.6427 52.6771C36.8988 52.4067 37.2037 52.2258 37.5573 52.1345C37.9122 52.0379 38.2809 52.0385 38.6633 52.1361C38.994 52.2205 39.2733 52.3661 39.5012 52.5729C39.7357 52.7759 39.9045 53.0309 40.0077 53.338L40.2056 52.5629L40.756 52.7034ZM37.7757 55.8066C38.06 55.8792 38.3323 55.8799 38.5926 55.8087C38.8594 55.7337 39.0885 55.5913 39.2797 55.3814C39.476 55.1728 39.6138 54.9135 39.6929 54.6035C39.7721 54.2934 39.7755 53.9998 39.7031 53.7226C39.636 53.4467 39.5026 53.2145 39.303 53.026C39.1099 52.8336 38.8713 52.7011 38.5871 52.6285C38.2977 52.5547 38.0196 52.5552 37.7527 52.6302C37.4924 52.7014 37.264 52.8412 37.0677 53.0498C36.8765 53.2597 36.7413 53.5197 36.6621 53.8297C36.583 54.1398 36.577 54.4327 36.6442 54.7086C36.7165 54.9858 36.8493 55.2206 37.0423 55.413C37.2419 55.6015 37.4864 55.7327 37.7757 55.8066ZM47.9915 54.5505L46.9507 58.6278L46.4003 58.4873L47.3165 54.8984L44.7586 54.2454L43.8423 57.8342L43.292 57.6937L44.3329 53.6165L47.9915 54.5505ZM50.3584 59.0189C50.6116 59.0835 50.8554 59.099 51.0897 59.0652C51.3305 59.0276 51.5482 58.9401 51.743 58.8026L51.962 59.2383C51.7257 59.4092 51.4587 59.5172 51.161 59.5623C50.8632 59.6074 50.5516 59.5883 50.226 59.5052C49.8074 59.3984 49.4578 59.2155 49.1771 58.9567C48.8977 58.6927 48.7078 58.3801 48.6074 58.0187C48.507 57.6573 48.5076 57.2776 48.6092 56.8797C48.7108 56.4818 48.8871 56.147 49.1381 55.8753C49.3943 55.605 49.6972 55.4208 50.047 55.323C50.3967 55.2251 50.7654 55.2256 51.1529 55.3246C51.5147 55.4169 51.8191 55.5827 52.0663 55.822C52.3186 56.0625 52.4925 56.3519 52.5878 56.6899C52.6883 57.0294 52.6956 57.389 52.6096 57.7689L49.0948 57.5651C49.1137 57.9222 49.2331 58.2307 49.453 58.4905C49.6794 58.7464 49.9812 58.9226 50.3584 59.0189ZM51.0322 55.7974C50.748 55.7249 50.4751 55.7267 50.2134 55.8031C49.9582 55.8755 49.7357 56.0141 49.5458 56.2188C49.3624 56.4197 49.2318 56.6726 49.154 56.9775C49.1342 57.055 49.1222 57.1125 49.1182 57.15L52.1364 57.3261C52.1615 56.9692 52.0751 56.6499 51.8773 56.3682C51.6808 56.0814 51.3991 55.8911 51.0322 55.7974ZM56.1178 56.5921C56.5157 56.6937 56.8473 56.8719 57.1125 57.1267C57.3777 57.3816 57.5553 57.6884 57.6454 58.0472C57.7406 58.4072 57.7368 58.7888 57.6339 59.1919C57.531 59.595 57.354 59.9323 57.103 60.204C56.8533 60.4705 56.5536 60.6527 56.2039 60.7506C55.8593 60.8498 55.4932 60.8499 55.1056 60.751C54.7646 60.6639 54.4768 60.5189 54.2424 60.3159C54.0145 60.1091 53.8508 59.8554 53.7514 59.5548L53.1736 61.8182L52.6233 61.6777L53.5236 58.1508C53.6279 57.7426 53.8055 57.4026 54.0565 57.1309C54.3126 56.8606 54.6182 56.6771 54.9731 56.5806C55.3332 56.4853 55.7148 56.4892 56.1178 56.5921ZM55.1663 60.2545C55.4557 60.3284 55.7338 60.3279 56.0007 60.2529C56.2675 60.1779 56.4965 60.0354 56.6877 59.8255C56.8789 59.6156 57.0134 59.3582 57.0913 59.0534C57.1691 58.7485 57.1744 58.4581 57.1072 58.1822C57.04 57.9064 56.9073 57.6716 56.7091 57.4779C56.5122 57.279 56.269 57.1426 55.9796 57.0687C55.6902 56.9948 55.4121 56.9954 55.1453 57.0704C54.8836 57.1467 54.6572 57.2898 54.466 57.4997C54.2813 57.7057 54.1493 57.9638 54.0702 58.2739C53.991 58.5839 53.9825 58.8762 54.0445 59.1507C54.1117 59.4266 54.2418 59.6607 54.4349 59.8531C54.6331 60.0469 54.8769 60.1807 55.1663 60.2545ZM64.9711 58.8853L63.9303 62.9625L58.3027 61.5259L59.3436 57.4486L59.894 57.5891L58.9758 61.1858L60.9756 61.6963L61.8938 58.0997L62.4442 58.2402L61.526 61.8368L63.5026 62.3414L64.4208 58.7448L64.9711 58.8853ZM67.3449 63.3554C67.5981 63.42 67.8419 63.4355 68.0762 63.4017C68.3169 63.3641 68.5347 63.2766 68.7294 63.1391L68.9484 63.5748C68.7122 63.7457 68.4452 63.8537 68.1474 63.8988C67.8497 63.9439 67.538 63.9248 67.2125 63.8417C66.7939 63.7349 66.4443 63.552 66.1635 63.2932C65.8842 63.0292 65.6943 62.7166 65.5939 62.3552C65.4935 61.9938 65.4941 61.6141 65.5957 61.2162C65.6972 60.8183 65.8735 60.4835 66.1245 60.2118C66.3807 59.9415 66.6837 59.7573 67.0334 59.6595C67.3832 59.5616 67.7518 59.5622 68.1394 59.6611C68.5011 59.7534 68.8056 59.9192 69.0527 60.1585C69.3051 60.399 69.4789 60.6884 69.5742 61.0264C69.6747 61.3659 69.682 61.7255 69.596 62.1054L66.0812 61.9016C66.1001 62.2587 66.2195 62.5672 66.4395 62.827C66.6658 63.0829 66.9677 63.2591 67.3449 63.3554ZM68.0187 60.1339C67.7345 60.0614 67.4615 60.0632 67.1998 60.1396C66.9446 60.212 66.7221 60.3506 66.5322 60.5553C66.3489 60.7562 66.2182 61.0091 66.1404 61.314C66.1206 61.3915 66.1087 61.449 66.1046 61.4865L69.1229 61.6626C69.1479 61.3057 69.0616 60.9864 68.8638 60.7047C68.6673 60.4179 68.3856 60.2276 68.0187 60.1339ZM24.855 61.0619C25.3749 61.3322 25.5663 61.7361 25.4291 62.2735C25.3381 62.6301 25.1364 62.8703 24.824 62.9943C24.5117 63.1182 24.0945 63.1135 23.5726 62.9803L21.72 62.5073L22.7609 58.4301L24.5592 58.8892C25.0243 59.0079 25.3655 59.1914 25.5829 59.4395C25.8003 59.6877 25.8661 59.9797 25.7803 60.3156C25.7236 60.5378 25.6128 60.7131 25.4479 60.8417C25.2894 60.9664 25.0918 61.0398 24.855 61.0619ZM22.8327 60.3805L24.0574 60.6931C24.3726 60.7736 24.6281 60.7755 24.8238 60.6989C25.0247 60.6236 25.1541 60.4722 25.2122 60.2448C25.2702 60.0175 25.2285 59.8252 25.087 59.6679C24.9506 59.512 24.7249 59.3938 24.4096 59.3134L23.1849 59.0007L22.8327 60.3805ZM23.6602 62.5403C24.0116 62.63 24.2896 62.6404 24.4943 62.5716C24.6991 62.5027 24.8324 62.3469 24.8944 62.104C24.9564 61.8611 24.9218 61.6624 24.7907 61.5078C24.6608 61.3481 24.4228 61.224 24.0765 61.1356L22.7278 60.7913L22.3657 62.2098L23.6602 62.5403ZM31.244 60.5958L30.3298 64.1769C30.153 64.8694 29.8519 65.3374 29.4264 65.5811C29.0047 65.8312 28.4528 65.8692 27.7707 65.6951C27.3935 65.5988 27.0488 65.4502 26.7368 65.2495C26.4286 65.0552 26.1936 64.8328 26.0319 64.5824L26.4178 64.2351C26.5693 64.4609 26.7721 64.6585 27.0261 64.8279C27.2852 64.9987 27.5698 65.1236 27.8799 65.2028C28.3966 65.3347 28.8075 65.3102 29.1123 65.1294C29.4159 64.9537 29.6323 64.6126 29.7616 64.1062L29.8942 63.5868C29.6577 63.8017 29.3828 63.9406 29.0694 64.0038C28.7612 64.0682 28.4392 64.0575 28.1033 63.9718C27.7209 63.8742 27.3932 63.7024 27.1202 63.4566C26.8537 63.2069 26.6682 62.9091 26.5639 62.5632C26.466 62.2135 26.4659 61.8474 26.5635 61.465C26.6612 61.0826 26.8361 60.764 27.0883 60.5091C27.3457 60.2556 27.6505 60.0857 28.0028 59.9995C28.355 59.9133 28.725 59.9196 29.1125 60.0186C29.4588 60.107 29.7536 60.2566 29.997 60.4673C30.2405 60.6781 30.4138 60.937 30.517 61.2441L30.7169 60.4612L31.244 60.5958ZM28.2822 63.4973C28.5768 63.5725 28.8588 63.5784 29.1281 63.5151C29.3988 63.4466 29.6278 63.3151 29.815 63.1208C30.0074 62.9277 30.1406 62.6865 30.2144 62.3971C30.2883 62.1077 30.2864 61.8347 30.2088 61.5782C30.1377 61.3179 29.9991 61.0953 29.793 60.9106C29.5935 60.7221 29.3438 60.5895 29.0441 60.513C28.7496 60.4378 28.4676 60.4319 28.1982 60.4952C27.934 60.5599 27.7057 60.6888 27.5133 60.8818C27.3261 61.0762 27.1955 61.3181 27.1216 61.6075C27.0478 61.8969 27.0464 62.1718 27.1175 62.4321C27.1938 62.6938 27.3318 62.9189 27.5313 63.1075C27.7374 63.2922 27.9877 63.4221 28.2822 63.4973ZM34.9076 63.6282C35.4275 63.8986 35.6189 64.3024 35.4817 64.8399C35.3907 65.1964 35.189 65.4367 34.8766 65.5606C34.5643 65.6845 34.1471 65.6799 33.6252 65.5466L31.7726 65.0737L32.8135 60.9964L34.6118 61.4555C35.0769 61.5743 35.4181 61.7577 35.6355 62.0058C35.8529 62.254 35.9187 62.546 35.8329 62.8819C35.7762 63.1041 35.6654 63.2795 35.5005 63.408C35.342 63.5327 35.1444 63.6061 34.9076 63.6282ZM32.8853 62.9468L34.11 63.2595C34.4252 63.3399 34.6807 63.3419 34.8764 63.2652C35.0773 63.1899 35.2067 63.0385 35.2648 62.8112C35.3228 62.5838 35.2811 62.3915 35.1396 62.2343C35.0032 62.0784 34.7775 61.9602 34.4622 61.8797L33.2375 61.5671L32.8853 62.9468ZM33.7127 65.1066C34.0641 65.1963 34.3422 65.2067 34.5469 65.1379C34.7516 65.0691 34.885 64.9132 34.947 64.6703C35.009 64.4275 34.9744 64.2287 34.8433 64.0742C34.7134 63.9144 34.4754 63.7903 34.1291 63.7019L32.7804 63.3576L32.4183 64.7761L33.7127 65.1066ZM37.5294 62.2004L38.0798 62.3409L37.0389 66.4181L36.4885 66.2776L37.5294 62.2004ZM38.036 61.3802C37.9224 61.3512 37.8366 61.288 37.7789 61.1907C37.7212 61.0934 37.7062 60.9905 37.7339 60.882C37.7603 60.7786 37.8221 60.6981 37.9194 60.6404C38.0167 60.5826 38.1222 60.5683 38.2359 60.5973C38.3496 60.6263 38.4353 60.6895 38.493 60.7868C38.5521 60.8789 38.5684 60.9767 38.542 61.08C38.513 61.1937 38.4498 61.2794 38.3525 61.3371C38.2552 61.3949 38.1497 61.4092 38.036 61.3802ZM43.4161 63.7032L42.5019 67.2843C42.3251 67.9768 42.024 68.4449 41.5985 68.6885C41.1768 68.9387 40.6249 68.9767 39.9428 68.8025C39.5656 68.7062 39.221 68.5577 38.9089 68.3569C38.6007 68.1627 38.3658 67.9403 38.204 67.6898L38.5899 67.3425C38.7414 67.5683 38.9442 67.766 39.1982 67.9354C39.4573 68.1061 39.7419 68.2311 40.052 68.3102C40.5687 68.4421 40.9796 68.4177 41.2844 68.2368C41.588 68.0611 41.8044 67.72 41.9337 67.2136L42.0663 66.6943C41.8298 66.9091 41.5549 67.0481 41.2415 67.1112C40.9334 67.1756 40.6113 67.165 40.2754 67.0792C39.893 66.9816 39.5653 66.8099 39.2923 66.564C39.0258 66.3144 38.8404 66.0166 38.736 65.6707C38.6381 65.3209 38.638 64.9549 38.7356 64.5725C38.8333 64.1901 39.0082 63.8714 39.2604 63.6166C39.5178 63.363 39.8226 63.1931 40.1749 63.1069C40.5272 63.0207 40.8971 63.0271 41.2846 63.126C41.6309 63.2144 41.9257 63.364 42.1691 63.5748C42.4126 63.7855 42.5859 64.0444 42.6892 64.3515L42.889 63.5686L43.4161 63.7032ZM40.4544 66.6048C40.7489 66.6799 41.0309 66.6859 41.3002 66.6225C41.5709 66.554 41.7999 66.4226 41.9871 66.2282C42.1795 66.0351 42.3127 65.7939 42.3866 65.5045C42.4604 65.2151 42.4586 64.9422 42.3809 64.6857C42.3098 64.4253 42.1712 64.2028 41.9651 64.0181C41.7656 63.8295 41.5159 63.697 41.2162 63.6205C40.9217 63.5453 40.6397 63.5393 40.3703 63.6027C40.1061 63.6673 39.8778 63.7962 39.6854 63.9893C39.4982 64.1837 39.3676 64.4256 39.2937 64.7149C39.2199 65.0043 39.2185 65.2792 39.2896 65.5395C39.366 65.8012 39.5039 66.0263 39.7035 66.2149C39.9095 66.3996 40.1598 66.5296 40.4544 66.6048ZM48.6442 65.0379L47.73 68.619C47.5532 69.3115 47.265 69.7829 46.8654 70.0331C46.4644 70.2885 45.9461 70.3351 45.3105 70.1728C44.9539 70.0818 44.6299 69.9386 44.3386 69.7431C44.0511 69.5541 43.8342 69.3363 43.6879 69.0898L44.0739 68.7425C44.2047 68.963 44.3868 69.1554 44.6201 69.3195C44.8534 69.4837 45.1173 69.6034 45.4119 69.6786C45.8821 69.7986 46.2594 69.7656 46.5436 69.5794C46.8265 69.3984 47.0326 69.0547 47.1619 68.5483L47.2826 68.0755C47.0772 68.2762 46.8314 68.4089 46.5452 68.4734C46.2642 68.5393 45.9661 68.532 45.6508 68.4515C45.1186 68.3157 44.735 68.0609 44.5002 67.6871C44.2718 67.3096 44.2308 66.834 44.3772 66.2604L44.9313 64.09L45.4817 64.2305L44.9414 66.3467C44.832 66.7756 44.8548 67.1282 45.0099 67.4045C45.1651 67.6808 45.439 67.869 45.8317 67.9693C46.2607 68.0788 46.6321 68.036 46.9461 67.841C47.2614 67.6407 47.4785 67.3081 47.5972 66.843L48.0939 64.8974L48.6442 65.0379ZM52.2952 68.0671C52.8152 68.3375 53.0065 68.7414 52.8693 69.2788C52.7783 69.6354 52.5766 69.8756 52.2643 69.9995C51.9519 70.1234 51.5348 70.1188 51.0128 69.9855L49.1602 69.5126L50.2011 65.4354L51.9995 65.8945C52.4645 66.0132 52.8058 66.1966 53.0231 66.4448C53.2405 66.6929 53.3063 66.9849 53.2206 67.3208C53.1638 67.543 53.053 67.7184 52.8881 67.8469C52.7297 67.9716 52.532 68.045 52.2952 68.0671ZM50.2729 67.3857L51.4976 67.6984C51.8129 67.7789 52.0683 67.7808 52.264 67.7041C52.4649 67.6288 52.5944 67.4775 52.6524 67.2501C52.7105 67.0227 52.6687 66.8304 52.5272 66.6732C52.3909 66.5173 52.1651 66.3991 51.8499 66.3186L50.6252 66.006L50.2729 67.3857ZM51.1004 69.5455C51.4518 69.6352 51.7298 69.6457 51.9346 69.5768C52.1393 69.508 52.2727 69.3521 52.3347 69.1093C52.3967 68.8664 52.3621 68.6677 52.2309 68.5131C52.1011 68.3533 51.863 68.2293 51.5168 68.1409L50.168 67.7965L49.8059 69.2151L51.1004 69.5455ZM58.6222 67.5852L57.5813 71.6624L57.0542 71.5279L57.2601 70.7217C57.0248 70.9534 56.7517 71.1066 56.4409 71.1814C56.1352 71.2575 55.8119 71.252 55.4708 71.1649C55.0884 71.0673 54.7646 70.891 54.4994 70.6362C54.2342 70.3813 54.054 70.0739 53.9588 69.7138C53.8636 69.3537 53.8674 68.9721 53.9703 68.5691C54.0732 68.166 54.2527 67.8293 54.5089 67.5589C54.7651 67.2885 55.07 67.1077 55.4235 67.0163C55.7785 66.9198 56.1471 66.9203 56.5295 67.0179C56.8602 67.1023 57.1396 67.248 57.3675 67.4548C57.6019 67.6577 57.7707 67.9128 57.874 68.2198L58.0719 67.4447L58.6222 67.5852ZM55.642 70.6884C55.9262 70.761 56.1985 70.7617 56.4589 70.6906C56.7257 70.6156 56.9547 70.4731 57.1459 70.2632C57.3423 70.0547 57.48 69.7953 57.5592 69.4853C57.6383 69.1752 57.6417 68.8816 57.5694 68.6044C57.5022 68.3286 57.3688 68.0964 57.1693 67.9078C56.9762 67.7154 56.7376 67.5829 56.4533 67.5104C56.1639 67.4365 55.8858 67.4371 55.619 67.512C55.3586 67.5832 55.1303 67.723 54.9339 67.9316C54.7427 68.1415 54.6075 68.4015 54.5284 68.7116C54.4492 69.0216 54.4433 69.3146 54.5104 69.5904C54.5828 69.8676 54.7155 70.1024 54.9086 70.2948C55.1081 70.4834 55.3526 70.6146 55.642 70.6884ZM60.1704 67.9804L60.7208 68.1209L60.2597 69.927L62.8254 70.582L63.2865 68.7759L63.8369 68.9164L62.796 72.9937L62.2456 72.8532L62.7047 71.0549L60.139 70.3999L59.6799 72.1982L59.1296 72.0577L60.1704 67.9804ZM65.4011 69.3158L65.9515 69.4563L65.4904 71.2624L68.0561 71.9174L68.5172 70.1113L69.0675 70.2518L68.0266 74.329L67.4763 74.1885L67.9354 72.3902L65.3697 71.7352L64.9106 73.5335L64.3602 73.393L65.4011 69.3158ZM73.7634 71.4506L72.7225 75.5278L72.2186 75.3992L72.563 74.0505L71.284 73.724L71.129 73.6844L69.839 74.7917L69.2421 74.6393L70.6216 73.4723C70.3289 73.304 70.1242 73.0921 70.0078 72.8367C69.8913 72.5813 69.8747 72.2908 69.9578 71.9653C70.0739 71.5105 70.3173 71.2039 70.688 71.0453C71.0588 70.8867 71.5129 70.8761 72.0503 71.0133L73.7634 71.4506ZM70.5119 72.1232C70.3576 72.7278 70.6654 73.1284 71.4354 73.325L72.6678 73.6396L73.1349 71.8103L71.9411 71.5056C71.1453 71.3024 70.6689 71.5083 70.5119 72.1232Z" fill="white"/>
<path d="M51.3854 80.1999L47.4868 86.6103C43.7417 86.3796 41.7233 85.8342 38.1951 84.4983L36.9621 76.6585L31.1982 80.5299C27.6114 78.5814 25.8711 77.182 23.1892 74.112L25.616 67.5665L17.8866 68.2244C15.1654 65.0431 14.2248 63.0308 13.2432 59.1697L18.5633 53.8984L11.8245 52.0381C11.1661 48.2376 11.1019 46.0963 11.42 42.2624L18.5453 39.9807L12.6392 34.9638C13.9656 30.9427 14.8834 28.8791 16.8464 25.5677L24.1854 26.6384L21.8892 20.064C24.6121 17.2791 26.315 15.9998 29.6054 14.1175L35.8574 17.8416L36.3512 11.0728C39.7623 9.63067 41.8336 9.15169 45.9163 9.08828L50.2861 15.9071L54.0025 9.53529C58.0096 9.85912 60.096 10.3766 63.493 11.9581L64.3981 19.5097L71.1692 15.5351C74.2424 17.6903 75.8342 19.0588 78.4395 21.8176L76.0914 28.7089L83.5774 27.8961C85.7757 31.0273 86.7237 32.9853 87.8274 36.8975L83.0329 41.8023L90.0396 44.4423C90.3278 48.3161 90.4037 50.4342 90.2472 54.029L82.5678 56.2522L88.6206 61.6153C87.4554 65.207 86.5719 67.0333 84.5715 69.9451L76.6757 68.6103L79.7258 75.4848C77.2593 78.4857 74.535 80.9203 71.2518 82.3295L66.04 77.6529L65.1534 85.1183C61.6297 86.5054 59.5164 86.9269 55.5129 87.0884L51.3854 80.1999Z" stroke="#FF9800" stroke-width="0.72135"/>
</svg>
