<svg width="91" height="38" viewBox="0 0 91 38" fill="none" xmlns="http://www.w3.org/2000/svg">
<path d="M12.1064 24V13.5H20.9414V24H19.8464V14.16L20.1314 14.46H12.9164L13.2014 14.16V24H12.1064ZM24.2294 24V16.125H25.2944V24H24.2294ZM24.7694 14.385C24.5494 14.385 24.3644 14.31 24.2144 14.16C24.0644 14.01 23.9894 13.83 23.9894 13.62C23.9894 13.41 24.0644 13.235 24.2144 13.095C24.3644 12.945 24.5494 12.87 24.7694 12.87C24.9894 12.87 25.1744 12.94 25.3244 13.08C25.4744 13.22 25.5494 13.395 25.5494 13.605C25.5494 13.825 25.4744 14.01 25.3244 14.16C25.1844 14.31 24.9994 14.385 24.7694 14.385ZM33.7309 23.49V17.055H29.9359L29.8459 18.81C29.8259 19.34 29.7909 19.86 29.7409 20.37C29.7009 20.88 29.6259 21.35 29.5159 21.78C29.4159 22.2 29.2709 22.545 29.0809 22.815C28.8909 23.075 28.6459 23.225 28.3459 23.265L27.2809 23.07C27.5909 23.08 27.8459 22.97 28.0459 22.74C28.2459 22.5 28.4009 22.175 28.5109 21.765C28.6209 21.355 28.7009 20.89 28.7509 20.37C28.8009 19.84 28.8409 19.3 28.8709 18.75L28.9759 16.125H34.7959V23.49H33.7309ZM26.9509 25.905V23.07H36.0259V25.905H35.0209V24H27.9559V25.905H26.9509ZM47.8022 24L44.5622 20.1L45.4472 19.575L49.0622 24H47.8022ZM42.0272 24V16.125H43.0922V24H42.0272ZM42.7622 20.49V19.575H45.2972V20.49H42.7622ZM45.5372 20.175L44.5472 20.025L47.6822 16.125H48.8372L45.5372 20.175ZM49.303 23.985L49.378 23.07C49.448 23.08 49.513 23.095 49.573 23.115C49.643 23.125 49.703 23.13 49.753 23.13C50.073 23.13 50.328 23.01 50.518 22.77C50.718 22.53 50.868 22.21 50.968 21.81C51.068 21.41 51.138 20.96 51.178 20.46C51.218 19.95 51.253 19.44 51.283 18.93L51.418 16.125H57.193V24H56.128V16.74L56.398 17.055H52.108L52.363 16.725L52.243 19.005C52.213 19.685 52.158 20.335 52.078 20.955C52.008 21.575 51.893 22.12 51.733 22.59C51.583 23.06 51.373 23.43 51.103 23.7C50.833 23.96 50.488 24.09 50.068 24.09C49.948 24.09 49.823 24.08 49.693 24.06C49.573 24.04 49.443 24.015 49.303 23.985ZM60.2206 24V16.125H61.2856V19.515H63.6856V20.49H61.2856V24H60.2206ZM67.0006 24.075C66.2506 24.075 65.5756 23.905 64.9756 23.565C64.3856 23.215 63.9206 22.74 63.5806 22.14C63.2406 21.53 63.0706 20.835 63.0706 20.055C63.0706 19.265 63.2406 18.57 63.5806 17.97C63.9206 17.37 64.3856 16.9 64.9756 16.56C65.5756 16.22 66.2506 16.05 67.0006 16.05C67.7506 16.05 68.4206 16.22 69.0106 16.56C69.6006 16.9 70.0656 17.37 70.4056 17.97C70.7456 18.57 70.9156 19.265 70.9156 20.055C70.9156 20.835 70.7456 21.53 70.4056 22.14C70.0656 22.74 69.6006 23.215 69.0106 23.565C68.4206 23.905 67.7506 24.075 67.0006 24.075ZM67.0006 23.145C67.5506 23.145 68.0406 23.015 68.4706 22.755C68.9006 22.495 69.2406 22.135 69.4906 21.675C69.7406 21.205 69.8656 20.665 69.8656 20.055C69.8656 19.435 69.7406 18.895 69.4906 18.435C69.2406 17.975 68.9006 17.62 68.4706 17.37C68.0406 17.11 67.5506 16.98 67.0006 16.98C66.4606 16.98 65.9706 17.11 65.5306 17.37C65.1006 17.62 64.7606 17.975 64.5106 18.435C64.2606 18.895 64.1356 19.435 64.1356 20.055C64.1356 20.665 64.2606 21.205 64.5106 21.675C64.7606 22.135 65.1006 22.495 65.5306 22.755C65.9706 23.015 66.4606 23.145 67.0006 23.145ZM78.1791 20.67C77.7191 20.87 77.2541 21.03 76.7841 21.15C76.3241 21.26 75.8641 21.315 75.4041 21.315C74.4741 21.315 73.7391 21.105 73.1991 20.685C72.6591 20.255 72.3891 19.595 72.3891 18.705V16.125H73.4391V18.645C73.4391 19.245 73.6341 19.695 74.0241 19.995C74.4141 20.295 74.9391 20.445 75.5991 20.445C75.9991 20.445 76.4191 20.395 76.8591 20.295C77.2991 20.185 77.7441 20.03 78.1941 19.83L78.1791 20.67ZM78.0891 24V16.125H79.1541V24H78.0891Z" fill="white"/>
<rect x="0.5" y="0.5" width="90" height="37" rx="18.5" stroke="#FF9800"/>
</svg>
