<svg width="41" height="41" viewBox="0 0 41 41" fill="none" xmlns="http://www.w3.org/2000/svg">
<path fill-rule="evenodd" clip-rule="evenodd" d="M38.7771 20.5581C38.7771 30.9111 30.3843 39.3039 20.0312 39.3039C9.67822 39.3039 1.28543 30.9111 1.28543 20.5581C1.28543 10.2051 9.67822 1.81229 20.0312 1.81229C30.3843 1.81229 38.7771 10.2051 38.7771 20.5581ZM40.0312 20.5581C40.0312 31.6038 31.0769 40.5581 20.0312 40.5581C8.98555 40.5581 0.03125 31.6038 0.03125 20.5581C0.03125 9.51241 8.98555 0.558105 20.0312 0.558105C31.0769 0.558105 40.0312 9.51241 40.0312 20.5581ZM20.0212 23.0102C21.5826 23.0102 22.8484 21.7445 22.8484 20.1831C22.8484 18.8838 21.9719 17.7892 20.7779 17.4583V4.72681H19.5237V17.3996C18.1996 17.6347 17.1941 18.7915 17.1941 20.1831C17.1941 20.7622 17.3682 21.3007 17.667 21.749L12.9997 26.8577L13.9256 27.7036L18.576 22.6134C18.9989 22.8655 19.4932 23.0102 20.0212 23.0102Z" fill="#FF9800"/>
</svg>
