<svg width="51" height="46" viewBox="0 0 51 46" fill="none" xmlns="http://www.w3.org/2000/svg">
<path d="M24.7794 6.85706L2.46169 11.3794C0.58027 11.3794 0.205913 13.2734 0.253911 14.2204C0.685873 17.9504 1.67458 26.0018 2.17373 28.3674C2.67288 30.733 4.4295 31.8655 5.24542 32.1361C10.3009 33.6628 20.959 36.9136 23.1476 37.7021C25.3362 38.4906 26.9712 38.0306 27.5152 37.7021C33.0346 35.8854 44.3134 32.1592 45.2733 31.7882C46.2332 31.4171 47.0812 30.474 47.3851 30.0488C48.137 25.7583 49.7369 16.644 50.1208 14.5103C50.5048 12.3767 49.033 11.65 48.249 11.5534L24.7794 6.85706Z" fill="black" stroke="black" stroke-width="0.0110942"/>
<path d="M24.8166 8.22803L4.4553 12.354C2.73882 12.354 2.39728 14.0819 2.44107 14.9459C2.83516 18.3489 3.7372 25.6945 4.19259 27.8527C4.64798 30.0108 6.25061 31.0441 6.99499 31.2909C11.6073 32.6839 21.3311 35.6496 23.3278 36.369C25.3245 37.0884 26.8162 36.6688 27.3124 36.369C32.348 34.7116 42.6381 31.3121 43.5139 30.9736C44.3896 30.635 45.1632 29.7746 45.4405 29.3867C46.1265 25.4723 47.5861 17.157 47.9364 15.2104C48.2867 13.2638 46.9439 12.6008 46.2287 12.5126L24.8166 8.22803Z" fill="#FF9800" stroke="black" stroke-width="0.0110942"/>
<path d="M10.766 24.4523L12.2271 29.0453H12.2832L13.7473 24.4523H15.1641L13.0802 30.4976H11.4331L9.34621 24.4523H10.766ZM18.957 24.4523V30.4976H17.6789V24.4523H18.957ZM22.8878 24.4523L24.349 29.0453H24.4051L25.8691 24.4523H27.286L25.202 30.4976H23.5549L21.468 24.4523H22.8878ZM30.0391 30.4976H28.6695L30.7564 24.4523H32.4034L34.4874 30.4976H33.1178L31.6035 25.8338H31.5563L30.0391 30.4976ZM29.9535 28.1214H33.1886V29.1191H29.9535V28.1214ZM36.0332 25.5061V24.4523H40.9981V25.5061H39.1473V30.4976H37.884V25.5061H36.0332Z" fill="black"/>
<path d="M6.47799 42.0223H5.84624C5.82194 41.8873 5.77672 41.7685 5.71057 41.6659C5.64443 41.5633 5.56343 41.4762 5.46759 41.4047C5.37175 41.3331 5.26443 41.2791 5.14564 41.2427C5.0282 41.2063 4.90333 41.188 4.77104 41.188C4.53211 41.188 4.31815 41.2481 4.12916 41.3682C3.94153 41.4884 3.79304 41.6645 3.68369 41.8967C3.5757 42.1289 3.52171 42.4124 3.52171 42.7472C3.52171 43.0846 3.5757 43.3695 3.68369 43.6017C3.79304 43.8338 3.9422 44.0093 4.13119 44.1281C4.32017 44.2469 4.53278 44.3063 4.76902 44.3063C4.89996 44.3063 5.02415 44.2888 5.14159 44.2537C5.26038 44.2172 5.3677 44.1639 5.46354 44.0937C5.55938 44.0235 5.64038 43.9378 5.70652 43.8365C5.77402 43.7339 5.82059 43.6165 5.84624 43.4842L6.47799 43.4862C6.44425 43.6901 6.37878 43.8777 6.28158 44.0491C6.18574 44.2192 6.06222 44.3664 5.91103 44.4906C5.76119 44.6134 5.58976 44.7086 5.39672 44.7761C5.20368 44.8436 4.9931 44.8773 4.76497 44.8773C4.40589 44.8773 4.08597 44.7923 3.80519 44.6222C3.52441 44.4507 3.30302 44.2057 3.14103 43.8872C2.9804 43.5686 2.90008 43.1886 2.90008 42.7472C2.90008 42.3044 2.98107 41.9244 3.14306 41.6072C3.30505 41.2886 3.52643 41.0443 3.80721 40.8742C4.08799 40.7027 4.40724 40.617 4.76497 40.617C4.985 40.617 5.19019 40.6487 5.38052 40.7122C5.57221 40.7743 5.74432 40.8661 5.89686 40.9876C6.0494 41.1077 6.17561 41.2549 6.27551 41.429C6.3754 41.6018 6.4429 41.7995 6.47799 42.0223ZM8.34742 44.8206H7.68327L9.17558 40.6737H9.89846L11.3908 44.8206H10.7266L9.55423 41.427H9.52183L8.34742 44.8206ZM8.45879 43.1967H10.6132V43.7231H8.45879V43.1967ZM12.7879 44.8206V40.6737H14.266C14.5873 40.6737 14.8539 40.7291 15.0659 40.8398C15.2791 40.9504 15.4384 41.1037 15.5437 41.2994C15.649 41.4938 15.7017 41.7185 15.7017 41.9737C15.7017 42.2275 15.6483 42.4509 15.5417 42.6439C15.4364 42.8356 15.2771 42.9848 15.0638 43.0914C14.8519 43.198 14.5853 43.2514 14.264 43.2514H13.1443V42.7127H14.2073C14.4098 42.7127 14.5745 42.6837 14.7014 42.6257C14.8296 42.5676 14.9234 42.4833 14.9828 42.3726C15.0422 42.2619 15.0719 42.1289 15.0719 41.9737C15.0719 41.8171 15.0416 41.6814 14.9808 41.5667C14.9214 41.4519 14.8276 41.3642 14.6994 41.3034C14.5725 41.2414 14.4058 41.2103 14.1992 41.2103H13.4136V44.8206H12.7879ZM14.835 42.9497L15.8596 44.8206H15.1469L14.1425 42.9497H14.835ZM21.8304 41.7631C21.8088 41.5714 21.7197 41.4229 21.5631 41.3176C21.4065 41.211 21.2094 41.1577 20.9718 41.1577C20.8017 41.1577 20.6546 41.1847 20.5304 41.2387C20.4062 41.2913 20.3097 41.3642 20.2408 41.4573C20.1733 41.5491 20.1396 41.6537 20.1396 41.7712C20.1396 41.8697 20.1625 41.9548 20.2084 42.0263C20.2557 42.0979 20.3171 42.1579 20.3927 42.2065C20.4696 42.2538 20.552 42.2936 20.6397 42.326C20.7275 42.357 20.8118 42.3827 20.8928 42.4029L21.2978 42.5082C21.4301 42.5406 21.5658 42.5845 21.7048 42.6399C21.8438 42.6952 21.9728 42.7681 22.0916 42.8585C22.2103 42.949 22.3062 43.061 22.3791 43.1947C22.4533 43.3283 22.4905 43.4883 22.4905 43.6746C22.4905 43.9094 22.4297 44.118 22.3082 44.3002C22.1881 44.4825 22.0133 44.6262 21.7838 44.7315C21.5556 44.8368 21.2796 44.8895 20.9556 44.8895C20.6451 44.8895 20.3765 44.8402 20.1497 44.7416C19.9229 44.6431 19.7454 44.5034 19.6172 44.3225C19.4889 44.1403 19.4181 43.9243 19.4046 43.6746H20.0323C20.0444 43.8244 20.093 43.9493 20.1781 44.0491C20.2645 44.1477 20.3745 44.2213 20.5081 44.2699C20.6431 44.3171 20.7909 44.3407 20.9516 44.3407C21.1284 44.3407 21.2857 44.3131 21.4234 44.2577C21.5624 44.201 21.6717 44.1227 21.7514 44.0228C21.831 43.9216 21.8708 43.8035 21.8708 43.6685C21.8708 43.5456 21.8358 43.4451 21.7656 43.3668C21.6967 43.2885 21.6029 43.2237 21.4841 43.1724C21.3667 43.1211 21.2337 43.0759 21.0852 43.0367L20.5952 42.9031C20.2631 42.8126 19.9999 42.6797 19.8055 42.5042C19.6125 42.3287 19.5159 42.0965 19.5159 41.8076C19.5159 41.5687 19.5807 41.3601 19.7103 41.182C19.8399 41.0038 20.0154 40.8654 20.2368 40.7669C20.4582 40.667 20.7079 40.617 20.986 40.617C21.2668 40.617 21.5145 40.6663 21.7291 40.7648C21.9451 40.8634 22.1152 40.999 22.2394 41.1718C22.3636 41.3433 22.4284 41.5404 22.4338 41.7631H21.8304ZM24.0364 44.8206V40.6737H26.6363V41.2123H24.6621V42.4758H26.5007V43.0124H24.6621V44.282H26.6606V44.8206H24.0364ZM28.2704 44.8206V40.6737H29.7485C30.0698 40.6737 30.3364 40.7291 30.5483 40.8398C30.7616 40.9504 30.9209 41.1037 31.0262 41.2994C31.1315 41.4938 31.1841 41.7185 31.1841 41.9737C31.1841 42.2275 31.1308 42.4509 31.0242 42.6439C30.9189 42.8356 30.7596 42.9848 30.5463 43.0914C30.3344 43.198 30.0678 43.2514 29.7465 43.2514H28.6267V42.7127H29.6898C29.8923 42.7127 30.057 42.6837 30.1838 42.6257C30.3121 42.5676 30.4059 42.4833 30.4653 42.3726C30.5247 42.2619 30.5544 42.1289 30.5544 41.9737C30.5544 41.8171 30.524 41.6814 30.4633 41.5667C30.4039 41.4519 30.3101 41.3642 30.1818 41.3034C30.0549 41.2414 29.8882 41.2103 29.6817 41.2103H28.896V44.8206H28.2704ZM30.3175 42.9497L31.3421 44.8206H30.6293L29.625 42.9497H30.3175ZM33.006 40.6737L34.1601 44.0512H34.2067L35.3609 40.6737H36.0372L34.5449 44.8206H33.822L32.3297 40.6737H33.006ZM38.06 40.6737V44.8206H37.4343V40.6737H38.06ZM43.2137 42.0223H42.582C42.5577 41.8873 42.5124 41.7685 42.4463 41.6659C42.3801 41.5633 42.2992 41.4762 42.2033 41.4047C42.1075 41.3331 42.0002 41.2791 41.8814 41.2427C41.7639 41.2063 41.6391 41.188 41.5068 41.188C41.2678 41.188 41.0539 41.2481 40.8649 41.3682C40.6772 41.4884 40.5288 41.6645 40.4194 41.8967C40.3114 42.1289 40.2574 42.4124 40.2574 42.7472C40.2574 43.0846 40.3114 43.3695 40.4194 43.6017C40.5288 43.8338 40.6779 44.0093 40.8669 44.1281C41.0559 44.2469 41.2685 44.3063 41.5047 44.3063C41.6357 44.3063 41.7599 44.2888 41.8773 44.2537C41.9961 44.2172 42.1034 44.1639 42.1993 44.0937C42.2951 44.0235 42.3761 43.9378 42.4422 43.8365C42.5097 43.7339 42.5563 43.6165 42.582 43.4842L43.2137 43.4862C43.18 43.6901 43.1145 43.8777 43.0173 44.0491C42.9215 44.2192 42.7979 44.3664 42.6468 44.4906C42.4969 44.6134 42.3255 44.7086 42.1324 44.7761C41.9394 44.8436 41.7288 44.8773 41.5007 44.8773C41.1416 44.8773 40.8217 44.7923 40.5409 44.6222C40.2601 44.4507 40.0387 44.2057 39.8768 43.8872C39.7161 43.5686 39.6358 43.1886 39.6358 42.7472C39.6358 42.3044 39.7168 41.9244 39.8788 41.6072C40.0408 41.2886 40.2622 41.0443 40.5429 40.8742C40.8237 40.7027 41.143 40.617 41.5007 40.617C41.7207 40.617 41.9259 40.6487 42.1162 40.7122C42.3079 40.7743 42.48 40.8661 42.6326 40.9876C42.7851 41.1077 42.9113 41.2549 43.0112 41.429C43.1111 41.6018 43.1786 41.7995 43.2137 42.0223ZM44.7607 44.8206V40.6737H47.3606V41.2123H45.3864V42.4758H47.2249V43.0124H45.3864V44.282H47.3849V44.8206H44.7607Z" fill="#fff"/>
<line x1="6.82812" y1="23.1098" x2="43.5983" y2="23.1098" stroke="black" stroke-width="0.332826"/>
<path d="M15.938 1.9275C14.4157 3.00871 12.2728 5.81048 11.4212 7.37191C11.4125 7.38788 11.4057 7.40393 11.4 7.42122L11.1699 8.12513C11.1539 8.17416 11.1256 8.21827 11.0877 8.25327L8.92447 10.2519C8.88793 10.2857 8.86028 10.328 8.84398 10.375L7.82138 13.3238C7.81033 13.3557 7.80469 13.3892 7.80469 13.4229V19.5834L7.95391 22.2577C7.96285 22.4179 8.09536 22.5433 8.25582 22.5433H42.1715C42.3343 22.5433 42.4678 22.4144 42.4737 22.2518L42.7507 14.55L42.4715 11.5764C42.4661 11.5184 42.444 11.4633 42.408 11.4175L40.8807 9.47954C40.8033 9.38135 40.6692 9.34606 40.5472 9.31912C40.2058 9.24379 39.6664 8.78705 39.2405 7.33537C38.83 5.93589 36.7688 3.96819 35.1426 2.57304C34.3578 1.89969 33.3495 1.55182 32.3153 1.55182L17.3943 1.55186C16.879 1.55186 16.358 1.62913 15.938 1.9275Z" fill="url(#paint0_linear_157_11799)" stroke="#38537B" stroke-width="0.075595"/>
<path d="M34.263 20.799H16.2578V21.7165H34.263V20.799Z" fill="#2A2A2A" stroke="#2A2A2A" stroke-width="0.012178"/>
<path d="M42.3086 21.5367H37.2031V22.9534C37.2031 23.0211 37.2549 23.0784 37.3222 23.0863C40.4389 23.453 42.1017 23.2087 42.674 23.0318C42.7543 23.0069 42.8055 22.9307 42.8097 22.8467C42.9802 19.4059 42.7238 18.5614 42.5721 18.5722C42.5457 20.6012 42.3854 21.394 42.3086 21.5367Z" fill="#1F1E1E" stroke="#343434" stroke-width="0.183646"/>
<path d="M8.13675 21.5367H13.2422V22.9534C13.2422 23.0211 13.1904 23.0784 13.1231 23.0863C10.0065 23.453 8.34364 23.2087 7.77133 23.0318C7.69101 23.0069 7.63978 22.9307 7.63562 22.8467C7.46509 19.4059 7.72156 18.5614 7.87325 18.5722C7.8996 20.6012 8.05989 21.394 8.13675 21.5367Z" fill="#1F1E1E" stroke="#343434" stroke-width="0.183646"/>
<path d="M42.2896 10.492C41.5601 9.74249 39.282 8.06142 41.1804 8.24356L42.3218 8.2148C42.6243 8.20718 42.8655 7.95975 42.8655 7.65715V7.22083C42.8655 7.14384 42.8496 7.06769 42.8187 6.99716L42.5354 6.34978C42.491 6.24828 42.4176 6.1622 42.3208 6.10839C41.9816 5.9199 41.1119 5.49323 40.336 5.58727C39.3467 5.70719 38.992 6.59474 38.932 7.85384C38.872 9.11294 39.9889 9.3998 41.3546 10.6437C42.8655 12.0198 42.5494 14.4391 42.7093 15.6783C42.7093 14.9788 42.8655 13.2819 42.8655 12.2746C42.8655 11.2673 42.5394 10.6818 42.2896 10.492Z" fill="#565C5F" stroke="#565C5F" stroke-width="0.012178"/>
<path d="M8.26509 10.492C8.99457 9.74249 11.2726 8.06142 9.3743 8.24356L8.23294 8.2148C7.93043 8.20718 7.68916 7.95975 7.68916 7.65715V7.22083C7.68916 7.14384 7.70509 7.06769 7.73596 6.99716L8.0193 6.34978C8.06373 6.24828 8.13708 6.1622 8.23393 6.10839C8.57311 5.9199 9.44283 5.49323 10.2187 5.58727C11.208 5.70719 11.5627 6.59474 11.6227 7.85384C11.6827 9.11294 10.5658 9.3998 9.20007 10.6437C7.68923 12.0198 8.00526 14.4391 7.84537 15.6783C7.84537 14.9788 7.68916 13.2819 7.68916 12.2746C7.68916 11.2673 8.01527 10.6818 8.26509 10.492Z" fill="#565C5F" stroke="#565C5F" stroke-width="0.012178"/>
<path d="M32.6643 1.90448H17.577C16.923 1.90448 16.2769 2.11192 15.809 2.56875C13.9307 4.40247 12.8159 6.96679 12.3934 8.36202C12.3455 8.52025 12.4661 8.6758 12.6314 8.6758H37.9095C38.082 8.6758 38.2036 8.5066 38.1448 8.34439C37.1535 5.60998 35.4923 3.59226 34.3514 2.52063C33.8983 2.09497 33.2861 1.90448 32.6643 1.90448Z" fill="#F2F2F2" stroke="#9C9EA0" stroke-width="0.012178"/>
<path d="M18.1682 14.4605L17.8906 14.0108H24.4049L25.2197 15.0301L26.0544 14.0108H32.6375L32.3252 14.4605H26.0544L25.2197 15.5097L24.4049 14.4605H18.1682Z" fill="#02132D"/>
<path d="M19.0357 15.5097L18.6887 15.0301H24.4049L25.2197 16.0493L26.0544 15.0301H32.0823L31.6659 15.5097H26.0544L25.2197 16.562L24.4049 15.5097H19.0357Z" fill="#02132D"/>
<path d="M18.1682 14.4605L17.8906 14.0108H24.4049L25.2197 15.0301L26.0544 14.0108H32.6375L32.3252 14.4605H26.0544L25.2197 15.5097L24.4049 14.4605H18.1682Z" stroke="#9C9EA0" stroke-width="0.012178"/>
<path d="M19.0357 15.5097L18.6887 15.0301H24.4049L25.2197 16.0493L26.0544 15.0301H32.0823L31.6659 15.5097H26.0544L25.2197 16.562L24.4049 15.5097H19.0357Z" stroke="#9C9EA0" stroke-width="0.012178"/>
<path fill-rule="evenodd" clip-rule="evenodd" d="M12.0836 20.2259C12.0029 20.2259 11.9375 20.1605 11.9375 20.0798V18.5057C11.9757 18.1998 12.3389 17.5882 13.4857 17.5882H23.7183C23.7991 17.5882 23.8645 17.6536 23.8645 17.7343V20.0798C23.8645 20.1605 23.7991 20.2259 23.7183 20.2259H12.0836ZM13.3997 19.9913C14.0489 19.9913 14.5752 19.465 14.5752 18.8158C14.5752 18.1666 14.0489 17.6403 13.3997 17.6403C12.7505 17.6403 12.2242 18.1666 12.2242 18.8158C12.2242 19.465 12.7505 19.9913 13.3997 19.9913Z" fill="#565C5F"/>
<path d="M11.9375 18.5057L11.9314 18.5049V18.5057H11.9375ZM11.9314 18.5057V20.0798H11.9436V18.5057H11.9314ZM13.4857 17.5821C12.3364 17.5821 11.9701 18.1955 11.9315 18.5049L11.9435 18.5064C11.9813 18.2041 12.3414 17.5943 13.4857 17.5943V17.5821ZM23.7183 17.5821H13.4857V17.5943H23.7183V17.5821ZM23.8706 20.0798V17.7343H23.8584V20.0798H23.8706ZM12.0836 20.232H23.7183V20.2198H12.0836V20.232ZM14.5691 18.8158C14.5691 19.4617 14.0455 19.9852 13.3997 19.9852V19.9974C14.0523 19.9974 14.5813 19.4684 14.5813 18.8158H14.5691ZM13.3997 17.6464C14.0455 17.6464 14.5691 18.17 14.5691 18.8158H14.5813C14.5813 18.1632 14.0523 17.6342 13.3997 17.6342V17.6464ZM12.2303 18.8158C12.2303 18.17 12.7539 17.6464 13.3997 17.6464V17.6342C12.7471 17.6342 12.2181 18.1632 12.2181 18.8158H12.2303ZM13.3997 19.9852C12.7539 19.9852 12.2303 19.4617 12.2303 18.8158H12.2181C12.2181 19.4684 12.7471 19.9974 13.3997 19.9974V19.9852ZM23.8584 20.0798C23.8584 20.1571 23.7957 20.2198 23.7183 20.2198V20.232C23.8024 20.232 23.8706 20.1638 23.8706 20.0798H23.8584ZM23.7183 17.5943C23.7957 17.5943 23.8584 17.657 23.8584 17.7343H23.8706C23.8706 17.6503 23.8024 17.5821 23.7183 17.5821V17.5943ZM11.9314 20.0798C11.9314 20.1638 11.9996 20.232 12.0836 20.232V20.2198C12.0063 20.2198 11.9436 20.1571 11.9436 20.0798H11.9314Z" fill="#565C5F"/>
<path fill-rule="evenodd" clip-rule="evenodd" d="M38.3539 20.2259C38.4346 20.2259 38.5 20.1605 38.5 20.0798V18.5057C38.4618 18.1998 38.0986 17.5882 36.9518 17.5882H26.7192C26.6384 17.5882 26.573 17.6536 26.573 17.7343V20.0798C26.573 20.1605 26.6384 20.2259 26.7192 20.2259H38.3539ZM37.0379 19.9905C36.3886 19.9905 35.8624 19.4642 35.8624 18.815C35.8624 18.1658 36.3886 17.6395 37.0379 17.6395C37.6871 17.6395 38.2133 18.1658 38.2133 18.815C38.2133 19.4642 37.6871 19.9905 37.0379 19.9905Z" fill="#565C5F"/>
<path d="M38.5 18.5057L38.5061 18.5049V18.5057H38.5ZM38.5061 18.5057V20.0798H38.4939V18.5057H38.5061ZM36.9518 17.5821C38.1011 17.5821 38.4674 18.1955 38.506 18.5049L38.494 18.5064C38.4562 18.2041 38.0961 17.5943 36.9518 17.5943V17.5821ZM26.7192 17.5821H36.9518V17.5943H26.7192V17.5821ZM26.5669 20.0798V17.7343H26.5791V20.0798H26.5669ZM38.3539 20.232H26.7192V20.2198H38.3539V20.232ZM35.8684 18.815C35.8684 19.4609 36.392 19.9844 37.0379 19.9844V19.9966C36.3853 19.9966 35.8563 19.4676 35.8563 18.815H35.8684ZM37.0379 17.6456C36.392 17.6456 35.8684 18.1692 35.8684 18.815H35.8563C35.8563 18.1624 36.3853 17.6334 37.0379 17.6334V17.6456ZM38.2073 18.815C38.2073 18.1692 37.6837 17.6456 37.0379 17.6456V17.6334C37.6904 17.6334 38.2194 18.1624 38.2194 18.815H38.2073ZM37.0379 19.9844C37.6837 19.9844 38.2073 19.4609 38.2073 18.815H38.2194C38.2194 19.4676 37.6904 19.9966 37.0379 19.9966V19.9844ZM26.5791 20.0798C26.5791 20.1571 26.6418 20.2198 26.7192 20.2198V20.232C26.6351 20.232 26.5669 20.1638 26.5669 20.0798H26.5791ZM26.7192 17.5943C26.6418 17.5943 26.5791 17.657 26.5791 17.7343H26.5669C26.5669 17.6503 26.6351 17.5821 26.7192 17.5821V17.5943ZM38.5061 20.0798C38.5061 20.1638 38.4379 20.232 38.3539 20.232V20.2198C38.4312 20.2198 38.4939 20.1571 38.4939 20.0798H38.5061Z" fill="#565C5F"/>
<path fill-rule="evenodd" clip-rule="evenodd" d="M38.7374 11.5741C38.6473 11.4813 38.7246 11.141 38.8539 11.1453C39.3767 11.1626 39.9369 11.2256 40.5363 11.3435C40.5874 11.3535 40.624 11.3985 40.624 11.4505V12.5876C40.624 13.5042 39.9549 14.2841 39.0463 14.4043C38.3 14.503 37.4388 14.6062 36.8189 14.6487C35.4829 14.7403 33.4994 14.6047 32.9573 14.5639C32.8854 14.5584 32.84 14.4866 32.8675 14.4199C33.2586 13.4715 34.3209 12.1178 36.2524 11.4877C36.3754 11.4476 36.5338 11.7499 36.4697 11.8622C36.3507 12.0708 36.2827 12.3123 36.2827 12.5696C36.2827 13.359 36.9226 13.9989 37.7119 13.9989C38.5013 13.9989 39.1412 13.359 39.1412 12.5696C39.1412 12.1826 38.9873 11.8315 38.7374 11.5741Z" fill="#565C5F"/>
<path d="M39.0463 14.4043L39.0471 14.4103L39.0463 14.4043ZM36.8189 14.6487L36.8184 14.6426L36.8189 14.6487ZM36.4697 11.8622L36.475 11.8652L36.4697 11.8622ZM38.7374 11.5741L38.7331 11.5783L38.7374 11.5741ZM32.9573 14.5639L32.9578 14.5578L32.9573 14.5639ZM40.5363 11.3435L40.5351 11.3495L40.5363 11.3435ZM40.5374 11.3375C39.9378 11.2196 39.3772 11.1565 38.8541 11.1392L38.8537 11.1514C39.3761 11.1686 39.9361 11.2317 40.5351 11.3495L40.5374 11.3375ZM40.6301 12.5876V11.4505H40.6179V12.5876H40.6301ZM39.0471 14.4103C39.9588 14.2897 40.6301 13.5071 40.6301 12.5876H40.6179C40.6179 13.5012 39.951 14.2785 39.0455 14.3982L39.0471 14.4103ZM36.8193 14.6548C37.4395 14.6123 38.3008 14.509 39.0471 14.4103L39.0455 14.3982C38.2992 14.4969 37.4382 14.6002 36.8184 14.6426L36.8193 14.6548ZM32.9569 14.5699C33.4989 14.6108 35.4828 14.7464 36.8193 14.6548L36.8184 14.6426C35.483 14.7342 33.4999 14.5986 32.9578 14.5578L32.9569 14.5699ZM36.2505 11.4819C34.3171 12.1126 33.2535 13.4677 32.8619 14.4176L32.8731 14.4222C33.2636 13.4753 34.3246 12.123 36.2543 11.4935L36.2505 11.4819ZM36.2888 12.5696C36.2888 12.3134 36.3565 12.0729 36.475 11.8652L36.4644 11.8592C36.3449 12.0687 36.2766 12.3112 36.2766 12.5696H36.2888ZM37.7119 13.9928C36.9259 13.9928 36.2888 13.3556 36.2888 12.5696H36.2766C36.2766 13.3624 36.9192 14.005 37.7119 14.005V13.9928ZM39.1351 12.5696C39.1351 13.3556 38.4979 13.9928 37.7119 13.9928V14.005C38.5046 14.005 39.1473 13.3624 39.1473 12.5696H39.1351ZM38.7331 11.5783C38.9819 11.8346 39.1351 12.1842 39.1351 12.5696H39.1473C39.1473 12.1809 38.9928 11.8283 38.7418 11.5699L38.7331 11.5783ZM36.2543 11.4935C36.2823 11.4844 36.3131 11.4944 36.3435 11.5183C36.3738 11.5421 36.4027 11.5789 36.4259 11.6207C36.4491 11.6626 36.4665 11.709 36.4741 11.7517C36.4818 11.7947 36.4794 11.8329 36.4644 11.8592L36.475 11.8652C36.4921 11.8353 36.494 11.7937 36.4861 11.7496C36.4782 11.7053 36.4603 11.6576 36.4366 11.6148C36.4128 11.5721 36.383 11.5338 36.351 11.5087C36.3191 11.4837 36.284 11.471 36.2505 11.4819L36.2543 11.4935ZM38.8541 11.1392C38.8189 11.1381 38.7881 11.1604 38.7636 11.1938C38.739 11.2274 38.7197 11.2732 38.7075 11.3218C38.6953 11.3704 38.6899 11.4222 38.6934 11.4678C38.6968 11.5132 38.7091 11.5536 38.7331 11.5783L38.7418 11.5699C38.7208 11.5482 38.7089 11.5112 38.7055 11.4669C38.7022 11.4228 38.7073 11.3723 38.7193 11.3248C38.7313 11.2772 38.75 11.233 38.7734 11.2011C38.7969 11.169 38.8243 11.1504 38.8537 11.1514L38.8541 11.1392ZM32.9578 14.5578C32.8899 14.5527 32.8472 14.485 32.8731 14.4222L32.8619 14.4176C32.8328 14.4882 32.8809 14.5642 32.9569 14.5699L32.9578 14.5578ZM40.5351 11.3495C40.5833 11.3589 40.6179 11.4014 40.6179 11.4505H40.6301C40.6301 11.3956 40.5914 11.3481 40.5374 11.3375L40.5351 11.3495Z" fill="#9C9EA0"/>
<path fill-rule="evenodd" clip-rule="evenodd" d="M11.8251 11.5748C11.9152 11.482 11.8379 11.1417 11.7086 11.146C11.1858 11.1632 10.6256 11.2263 10.0262 11.3441C9.97514 11.3542 9.93849 11.3991 9.93849 11.4512V12.5883C9.93849 13.5048 10.6076 14.2848 11.5162 14.4049C12.2625 14.5036 13.1237 14.6069 13.7436 14.6494C15.0796 14.741 17.0631 14.6054 17.6052 14.5645C17.6771 14.5591 17.7225 14.4872 17.695 14.4205C17.3039 13.4722 16.2416 12.1184 14.3101 11.4884C14.1871 11.4483 14.0286 11.7505 14.0928 11.8629C14.2118 12.0715 14.2798 12.3129 14.2798 12.5703C14.2798 13.3597 13.6399 13.9996 12.8506 13.9996C12.0612 13.9996 11.4213 13.3597 11.4213 12.5703C11.4213 12.1832 11.5752 11.8321 11.8251 11.5748Z" fill="#565C5F"/>
<path d="M11.5162 14.4049L11.5154 14.411L11.5162 14.4049ZM13.7436 14.6494L13.7441 14.6433L13.7436 14.6494ZM14.0928 11.8629L14.0875 11.8659L14.0928 11.8629ZM11.7086 11.146L11.7088 11.1521L11.7086 11.146ZM11.8251 11.5748L11.8294 11.579L11.8251 11.5748ZM17.6052 14.5645L17.6047 14.5585L17.6052 14.5645ZM17.695 14.4205L17.7006 14.4182L17.695 14.4205ZM10.0251 11.3382C10.6247 11.2203 11.1853 11.1571 11.7084 11.1399L11.7088 11.1521C11.1864 11.1693 10.6264 11.2323 10.0274 11.3501L10.0251 11.3382ZM9.9324 12.5883V11.4512H9.94458V12.5883H9.9324ZM11.5154 14.411C10.6037 14.2904 9.9324 13.5078 9.9324 12.5883H9.94458C9.94458 13.5018 10.6115 14.2791 11.517 14.3989L11.5154 14.411ZM13.7432 14.6555C13.123 14.613 12.2617 14.5097 11.5154 14.411L11.517 14.3989C12.2633 14.4976 13.1243 14.6008 13.7441 14.6433L13.7432 14.6555ZM17.6056 14.5706C17.0636 14.6114 15.0797 14.7471 13.7432 14.6555L13.7441 14.6433C15.0795 14.7348 17.0626 14.5993 17.6047 14.5585L17.6056 14.5706ZM14.312 11.4826C16.2454 12.1133 17.309 13.4684 17.7006 14.4182L17.6894 14.4229C17.2989 13.476 16.2379 12.1236 14.3082 11.4942L14.312 11.4826ZM14.2737 12.5703C14.2737 12.314 14.206 12.0736 14.0875 11.8659L14.0981 11.8599C14.2176 12.0694 14.2859 12.3119 14.2859 12.5703H14.2737ZM12.8506 13.9935C13.6366 13.9935 14.2737 13.3563 14.2737 12.5703H14.2859C14.2859 13.363 13.6433 14.0056 12.8506 14.0056V13.9935ZM11.4274 12.5703C11.4274 13.3563 12.0646 13.9935 12.8506 13.9935V14.0056C12.0579 14.0056 11.4152 13.363 11.4152 12.5703H11.4274ZM11.8294 11.579C11.5806 11.8353 11.4274 12.1849 11.4274 12.5703H11.4152C11.4152 12.1816 11.5697 11.829 11.8207 11.5705L11.8294 11.579ZM14.3082 11.4942C14.2802 11.485 14.2494 11.4951 14.219 11.519C14.1887 11.5428 14.1598 11.5796 14.1366 11.6214C14.1134 11.6632 14.096 11.7097 14.0884 11.7524C14.0807 11.7954 14.0831 11.8336 14.0981 11.8599L14.0875 11.8659C14.0704 11.836 14.0685 11.7943 14.0764 11.7503C14.0843 11.706 14.1022 11.6583 14.1259 11.6155C14.1497 11.5727 14.1795 11.5345 14.2115 11.5094C14.2434 11.4844 14.2785 11.4717 14.312 11.4826L14.3082 11.4942ZM11.7084 11.1399C11.7436 11.1387 11.7744 11.1611 11.7989 11.1945C11.8235 11.2281 11.8428 11.2739 11.855 11.3225C11.8672 11.3711 11.8726 11.4228 11.8691 11.4685C11.8657 11.5139 11.8534 11.5543 11.8294 11.579L11.8207 11.5705C11.8417 11.5488 11.8536 11.5119 11.857 11.4676C11.8603 11.4234 11.8552 11.373 11.8432 11.3255C11.8312 11.2779 11.8125 11.2336 11.7891 11.2017C11.7656 11.1697 11.7382 11.1511 11.7088 11.1521L11.7084 11.1399ZM17.6047 14.5585C17.6726 14.5533 17.7153 14.4856 17.6894 14.4229L17.7006 14.4182C17.7297 14.4888 17.6816 14.5649 17.6056 14.5706L17.6047 14.5585ZM10.0274 11.3501C9.9792 11.3596 9.94458 11.402 9.94458 11.4512H9.9324C9.9324 11.3963 9.97109 11.3488 10.0251 11.3382L10.0274 11.3501Z" fill="#9C9EA0"/>
<path d="M25.2367 14.337L24.8675 12.8431C24.5345 12.8202 24.4325 12.923 24.4231 12.9773C24.2764 12.9343 24.1535 12.8401 24.1104 12.7983C24.2985 12.7153 24.8691 12.7089 25.1308 12.716L25.2954 12.8627L25.4741 12.716C25.9068 12.7031 26.3143 12.7775 26.464 12.8162C26.3465 12.9504 26.1398 12.9737 26.1395 12.9808C26.1508 12.852 25.8495 12.8353 25.6975 12.8431L25.2367 14.337Z" fill="white"/>
<path d="M26.6285 12.646L26.5591 12.716C26.5591 12.716 25.7936 12.6079 25.2986 12.6079C24.8036 12.6079 24.0352 12.716 24.0352 12.716L23.9688 12.646C23.9688 12.646 24.776 12.5316 25.2986 12.5316C25.8213 12.5316 26.6285 12.646 26.6285 12.646Z" fill="white"/>
<path d="M25.2367 14.337L24.8675 12.8431C24.5345 12.8202 24.4325 12.923 24.4231 12.9773C24.2764 12.9343 24.1535 12.8401 24.1104 12.7983C24.2985 12.7153 24.8691 12.7089 25.1308 12.716L25.2954 12.8627L25.4741 12.716C25.9068 12.7031 26.3143 12.7775 26.464 12.8162C26.3465 12.9504 26.1398 12.9737 26.1395 12.9808C26.1508 12.852 25.8495 12.8353 25.6975 12.8431L25.2367 14.337Z" stroke="white" stroke-width="0.0214549"/>
<path d="M26.6285 12.646L26.5591 12.716C26.5591 12.716 25.7936 12.6079 25.2986 12.6079C24.8036 12.6079 24.0352 12.716 24.0352 12.716L23.9688 12.646C23.9688 12.646 24.776 12.5316 25.2986 12.5316C25.8213 12.5316 26.6285 12.646 26.6285 12.646Z" stroke="white" stroke-width="0.0214549"/>
<g filter="url(#filter0_f_157_11799)">
<path d="M40.2251 11.6336C36.4609 10.7691 34.0326 13.0394 33.2891 14.2825C34.7529 14.2825 37.9177 14.2407 38.8658 14.0734C39.8138 13.9061 40.167 13.2369 40.2251 12.9232V11.6336Z" stroke="white" stroke-width="0.413203"/>
</g>
<g filter="url(#filter1_f_157_11799)">
<path d="M10.2827 11.6336C14.047 10.7691 16.4752 13.0394 17.2188 14.2825C15.7549 14.2825 12.5901 14.2407 11.6421 14.0734C10.694 13.9061 10.3408 13.2369 10.2827 12.9232V11.6336Z" stroke="white" stroke-width="0.413203"/>
</g>
<ellipse cx="13.006" cy="12.714" rx="1.5685" ry="1.5685" fill="#FF9800"/>
<ellipse cx="37.8888" cy="12.7678" rx="1.5685" ry="1.5685" fill="#FF9800"/>
<path d="M21.0999 6.47541L25.7545 3.32303L27.3727 2.98841L21.0999 6.47541Z" fill="white"/>
<path d="M20.9905 7.60188L25.6451 4.44949L27.2633 4.11487L20.9905 7.60188Z" fill="white"/>
<path d="M23.3111 7.63373L28.7591 3.94938L30.6537 3.55924L23.3111 7.63373Z" fill="white"/>
<defs>
<filter id="filter0_f_157_11799" x="32.7612" y="11.0744" width="7.82919" height="3.57541" filterUnits="userSpaceOnUse" color-interpolation-filters="sRGB">
<feFlood flood-opacity="0" result="BackgroundImageFix"/>
<feBlend mode="normal" in="SourceGraphic" in2="BackgroundImageFix" result="shape"/>
<feGaussianBlur stdDeviation="0.0803451" result="effect1_foregroundBlur_157_11799"/>
</filter>
<filter id="filter1_f_157_11799" x="9.91743" y="11.0744" width="7.82919" height="3.57541" filterUnits="userSpaceOnUse" color-interpolation-filters="sRGB">
<feFlood flood-opacity="0" result="BackgroundImageFix"/>
<feBlend mode="normal" in="SourceGraphic" in2="BackgroundImageFix" result="shape"/>
<feGaussianBlur stdDeviation="0.0803451" result="effect1_foregroundBlur_157_11799"/>
</filter>
<linearGradient id="paint0_linear_157_11799" x1="25.2777" y1="1.55182" x2="25.2777" y2="22.5433" gradientUnits="userSpaceOnUse">
<stop offset="0.324298"/>
<stop offset="0.605722" stop-color="#6A6969"/>
<stop offset="0.706531" stop-color="#2D2D2D"/>
<stop offset="0.9375"/>
</linearGradient>
</defs>
</svg>
