<svg width="62" height="43" viewBox="0 0 62 43" fill="none" xmlns="http://www.w3.org/2000/svg">
<path d="M8.44411 4.63599C7.89173 5.00423 7.21357 5.46023 6.53242 5.517C6.02136 5.55958 5.37454 5.46192 5.13777 6.04424C4.845 6.7643 5.20855 7.50334 5.59018 8.1056C5.87726 8.55865 6.30346 8.89358 6.57664 9.34888C6.73423 9.61153 6.98278 9.81849 7.12599 10.087C7.2664 10.3503 7.27338 10.5487 7.24845 10.8354C7.23064 11.0402 6.99133 11.2081 6.84877 11.3269C6.6777 11.4694 6.46236 11.6634 6.23988 11.7079" stroke="#FF9800" stroke-width="1.39443" stroke-linecap="round"/>
<path d="M6.61405 11.4626C6.45085 11.4923 6.27291 11.6451 6.12422 11.7195C5.95372 11.8047 5.78518 11.8682 5.63439 11.9984C5.42109 12.1826 5.1974 12.3665 4.97789 12.5478C4.49734 12.9445 4.19791 13.5798 3.89619 14.1125C3.73098 14.4041 3.53883 14.7255 3.2737 14.9391C2.98465 15.1719 2.66221 15.4071 2.46752 15.7316C2.34355 15.9383 2.25914 16.1458 2.2124 16.3847C2.16793 16.612 2.29605 16.8716 2.32806 17.0957" stroke="#FF9800" stroke-width="1.39443" stroke-linecap="round"/>
<path d="M2.36354 17.1189C2.47659 17.5429 2.76566 17.9356 2.95201 18.3299C3.01213 18.457 3.03779 18.5666 2.91799 18.67C2.79284 18.778 2.64128 18.8451 2.5064 18.9387C2.34588 19.0501 2.20947 19.197 2.0778 19.3401C1.81436 19.6265 1.61396 19.9664 1.38388 20.279C1.1766 20.5606 1.05772 20.8468 0.979093 21.1838C0.914051 21.4625 0.835767 21.7357 0.832825 22.024C0.831181 22.185 0.798233 22.3987 0.846431 22.5546C0.927253 22.8161 1.17429 22.8678 1.40769 22.9356C1.85875 23.0666 2.20152 23.3533 2.54722 23.6601C2.76022 23.8492 3.0299 24.2509 3.31938 24.3302C3.65109 24.4212 4.07912 24.3918 4.41469 24.3439" stroke="#FF9800" stroke-width="1.39443" stroke-linecap="round"/>
<path d="M4.53125 24.315C4.66577 24.315 4.78342 24.3809 4.91563 24.4001C5.11683 24.4292 5.31962 24.4764 5.51601 24.5293C6.12715 24.6939 6.8081 24.7742 7.4396 24.7742C7.75775 24.7742 8.09523 24.7525 8.37504 24.9341C8.63399 25.1022 8.86182 25.3086 9.07916 25.526C9.2876 25.7344 9.41789 25.884 9.72546 25.8763C10.075 25.8676 10.5094 25.7176 10.8055 25.5379C10.9863 25.4281 11.1545 25.2979 11.348 25.2096C11.626 25.0828 11.9277 25.0416 12.2256 24.9885C12.7426 24.8964 13.2814 24.8081 13.8074 24.8048C14.0919 24.8031 14.493 24.8779 14.7632 24.7674C15.1022 24.6287 15.4152 24.3949 15.7514 24.2402C16.0737 24.0918 16.3864 24.0379 16.7276 23.9613C17.1208 23.873 17.5053 23.515 17.7872 23.2435C17.9271 23.1088 18.068 22.9815 18.2447 22.8966C18.4225 22.8111 18.6028 22.7639 18.772 22.6567C19.1134 22.4405 19.4034 22.2565 19.8077 22.2026" stroke="#FF9800" stroke-width="1.39443" stroke-linecap="round"/>
<path d="M19.7734 22.2026C19.9562 22.2026 20.0687 22.2388 20.2258 22.3353C20.3532 22.4135 20.3491 22.4329 20.3925 22.5632C20.429 22.6725 20.5408 22.694 20.6374 22.6925C20.9272 22.6879 21.2188 22.604 21.5048 22.604C22.076 22.604 22.1741 23.0603 22.3314 23.5037C22.4533 23.8471 22.7773 24.1556 23.0458 24.3865C23.1899 24.5104 23.4563 24.6701 23.539 24.8355" stroke="#FF9800" stroke-width="1.39443" stroke-linecap="round"/>
<path d="M23.1875 24.4362C23.2229 24.5658 23.3942 24.6431 23.4868 24.7253C23.6755 24.8927 23.7636 25.194 23.8117 25.4345C23.9056 25.9038 23.7386 26.3695 23.7386 26.8377C23.7386 27.1673 23.8686 27.4356 24.0277 27.7204C24.1677 27.971 24.2926 28.2247 24.4257 28.4772C24.6504 28.9036 25.0655 29.1001 25.3917 29.4263" stroke="#FF9800" stroke-width="1.39443" stroke-linecap="round"/>
<path d="M25.4161 29.3385C25.6143 29.5576 25.8659 29.9509 25.8753 30.2501C25.8789 30.367 25.8805 30.4609 25.9297 30.5699C25.9819 30.6855 26.0847 30.7224 26.1508 30.8216C26.423 31.2299 25.7165 31.9642 25.4365 32.1686C25.0005 32.4869 24.4728 32.0414 24.2051 31.7162C23.9419 31.3965 23.5845 30.8938 23.2255 31.4101C23.01 31.7199 22.9869 32.0984 22.9601 32.4612C22.9339 32.8163 22.8488 33.1499 22.6472 33.4476C22.4756 33.701 22.2803 33.9492 22.0859 34.1858C21.9389 34.3647 21.7982 34.5076 21.7254 34.7368C21.5508 35.2865 21.5795 35.9225 21.5043 36.492C21.4497 36.9049 21.4002 37.3115 21.375 37.7268" stroke="#FF9800" stroke-width="1.39443" stroke-linecap="round"/>
<path d="M21.375 37.726C21.375 37.9636 21.8029 37.8835 21.9414 37.8774C22.4297 37.8557 22.845 37.4962 23.3054 37.3756C23.5636 37.308 23.8205 37.329 24.0759 37.396C24.2557 37.4433 24.5224 37.5601 24.712 37.4981C25.1729 37.3472 25.5422 37.0494 25.9059 36.7463" stroke="#FF9800" stroke-width="1.39443" stroke-linecap="round"/>
<path d="M26.0938 36.7804C26.1303 36.5431 26.3261 36.3865 26.4441 36.192C26.5834 35.9624 26.841 35.8768 27.0258 35.6953C27.291 35.4348 27.4957 35.1146 27.7401 34.8347C27.8939 34.6586 28.0986 34.5155 28.2367 34.3313" stroke="#FF9800" stroke-width="1.39443" stroke-linecap="round"/>
<path d="M28.3438 34.2656C28.3708 33.941 28.4831 33.6124 28.6193 33.3199C28.8079 32.9149 29.0013 32.5248 29.2911 32.1838C29.4409 32.0075 29.5884 31.8235 29.8149 31.7433C30.0079 31.675 30.2069 31.6551 30.3949 31.5715" stroke="#FF9800" stroke-width="1.39443" stroke-linecap="round"/>
<path d="M30.375 31.5746C30.5364 31.5477 30.7421 31.4559 30.892 31.3892C31.103 31.2955 31.3712 31.2277 31.5519 31.0831C31.7069 30.9591 31.7836 30.7439 31.8904 30.5814C32.0193 30.3852 32.1414 30.2172 32.1965 29.9844C32.3156 29.4815 32.6519 29.255 33.1609 29.2479C33.4112 29.2445 33.5883 29.2613 33.7494 29.469C33.8483 29.5967 33.9201 29.7371 34.0045 29.8738C34.0742 29.9868 34.1753 30.0866 34.2256 30.2106C34.3021 30.3994 34.3935 30.6632 34.3361 30.8671C34.2505 31.1715 33.6835 31.3206 33.4296 31.4028C33.2577 31.4585 32.983 31.4918 32.8871 31.6716C32.789 31.8554 32.8268 32.0654 32.9483 32.2294C33.0687 32.392 33.255 32.5343 33.4296 32.6325C33.5437 32.6967 33.7052 32.7041 33.7732 32.8298C33.954 33.1642 33.9381 33.4149 34.3548 33.5339" stroke="#FF9800" stroke-width="1.39443" stroke-linecap="round"/>
<path d="M34.5938 33.6234C34.9946 33.6599 35.3543 33.8377 35.7673 33.8377C36.4851 33.8377 37.199 33.7459 37.9154 33.7459C38.2524 33.7459 38.6232 33.7093 38.5566 34.1473C38.5158 34.4154 38.4246 34.629 38.1875 34.7817C37.8472 35.0009 37.4576 35.1787 37.0922 35.3514C36.6147 35.5771 34.5479 36.1591 35.6312 36.9536C36.0301 37.246 36.6161 37.273 37.0905 37.3209C37.4697 37.3593 37.7168 37.5033 38.0225 37.7257" stroke="#FF9800" stroke-width="1.39443" stroke-linecap="round"/>
<path d="M38.1875 37.7268C38.2751 37.7531 38.3485 37.9057 38.4018 37.9717C38.5188 38.1168 38.6526 38.2443 38.776 38.3833C38.9419 38.5703 39.0389 38.7153 38.9188 38.9616C38.7147 39.3803 38.4855 39.7695 38.4324 40.244C38.3779 40.7311 38.6591 41.2503 39.174 41.3563C39.377 41.3981 39.585 41.3452 39.7862 41.3223C40.0435 41.2929 40.2894 41.277 40.5414 41.21C40.9912 41.0906 41.4724 40.8747 41.7762 40.5127C41.9373 40.3207 42.0891 40.0106 42.3646 39.9684C42.6143 39.9303 42.8655 39.9506 43.1164 39.9004" stroke="#FF9800" stroke-width="1.39443" stroke-linecap="round"/>
<path d="M43.2656 39.7725C43.3152 39.6485 43.589 39.5319 43.6874 39.4375C43.8384 39.2926 43.9947 39.1338 44.1347 38.9783C44.3692 38.7177 44.542 38.5389 44.9052 38.4936C45.3613 38.4365 45.8569 38.4561 46.3134 38.4561C46.9813 38.4561 47.6491 38.4561 48.317 38.4561" stroke="#FF9800" stroke-width="1.39443" stroke-linecap="round"/>
<path d="M48.3311 38.4586C48.6052 38.4586 48.7597 38.4653 48.7597 38.1354C48.7597 37.87 48.6701 37.6317 48.5931 37.3786C48.5334 37.1825 48.5209 36.8822 48.3924 36.717C48.1916 36.4589 47.6264 36.7368 47.4059 36.836C47.2092 36.9246 47.0506 37.0324 46.8378 37.0809C46.6312 37.128 46.4276 37.1686 46.2188 37.2034" stroke="#FF9800" stroke-width="1.39443" stroke-linecap="round"/>
<path d="M46.2036 37.2024C45.8458 37.2024 45.5234 37.0498 45.1882 36.9473C44.9637 36.8785 44.7729 36.8709 44.5777 36.7245C44.3257 36.5354 44.1459 36.3166 43.9994 36.039C43.8677 35.7896 43.6778 35.6202 43.4789 35.4268C43.3641 35.3151 43.2213 35.2207 43.1456 35.0747C43.0393 34.8697 43.0406 34.5657 43.0521 34.3416C43.0631 34.1262 43.1587 33.9158 43.2034 33.7056C43.2476 33.4979 43.2961 33.2781 43.3259 33.0695" stroke="#FF9800" stroke-width="1.39443" stroke-linecap="round"/>
<path d="M43.3125 33.0746C43.4251 32.6804 43.7089 32.4532 44.0608 32.3058C44.4085 32.1603 44.6554 32.0031 45.0405 32.0031C45.5757 32.0031 45.8377 31.5748 46.2515 31.299" stroke="#FF9800" stroke-width="1.39443" stroke-linecap="round"/>
<path d="M46.5781 31.1091C46.7863 31.0902 47.0271 30.8895 47.2006 30.786C47.4611 30.6305 47.6887 30.4796 47.9864 30.3982C48.3194 30.3071 48.637 30.1616 48.9728 30.0751C49.3508 29.9777 49.7149 30.0943 50.092 30.0989C50.4161 30.1028 50.7406 30.0989 51.0648 30.0989C51.3366 30.0989 51.6246 30.1081 51.8744 29.9832C52.0659 29.8874 52.1955 29.6584 52.3642 29.524C52.5364 29.3869 52.7356 29.2741 52.9459 29.2111" stroke="#FF9800" stroke-width="1.39443" stroke-linecap="round"/>
<path d="M53.0078 29.1275C53.0828 29.1191 53.1812 29.0528 53.2408 29.0135C53.4487 28.8766 53.639 28.7345 53.8633 28.6223C54.0498 28.5291 54.3256 28.4497 54.4705 28.2941C54.559 28.199 54.5352 28.0338 54.5402 27.9165C54.5494 27.7013 54.5899 27.4682 54.6933 27.277C54.9183 26.8607 55.2595 26.5259 55.576 26.1868C55.7295 26.0223 55.76 25.7552 55.9162 25.6068C56.0534 25.4764 56.4187 25.5456 56.5897 25.5456C56.9115 25.5456 57.2399 25.451 57.5557 25.3993C57.854 25.3505 58.0895 25.4904 58.3653 25.5456" stroke="#FF9800" stroke-width="1.39443" stroke-linecap="round"/>
<path d="M58.4141 25.6337C58.855 25.4248 59.48 25.2456 59.6386 24.7221C59.7013 24.5152 59.7765 24.3076 59.8223 24.0962C59.8688 23.8817 59.953 23.5224 59.8648 23.307C59.7263 22.9684 59.3488 22.6605 59.4413 22.2508C59.5566 21.7404 60.0666 21.3917 60.3121 20.9497" stroke="#FF9800" stroke-width="1.39443" stroke-linecap="round"/>
<path d="M60.2249 20.9144C60.395 20.7274 60.4415 20.5048 60.463 20.2613C60.4877 19.9826 60.1924 19.8519 59.9953 19.7205C59.8068 19.5948 59.5242 19.5085 59.5242 19.2409C59.5242 18.6949 59.8852 18.3668 60.1569 17.9449C60.4532 17.4846 60.4705 16.8231 60.0855 16.4124C59.6365 15.9336 58.857 15.9855 58.2656 15.9855" stroke="#FF9800" stroke-width="1.39443" stroke-linecap="round"/>
<path d="M58.1393 15.9258C57.9235 15.9104 57.7128 15.8064 57.5151 15.7268C57.2113 15.6045 56.8988 15.4434 56.6715 15.203C56.4801 15.0005 56.3054 14.7855 56.1018 14.5941C55.895 14.3999 55.6675 14.3145 55.401 14.2284C55.1305 14.141 54.8314 14.0794 54.5472 14.0652C54.103 14.043 53.6973 14.165 53.2614 14.2046C52.6443 14.2607 52.2177 13.9579 52.0301 13.3746C51.9073 12.9931 51.8785 12.543 51.6474 12.2079C51.3243 11.7394 50.8502 12.0323 50.5283 12.3304C50.1708 12.6613 49.4822 12.9926 49.0469 12.6195" stroke="#FF9800" stroke-width="1.39443" stroke-linecap="round"/>
<path d="M49.235 12.5319C49.0588 12.4099 48.7919 12.3553 48.5938 12.2699C48.3814 12.1784 48.1928 12.0831 47.9662 12.0284C47.7708 11.9813 47.5662 12.089 47.3914 12.1645C47.1578 12.2654 46.9108 12.3638 46.6566 12.3958C46.1819 12.4556 45.73 12.1588 45.3742 11.8839C45.0227 11.6122 44.6177 11.3079 44.4133 10.8991C44.1003 10.2732 44.1887 9.57964 44.1225 8.90578C44.1016 8.69365 44.0302 8.48813 44 8.27649" stroke="#FF9800" stroke-width="1.39443" stroke-linecap="round"/>
<path d="M44.1219 8.46268C44.0583 8.11286 43.5223 7.6793 43.2329 7.50779C42.8714 7.2936 42.252 7.41407 41.8423 7.41407C41.5161 7.41407 41.0898 7.27249 40.8596 7.02907C40.4983 6.6472 40.9819 6.44625 41.1939 6.21855C41.4689 5.92321 41.363 5.17132 41.3079 4.82799C41.2114 4.22668 40.9747 3.58025 40.5658 3.12589C40.2256 2.74793 40.0506 2.26083 39.7451 1.86198C39.5102 1.55536 39.4323 1.31124 39.0156 1.25916" stroke="#FF9800" stroke-width="1.39443" stroke-linecap="round"/>
<path d="M39.1762 1.12186C39.033 1.00726 38.8076 0.939491 38.6266 0.939491C38.4906 0.939491 38.4078 0.867403 38.2821 0.825512C37.9312 0.708531 37.5948 0.745139 37.231 0.754591C36.4114 0.775878 35.3065 0.778134 34.6069 1.2789C34.3291 1.47772 34.1524 1.69377 34.0243 2.00837C33.9521 2.18573 33.9055 2.45275 33.7862 2.60613C33.672 2.75296 33.3326 2.77018 33.1707 2.81129C32.6345 2.94748 32.1175 3.1044 31.613 3.3356C31.2026 3.52369 30.8359 3.71881 30.4023 3.85484C30.1411 3.93678 29.8842 4.02164 29.6247 4.10813C29.2178 4.24378 29.1124 4.75847 29.1004 5.14408C29.0876 5.55381 28.9616 5.86745 28.7812 6.22816" stroke="#FF9800" stroke-width="1.39443" stroke-linecap="round"/>
<path d="M28.8839 5.85775C28.858 6.11616 28.6579 6.5751 28.4685 6.76453C28.244 6.98905 27.6906 6.97432 27.4047 6.94183C26.7942 6.87246 26.4304 6.36762 25.9407 6.06545C25.1521 5.57888 24.1501 5.89521 23.2913 5.97173C22.4983 6.0424 21.7105 6.04012 20.9154 6.04012C20.3033 6.04012 19.7017 6.06457 19.1019 5.92614C18.6102 5.81269 18.3152 5.62464 17.9418 5.30052C17.6502 5.04742 17.3786 4.75121 16.9844 4.67236" stroke="#FF9800" stroke-width="1.39443" stroke-linecap="round"/>
<path d="M17.1781 4.63208C16.7151 4.58799 16.2469 4.26554 15.8357 4.06472C15.3848 3.84455 14.932 3.74004 14.4426 3.65439C13.9035 3.56006 13.3333 3.71974 12.8013 3.58094C12.3447 3.46183 11.9242 3.22086 11.4588 3.15035C10.7362 3.04086 9.82293 3.14241 9.29069 3.67465C9.04937 3.91597 8.86574 4.4242 8.51562 4.5409" stroke="#FF9800" stroke-width="1.39443" stroke-linecap="round"/>
</svg>
