<svg width="121" height="98" viewBox="0 0 121 98" fill="none" xmlns="http://www.w3.org/2000/svg">
<path d="M1.13683 91.1875L7.01973 78.1144H9.41024L15.3118 91.1875H12.7719L7.71074 79.403H8.68188L3.6394 91.1875H1.13683ZM3.84483 88.162L4.49849 86.2571H11.558L12.2116 88.162H3.84483ZM17.0551 91.1875V81.2146H21.9295C23.1372 81.2146 24.0834 81.4387 24.7682 81.8869C25.4654 82.3351 25.8141 82.9701 25.8141 83.7919C25.8141 84.6011 25.4903 85.2361 24.8429 85.6968C24.1955 86.145 23.3364 86.3691 22.2656 86.3691L22.5458 85.7902C23.7535 85.7902 24.6499 86.0143 25.2351 86.4625C25.8327 86.8983 26.1316 87.5395 26.1316 88.3861C26.1316 89.2701 25.8016 89.9611 25.1417 90.4591C24.4818 90.9447 23.4796 91.1875 22.1349 91.1875H17.0551ZM19.2775 89.488H21.9482C22.5831 89.488 23.0625 89.3884 23.3862 89.1892C23.7099 88.9775 23.8718 88.66 23.8718 88.2367C23.8718 87.7885 23.7224 87.4586 23.4236 87.2469C23.1247 87.0352 22.6578 86.9294 22.0229 86.9294H19.2775V89.488ZM19.2775 85.3793H21.724C22.3217 85.3793 22.7699 85.2735 23.0687 85.0618C23.38 84.8377 23.5356 84.5264 23.5356 84.128C23.5356 83.7172 23.38 83.4121 23.0687 83.2129C22.7699 83.0137 22.3217 82.9141 21.724 82.9141H19.2775V85.3793ZM30.6911 91.1875V82.634L31.2327 83.1942H27.18V81.2146H36.518V83.1942H32.484L33.0256 82.634V91.1875H30.6911ZM42.2185 91.3182C41.1975 91.3182 40.2886 91.1003 39.4918 90.6646C38.695 90.2164 38.0662 89.6063 37.6055 88.8343C37.1449 88.0624 36.9145 87.1846 36.9145 86.201C36.9145 85.205 37.1449 84.3272 37.6055 83.5677C38.0662 82.7958 38.695 82.192 39.4918 81.7562C40.2886 81.3204 41.1975 81.1025 42.2185 81.1025C43.2519 81.1025 44.167 81.3204 44.9638 81.7562C45.7731 82.192 46.4019 82.7896 46.8501 83.5491C47.3108 84.3086 47.5411 85.1925 47.5411 86.201C47.5411 87.1846 47.3108 88.0624 46.8501 88.8343C46.4019 89.6063 45.7731 90.2164 44.9638 90.6646C44.167 91.1003 43.2519 91.3182 42.2185 91.3182ZM42.2185 89.3199C42.7912 89.3199 43.3017 89.1954 43.7499 88.9464C44.1981 88.6974 44.5467 88.3363 44.7957 87.8632C45.0572 87.3901 45.1879 86.836 45.1879 86.201C45.1879 85.5536 45.0572 84.9996 44.7957 84.5389C44.5467 84.0658 44.1981 83.7047 43.7499 83.4557C43.3017 83.2067 42.7974 83.0822 42.2371 83.0822C41.6644 83.0822 41.1539 83.2067 40.7057 83.4557C40.27 83.7047 39.9213 84.0658 39.6599 84.5389C39.3984 84.9996 39.2677 85.5536 39.2677 86.201C39.2677 86.836 39.3984 87.3901 39.6599 87.8632C39.9213 88.3363 40.27 88.6974 40.7057 88.9464C41.1539 89.1954 41.6582 89.3199 42.2185 89.3199ZM51.5555 91.1875V82.634L52.0971 83.1942H48.0445V81.2146H57.3824V83.1942H53.3484L53.89 82.634V91.1875H51.5555ZM63.2883 91.3182C62.1802 91.3182 61.2091 91.1003 60.3749 90.6646C59.5532 90.2164 58.912 89.6063 58.4513 88.8343C58.0031 88.0624 57.779 87.1846 57.779 86.201C57.779 85.205 57.9968 84.3272 58.4326 83.5677C58.8808 82.7958 59.4909 82.192 60.2628 81.7562C61.0472 81.3204 61.9374 81.1025 62.9335 81.1025C63.9046 81.1025 64.77 81.3142 65.5294 81.7375C66.2889 82.1608 66.8866 82.7585 67.3223 83.5304C67.7581 84.3023 67.976 85.2112 67.976 86.2571C67.976 86.3567 67.9698 86.4687 67.9573 86.5932C67.9573 86.7177 67.9511 86.836 67.9386 86.9481H59.6279V85.398H66.706L65.7909 85.8836C65.8034 85.3108 65.6851 84.8066 65.4361 84.3708C65.187 83.935 64.8447 83.5927 64.4089 83.3436C63.9856 83.0946 63.4938 82.9701 62.9335 82.9701C62.3608 82.9701 61.8565 83.0946 61.4207 83.3436C60.9974 83.5927 60.6613 83.9413 60.4123 84.3895C60.1757 84.8253 60.0574 85.342 60.0574 85.9396V86.3131C60.0574 86.9107 60.1944 87.4399 60.4683 87.9005C60.7422 88.3612 61.1282 88.7161 61.6262 88.9651C62.1242 89.2141 62.6969 89.3386 63.3444 89.3386C63.9046 89.3386 64.4089 89.2514 64.8571 89.0771C65.3053 88.9028 65.7037 88.6289 66.0524 88.2554L67.3036 89.6934C66.8554 90.2164 66.2889 90.621 65.6041 90.9074C64.9318 91.1813 64.1599 91.3182 63.2883 91.3182ZM68.7804 91.1875L73.1692 85.4727L73.1318 86.724L68.9484 81.2146H71.5444L74.4765 85.1365H73.4867L76.4375 81.2146H78.9587L74.738 86.724L74.7566 85.4727L79.1268 91.1875H76.4935L73.412 87.0228L74.3831 87.1535L71.3576 91.1875H68.7804ZM80.7974 91.1875V81.2146H83.1319V85.2673H88.1557V81.2146H90.4902V91.1875H88.1557V87.2469H83.1319V91.1875H80.7974ZM93.6188 91.1875V81.2146H95.9533V91.1875H93.6188ZM94.7954 79.5711C94.3596 79.5711 93.9985 79.4342 93.7122 79.1602C93.4383 78.8863 93.3013 78.5564 93.3013 78.1704C93.3013 77.772 93.4383 77.4421 93.7122 77.1806C93.9985 76.9067 94.3596 76.7697 94.7954 76.7697C95.2312 76.7697 95.586 76.9005 95.8599 77.1619C96.1463 77.4109 96.2895 77.7284 96.2895 78.1144C96.2895 78.5253 96.1525 78.8739 95.8786 79.1602C95.6047 79.4342 95.2436 79.5711 94.7954 79.5711ZM106.261 91.1875L102.657 86.4065L104.562 85.2299L109.007 91.1875H106.261ZM99.1085 91.1875V81.2146H101.443V91.1875H99.1085ZM100.752 87.1909V85.2486H104.132V87.1909H100.752ZM104.786 86.4812L102.601 86.2197L106.261 81.2146H108.764L104.786 86.4812ZM114.863 91.3182C113.817 91.3182 112.884 91.1003 112.062 90.6646C111.253 90.2164 110.618 89.6063 110.157 88.8343C109.696 88.0624 109.466 87.1846 109.466 86.201C109.466 85.205 109.696 84.3272 110.157 83.5677C110.618 82.7958 111.253 82.192 112.062 81.7562C112.884 81.3204 113.817 81.1025 114.863 81.1025C115.834 81.1025 116.687 81.3017 117.422 81.7002C118.169 82.0861 118.735 82.6589 119.121 83.4183L117.328 84.4642C117.03 83.9911 116.662 83.6425 116.227 83.4183C115.803 83.1942 115.343 83.0822 114.845 83.0822C114.272 83.0822 113.755 83.2067 113.294 83.4557C112.834 83.7047 112.473 84.0658 112.211 84.5389C111.95 84.9996 111.819 85.5536 111.819 86.201C111.819 86.8485 111.95 87.4088 112.211 87.8819C112.473 88.3425 112.834 88.6974 113.294 88.9464C113.755 89.1954 114.272 89.3199 114.845 89.3199C115.343 89.3199 115.803 89.2079 116.227 88.9837C116.662 88.7596 117.03 88.411 117.328 87.9379L119.121 88.9837C118.735 89.7308 118.169 90.3097 117.422 90.7206C116.687 91.119 115.834 91.3182 114.863 91.3182Z" fill="#213F7A"/>
<path fill-rule="evenodd" clip-rule="evenodd" d="M45.2982 58.0533C40.7175 63.6577 33.7504 67.2353 25.9477 67.2353C12.1522 67.2353 0.96875 56.0518 0.96875 42.2563C0.96875 28.4608 12.1522 17.2773 25.9477 17.2773C37.0878 17.2773 46.5246 24.5698 49.7447 34.6414L54.2488 47.5519L59.6104 62.8004H46.9585L45.2982 58.0533ZM38.7866 42.489C38.7866 49.4512 33.1426 55.0952 26.1804 55.0952C19.2182 55.0952 13.5742 49.4512 13.5742 42.489C13.5742 35.5268 19.2182 29.8828 26.1804 29.8828C33.1426 29.8828 38.7866 35.5268 38.7866 42.489Z" fill="#5878B7"/>
<path fill-rule="evenodd" clip-rule="evenodd" d="M49.0614 11.6724L44.8594 0H78.009L82.2111 11.6724H49.0614ZM105.483 57.5248C100.914 63.4307 93.7577 67.2333 85.7133 67.2333C71.9178 67.2333 60.7344 56.0499 60.7344 42.2544C60.7344 28.4589 71.9178 17.2754 85.7133 17.2754C87.602 17.2754 89.4418 17.485 91.2106 17.8822L84.7735 0.0022445L97.1499 0.000873272L119.922 62.9091L107.373 62.7748L105.483 57.5248ZM85.946 55.0933C92.9083 55.0933 98.5523 49.4493 98.5523 42.4871C98.5523 35.5248 92.9083 29.8809 85.946 29.8809C78.9838 29.8809 73.3398 35.5248 73.3398 42.4871C73.3398 49.4493 78.9838 55.0933 85.946 55.0933Z" fill="#5878B7"/>
</svg>
