<svg width="84" height="79" viewBox="0 0 84 79" fill="none" xmlns="http://www.w3.org/2000/svg">
    <g transform="translate(84,0) scale(-1,1)">
        <path d="M33.5855 70.6295L35.7773 77.805C39.463 78.5079 41.5536 78.4788 45.3026 78.0571L48.4366 70.7659L53.0638 75.9427C57.021 74.942 59.0534 74.0166 62.4114 71.7053L61.679 64.763L69.0055 67.3124C72.4291 64.903 73.8382 63.186 75.7444 59.6876L71.8935 53.2641L78.8831 53.1286C80.4611 49.609 81.053 47.5502 81.6931 43.7567L75.3537 39.7834L82.3172 36.3833C82.0266 32.1591 81.6478 29.9326 80.5649 26.2386L73.1891 25.4606L77.0402 19.6585C75.0908 16.2866 73.7572 14.6258 71.0347 11.9881L64.0558 14.0501L65.2516 7.36941C62.3033 5.12835 60.4148 4.1519 56.4747 3.08059L50.554 8.60657L48.5292 1.51352C44.5666 0.836079 42.417 0.821433 38.7344 1.51352L35.9894 8.60656L30.4119 3.08058C26.9011 4.40857 25.0202 5.34084 21.8135 7.3694L22.384 14.6274L15.3317 11.9881C12.4272 14.4783 11.0243 16.1409 8.98718 19.6585L12.4194 25.5969L4.97744 26.4217C3.74006 30.1038 3.1425 32.1373 2.40493 35.6591L9.2958 39.7128L2.10443 43.412C2.34504 47.1803 2.74932 49.1684 3.96727 52.4845L11.9479 53.1443L7.29215 59.0507C8.93972 62.5685 10.9771 65.6013 13.8097 67.7788L20.0163 64.5367L19.0288 71.9894C22.0999 74.2051 24.0432 75.1362 27.8823 76.283L33.5855 70.6295Z" fill="#FF9800" stroke="white" stroke-width="0.72135"/>
        <path d="M35.8997 23.0391L52.5391 39.6783L35.8997 56.3179" stroke="white" stroke-width="4" stroke-linecap="round"/>
    </g>
</svg>
