<svg width="84" height="79" viewBox="0 0 84 79" fill="none" xmlns="http://www.w3.org/2000/svg">
    <g transform="translate(84,0) scale(-1,1)">
        <path d="M50.9145 70.6295L48.7227 77.805C45.037 78.5079 42.9464 78.4788 39.1974 78.0571L36.0634 70.7659L31.4362 75.9427C27.479 74.942 25.4466 74.0166 22.0886 71.7053L22.821 64.763L15.4945 67.3124C12.0709 64.903 10.6618 63.186 8.7556 59.6876L12.6065 53.2641L5.61692 53.1286C4.0389 49.609 3.44702 47.5502 2.8069 43.7567L9.14634 39.7834L2.18284 36.3833C2.47338 32.1591 2.85224 29.9326 3.93508 26.2386L11.3109 25.4606L7.45979 19.6585C9.40923 16.2866 10.7428 14.6258 13.4653 11.9881L20.4442 14.0501L19.2484 7.36941C22.1967 5.12835 24.0852 4.1519 28.0253 3.08059L33.946 8.60657L35.9708 1.51352C39.9334 0.836079 42.083 0.821433 45.7656 1.51352L48.5106 8.60656L54.0881 3.08058C57.5989 4.40857 59.4798 5.34084 62.6865 7.3694L62.116 14.6274L69.1683 11.9881C72.0728 14.4783 73.4757 16.1409 75.5128 19.6585L72.0806 25.5969L79.5226 26.4217C80.7599 30.1038 81.3575 32.1373 82.0951 35.6591L75.2042 39.7128L82.3956 43.412C82.155 47.1803 81.7507 49.1684 80.5327 52.4845L72.5521 53.1443L77.2078 59.0507C75.5603 62.5685 73.5229 65.6013 70.6903 67.7788L64.4837 64.5367L65.4712 71.9894C62.4001 74.2051 60.4568 75.1362 56.6177 76.283L50.9145 70.6295Z" fill="#EFEFEF" stroke="#00193E" stroke-width="0.72135"/>
        <path d="M48.6003 23.0391L31.9609 39.6783L48.6003 56.3179" stroke="#00193E" stroke-width="4" stroke-linecap="round"/>
    </g>
</svg>
