<svg width="377" height="92" viewBox="0 0 377 92" fill="none" xmlns="http://www.w3.org/2000/svg">
<path d="M192.855 91.3275H182.641C181.878 91.3275 181.26 90.7076 181.262 89.9444L181.382 48.3008C181.386 46.6561 182.144 45.1043 183.438 44.0894C188.048 41.1329 195.132 41.5519 199.166 42.7478C201.161 43.3393 202.562 44.9462 203.757 46.65L219.282 68.7964C220.056 69.9001 221.79 69.3526 221.79 68.0048V43.2812C221.79 42.5196 222.408 41.9021 223.169 41.9021H233.533C234.295 41.9021 234.912 42.5196 234.912 43.2812V78.6435C235.067 85.2947 230.714 91.6534 224.063 91.5017C222.591 91.4681 221.202 91.2778 219.942 90.9979C216.284 90.1848 213.538 87.4051 211.396 84.3294L196.745 63.294C195.973 62.1863 194.234 62.7322 194.234 64.0823V89.9484C194.234 90.71 193.617 91.3275 192.855 91.3275Z" fill="white"/>
<path d="M62.1447 76.0185V55.965C62.1447 55.2034 62.7622 54.5859 63.5238 54.5859H74.3252C75.0869 54.5859 75.7043 55.2 75.7043 55.9617V70.2054C75.7043 73.9839 76.5301 78.2949 79.9459 79.9102C82.0654 80.9125 83.9584 80.4358 85.4644 79.3915C87.8939 77.7069 88.3889 74.4714 88.3889 71.5149V55.965C88.3889 55.2034 89.0063 54.5859 89.768 54.5859H100.754C101.5 54.5859 102.111 55.1747 102.129 55.9207C102.269 61.5784 102.416 72.7068 102.094 80.9759C101.744 89.9571 93.2073 91.656 89.267 91.656H80.5673C75.7579 91.656 70.4645 91.7702 66.917 88.5228C62.9152 84.8596 62.0406 79.1803 62.1447 76.0185Z" fill="#0094DE"/>
<path d="M107.926 53.3556V43.9457V43.2834C107.926 42.5217 108.543 41.9043 109.305 41.9043H120.398C121.16 41.9043 121.777 42.5217 121.777 43.2834V53.3556C121.777 54.1173 122.394 54.7347 123.156 54.7347H130.75C131.511 54.7347 132.129 55.3521 132.129 56.1138V62.2493C132.129 63.0109 131.511 63.6284 130.75 63.6284H123.138C122.383 63.6284 121.769 64.2322 121.76 64.9866C121.716 68.9239 121.673 75.3892 121.777 77.7709C121.894 80.4536 125.13 81.0271 126.734 80.9785H130.75C131.511 80.9785 132.129 81.5959 132.129 82.3576V89.9511C132.129 90.7128 131.512 91.3302 130.751 91.3302H116.674C108.743 90.747 107.926 82.0063 107.926 77.7709V65.0075C107.926 64.2458 107.308 63.6284 106.547 63.6284H104.281V54.7347H106.547C107.308 54.7347 107.926 54.1173 107.926 53.3556Z" fill="#0094DE"/>
<path d="M25.0417 42.0043L10.7939 61.4867C9.29986 63.5297 6.45932 64.0287 4.35848 62.6171C2.09333 61.0952 1.58931 57.974 3.26028 55.8164L12.1117 44.3874L21.3999 32.9414C23.0562 30.9003 25.4983 29.6546 28.1231 29.5119L45.5293 28.566C47.119 28.4796 48.6518 27.9788 50.057 27.2304C58.3759 22.7996 78.8062 14.5974 88.8294 10.7302C111.157 4.26459 164.141 -5.79768 198.531 5.29712C198.994 5.4464 199.453 5.56002 199.931 5.64738C216.268 8.6314 240.321 21.7419 252.508 29.2553C254.099 30.2367 255.949 30.7425 257.818 30.7068C313.408 29.6448 354.413 46.254 372.147 57.1183C374.71 58.6888 375.11 62.1476 373.154 64.43C371.614 66.2269 369.05 66.7422 366.916 65.7195C354.041 59.5495 329.3 48.8432 309.87 44.3159C291.671 40.0751 271.56 40.5313 260.156 41.6149C256.906 41.9238 253.499 40.8395 250.758 39.0659C246.394 36.2425 238.329 31.7072 224.734 25.31C203.49 15.3123 179.433 11.4245 170.06 10.7302C161.208 10.1227 136.839 10.3135 110.178 15.9372C85.3058 21.1838 61.0676 31.2511 50.1066 37.0173C48.681 37.7672 47.1069 38.1905 45.4961 38.1905H32.5557C29.5861 38.1905 26.7947 39.6073 25.0417 42.0043Z" fill="white" stroke="white" stroke-width="0.344774"/>
<path fill-rule="evenodd" clip-rule="evenodd" d="M259.778 53.8281C254.746 53.9985 246.747 54.3051 241.928 60.3992C238.58 64.6324 238.105 70.0441 238.147 71.5814L238.273 73.6042C238.473 76.8164 239.09 80.1013 240.676 82.9021C241.506 84.3686 242.659 85.9142 244.419 87.2233C248.308 90.1151 252.249 91.5747 259.643 91.5747C267.028 91.434 273.666 89.3095 275.189 87.7921C275.45 87.5322 275.711 87.2785 275.971 87.0264C278.694 84.3789 281.248 81.8964 281.931 73.9297C282.24 70.3248 281.483 67.123 280.433 64.5488C278.874 60.7259 275.731 57.7151 271.979 55.9919C269 54.6237 265.503 53.8282 259.778 53.8281ZM286.786 91.434H299.74C300.502 91.434 301.119 90.8165 301.119 90.0549V64.554C301.119 63.7923 301.737 63.1749 302.498 63.1749H305.166C305.927 63.1749 306.545 63.7923 306.545 64.554V90.0549C306.545 90.8165 307.162 91.434 307.924 91.434H320.878C321.64 91.434 322.257 90.8165 322.257 90.0549V64.257C322.257 63.6217 322.692 63.0533 323.326 63.0232C325.24 62.9325 327.758 63.7534 327.683 67.5833C327.599 71.8721 327.638 83.5967 327.675 90.0667C327.679 90.825 328.295 91.434 329.053 91.434H340.659C341.421 91.434 342.038 90.8165 342.038 90.0549V65.5486C341.925 62.1199 339.665 55.0815 331.526 54.3581H290.698C290.559 54.3581 290.427 54.3771 290.296 54.4257C288.549 55.0775 285.407 57.6041 285.407 63.1749V90.0557C285.407 90.8174 286.025 91.434 286.786 91.434ZM260.301 82.1463C265.447 82.1463 268.091 78.0181 268.091 72.7652C268.091 66.0298 265.153 63.2539 260.006 63.2539C254.86 63.2539 251.84 66.2088 251.84 72.7652C251.84 79.3215 255.154 82.1463 260.301 82.1463Z" fill="white"/>
<path fill-rule="evenodd" clip-rule="evenodd" d="M134.34 65.0258C137.605 56.0444 145.583 54.8559 154.288 54.4352C160.314 54.1435 171.227 56.8421 174.249 64.3167C176.065 68.807 176.109 76.7434 174.846 80.5331C173.905 83.3549 168.503 91.1764 154.288 91.1764C145.034 91.1764 138.826 89.111 134.339 80.5331C133.367 77.9087 132.042 71.3463 134.34 65.0258ZM158.157 81.2153C161.018 79.7862 162.478 76.5041 162.478 72.6011C162.478 65.8657 159.54 63.0898 154.393 63.0898C152.809 63.0898 151.427 63.3696 150.273 63.9479C147.669 65.2474 146.219 68.0614 146.219 72.605C146.219 79.1614 149.533 81.9862 154.68 81.9862C156.006 81.9862 157.166 81.7121 158.157 81.2153Z" fill="#0094DE"/>
<path fill-rule="evenodd" clip-rule="evenodd" d="M7.10096 91.669H20.8357C21.4105 91.669 21.9251 91.3124 22.127 90.7742L25.6008 81.5116C25.8027 80.9733 26.3173 80.6168 26.8921 80.6168H40.7526C41.3165 80.6168 41.8236 80.9601 42.0331 81.4837L45.7606 90.8021C45.97 91.3257 46.4771 91.669 47.041 91.669H62.0877C63.0846 91.669 63.7522 90.6437 63.3488 89.7319L46.9313 52.6242C45.0183 48.3002 42.4135 43.9021 37.8865 42.5374C35.7058 41.88 33.1883 41.6616 30.5285 42.3499C25.6079 43.6232 22.7637 48.4583 20.7664 53.1321C16.0159 64.2489 9.49889 80.4832 5.81642 89.7918C5.45863 90.6963 6.12832 91.669 7.10096 91.669ZM31.2974 70.0445H36.8331C36.8489 70.0445 36.8648 70.0445 36.8807 70.0446C37.4424 70.0449 38.067 70.0453 38.4429 69.6331C38.8533 69.183 38.7078 68.4759 38.5838 67.8796C37.8482 64.3387 37.1636 61.9696 35.7938 58.5292C35.4269 57.6077 34.8807 56.4317 33.9028 56.5978C33.2384 56.7107 32.8246 57.431 32.5191 58.0317C30.5875 61.8295 29.8021 64.3248 29.2487 68.7817C29.1375 69.7731 30.2998 70.0445 31.2974 70.0445Z" fill="#0094DE"/>
</svg>
