<svg width="210" height="88" viewBox="0 0 210 88" fill="none" xmlns="http://www.w3.org/2000/svg">
<circle cx="74.0018" cy="7.37093" r="7.03695" fill="#5B5B5D"/>
<circle cx="74.0018" cy="52.2381" r="7.03695" fill="#5B5B5D"/>
<circle cx="105.15" cy="37.0116" r="7.03695" fill="#5B5B5D"/>
<circle cx="89.5838" cy="22.2127" r="7.03695" fill="#FF9800"/>
<circle cx="121.099" cy="52.2381" r="7.03695" fill="#5B5B5D"/>
<circle cx="120.804" cy="7.17713" r="4.96424" fill="#5B5B5D"/>
<circle cx="105.148" cy="7.17713" r="4.96424" fill="#5B5B5D"/>
<circle cx="120.804" cy="21.7533" r="4.96424" fill="#5B5B5D"/>
<circle cx="121.149" cy="37.0125" r="3.39144" fill="#5B5B5D"/>
<circle cx="105.532" cy="52.2371" r="3.39144" fill="#5B5B5D"/>
<circle cx="89.5828" cy="37.0125" r="3.39144" fill="#5B5B5D"/>
<circle cx="105.27" cy="21.6336" r="3.39144" fill="#5B5B5D"/>
<circle cx="89.5438" cy="6.75472" r="3.39144" fill="#5B5B5D"/>
<circle cx="73.618" cy="21.8289" r="3.39144" fill="#5B5B5D"/>
<circle cx="73.6166" cy="37.0131" r="4.96424" fill="#5B5B5D"/>
<circle cx="89.5853" cy="52.2377" r="4.96424" fill="#5B5B5D"/>
<path fill-rule="evenodd" clip-rule="evenodd" d="M14.3927 71.3105H3.85192C1.89931 71.3105 0.316406 72.8935 0.316406 74.8461V79.2189V83.9494C0.316406 85.7044 1.73914 87.1272 3.49417 87.1272H14.3927C14.7738 87.1272 15.0828 86.8182 15.0828 86.4371V85.7076C15.0828 85.0418 14.543 84.502 13.8772 84.502H5.38227C4.89725 84.502 4.4532 84.2131 4.29521 83.7546C3.78952 82.2868 3.67501 80.9459 3.72868 79.186C3.73441 78.9982 3.73928 78.8151 3.74405 78.636C3.78403 77.1334 3.81625 75.9228 4.28014 74.7261C4.44141 74.3101 4.86082 74.067 5.30699 74.067H13.8772C14.543 74.067 15.0828 73.5272 15.0828 72.8614V72.0006C15.0828 71.6195 14.7738 71.3105 14.3927 71.3105ZM17.7826 73.0077L18.4204 72.3699C19.0986 71.6916 20.0186 71.3105 20.9778 71.3105H28.391C29.3654 71.3105 30.2985 71.7037 30.9791 72.4008L31.5768 73.0132C32.2363 73.6888 32.6055 74.5955 32.6055 75.5396V82.9777C32.6055 83.9524 32.2121 84.8858 31.5144 85.5665L30.9684 86.0992C30.2928 86.7583 29.3865 87.1272 28.4427 87.1272H20.9264C19.9977 87.1272 19.1046 86.7699 18.4321 86.1295L17.8457 85.571C17.1289 84.8883 16.7233 83.9418 16.7233 82.952V75.5651C16.7233 74.6058 17.1043 73.6859 17.7826 73.0077ZM38.6434 72.5161V83.2964C38.6434 83.9622 39.1832 84.502 39.849 84.502H48.6604C49.3262 84.502 49.866 85.0418 49.866 85.7076V85.9216C49.866 86.5874 49.3262 87.1272 48.6604 87.1272H37.2424C36.0226 87.1272 35.0338 86.1383 35.0338 84.9185V84.502V72.5161C35.0338 71.8503 35.5735 71.3105 36.2394 71.3105H37.4378C38.1036 71.3105 38.6434 71.8503 38.6434 72.5161ZM52.0438 73.4757L54.1166 71.6183C54.3377 71.4201 54.6242 71.3105 54.9211 71.3105H64.308C64.6124 71.3105 64.9056 71.4257 65.1286 71.633L67.1134 73.4774C67.3589 73.7055 67.4984 74.0254 67.4984 74.3605V84.1153C67.4984 84.3668 67.4197 84.612 67.2735 84.8165L65.982 86.6228C65.7557 86.9393 65.3905 87.1272 65.0013 87.1272H54.342C53.9781 87.1272 53.6337 86.9628 53.4048 86.6799L51.9111 84.8337C51.7374 84.6191 51.6427 84.3514 51.6427 84.0754V74.3735C51.6427 74.0309 51.7885 73.7044 52.0438 73.4757ZM70.4821 87.1272H72.3683C73.0341 87.1272 73.5739 86.5874 73.5739 85.9216V77.0583C73.5739 75.3272 74.9772 73.9238 76.7084 73.9238H80.0809C80.9543 73.9238 81.7402 74.4544 82.0665 75.2646C82.2597 75.7442 82.2728 76.2775 82.1033 76.766L82.0765 76.8432C81.7472 77.7924 80.8528 78.4288 79.8481 78.4288H76.2165C75.7118 78.4288 75.3027 78.8379 75.3027 79.3426C75.3027 79.8472 75.7118 80.2563 76.2165 80.2563H79.8365C80.3434 80.2563 80.8234 80.4839 81.1444 80.8761C81.3914 81.1781 81.5264 81.5562 81.5264 81.9463V85.9216C81.5264 86.5874 82.0662 87.1272 82.732 87.1272H84.6182C85.284 87.1272 85.8237 86.5874 85.8237 85.9216V80.924C85.8237 80.5298 85.56 80.1843 85.1797 80.0804C84.3428 79.8518 84.3138 78.6753 85.1385 78.4057L85.2062 78.3836C85.5746 78.2632 85.8237 77.9196 85.8237 77.5321V75.1401C85.8237 74.4842 85.618 73.8449 85.2355 73.3121L84.7365 72.617C84.1477 71.7969 83.1999 71.3105 82.1903 71.3105H72.9158C72.0153 71.3105 71.1583 71.6978 70.5633 72.3737L69.5773 73.4935C69.3835 73.7136 69.2766 73.9969 69.2766 74.2902V85.9216C69.2766 86.5874 69.8163 87.1272 70.4821 87.1272ZM91.902 87.1272H90.1147C89.4488 87.1272 88.9091 86.5874 88.9091 85.9216V74.6211C88.9091 74.3071 89.0316 74.0055 89.2506 73.7804L91.2988 71.6754C91.5257 71.4421 91.8373 71.3105 92.1628 71.3105H99.8695C100.284 71.3105 100.67 71.5237 100.89 71.8748L102.62 74.6277C102.741 74.8198 102.805 75.0421 102.805 75.269V85.9216C102.805 86.5874 102.265 87.1272 101.599 87.1272H100.486C99.8205 87.1272 99.2808 86.5874 99.2808 85.9216V75.2327C99.2808 74.5669 98.741 74.0272 98.0752 74.0272H94.3132C93.6474 74.0272 93.1076 74.5669 93.1076 75.2327V85.9216C93.1076 86.5874 92.5679 87.1272 91.902 87.1272ZM102.415 72.5161V72.7823C102.415 73.4482 102.954 73.9879 103.62 73.9879H106.374C107.04 73.9879 107.58 74.5277 107.58 75.1935V85.9216C107.58 86.5874 108.12 87.1272 108.785 87.1272H110.815C111.481 87.1272 112.021 86.5874 112.021 85.9216V74.4907C112.021 74.1689 111.892 73.8605 111.664 73.6341L109.67 71.6596C109.444 71.436 109.139 71.3105 108.822 71.3105H103.62C102.954 71.3105 102.415 71.8503 102.415 72.5161ZM117.102 73.9879H126.028C126.694 73.9879 127.233 74.5277 127.233 75.1935V83.2922C127.233 83.958 126.694 84.4977 126.028 84.4977H120.306C119.64 84.4977 119.1 83.958 119.1 83.2922V82.3145C119.1 81.6487 119.64 81.109 120.306 81.109H124.241C124.907 81.109 125.446 80.5692 125.446 79.9034V79.4187C125.446 78.7529 124.907 78.2131 124.241 78.2131H118.611C117.526 78.2131 116.433 78.5417 115.775 79.4043C115.217 80.1354 114.67 81.1655 114.679 82.3887C114.688 83.5242 115.16 84.6106 115.67 85.4561C116.366 86.6087 117.697 87.1272 119.043 87.1272H127.074C128.276 87.1272 129.425 86.6295 130.247 85.7523C131.003 84.9463 131.423 83.883 131.423 82.7782V74.4583C131.423 74.1558 131.309 73.8644 131.104 73.6418L129.317 71.6996C129.088 71.4516 128.767 71.3105 128.43 71.3105H117.102C116.436 71.3105 115.896 71.8503 115.896 72.5161V72.7823C115.896 73.4482 116.436 73.9879 117.102 73.9879ZM135.106 87.1272H136.885C137.551 87.1272 138.091 86.5874 138.091 85.9216V75.1935C138.091 74.5277 138.63 73.9879 139.296 73.9879H145.447C145.888 73.9879 146.293 74.2284 146.505 74.6151L147.056 75.6224C147.265 76.0048 147.251 76.4702 147.02 76.8398L146.516 77.6465C146.296 77.999 145.909 78.2131 145.494 78.2131H141.021C140.355 78.2131 139.816 78.7529 139.816 79.4187V79.9034C139.816 80.5692 140.355 81.109 141.021 81.109H145.511C146.177 81.109 146.716 81.6487 146.716 82.3145V85.9216C146.716 86.5874 147.256 87.1272 147.922 87.1272H149.885C150.551 87.1272 151.091 86.5874 151.091 85.9216V81.2791C151.091 80.9356 150.945 80.6085 150.688 80.3798L150.439 80.1572C149.88 79.6576 149.907 78.7735 150.497 78.31L150.63 78.2055C150.921 77.9769 151.091 77.6274 151.091 77.2575V74.4669C151.091 74.1593 150.973 73.8633 150.762 73.6395L148.922 71.6888C148.694 71.4474 148.377 71.3105 148.045 71.3105H136.894C136.557 71.3105 136.235 71.4516 136.007 71.6996L134.219 73.6418C134.015 73.8644 133.901 74.1558 133.901 74.4583V85.9216C133.901 86.5874 134.441 87.1272 135.106 87.1272ZM153.384 72.5161C153.384 71.8503 153.924 71.3105 154.59 71.3105H156.553C157.219 71.3105 157.759 71.8503 157.759 72.5161V77.0076C157.759 77.6734 158.298 78.2131 158.964 78.2131H159.043C159.364 78.2131 159.673 78.0846 159.899 77.8561L166.031 71.6676C166.257 71.4391 166.565 71.3105 166.887 71.3105H168.164C169.2 71.3105 169.754 72.5304 169.072 73.3099L164.613 78.4072C164.216 78.8608 164.215 79.5378 164.611 79.9924L169.082 85.1301C169.761 85.9103 169.207 87.1272 168.173 87.1272H166.886C166.565 87.1272 166.257 86.9991 166.031 86.7715L159.899 80.6021C159.673 80.3744 159.365 80.2464 159.044 80.2464H158.964C158.298 80.2464 157.759 80.7861 157.759 81.452V85.9216C157.759 86.5874 157.219 87.1272 156.553 87.1272H154.59C153.924 87.1272 153.384 86.5874 153.384 85.9216V72.5161ZM186.594 72.5161V72.8794C186.594 73.5453 186.054 74.085 185.388 74.085H176.401C175.735 74.085 175.195 74.6248 175.195 75.2906V83.1689C175.195 83.8347 175.735 84.3745 176.401 84.3745H185.388C186.054 84.3745 186.594 84.9143 186.594 85.5801V85.9216C186.594 86.5874 186.054 87.1272 185.388 87.1272H174.036C173.714 87.1272 173.404 86.9976 173.178 86.7675L171.167 84.7265C170.945 84.5009 170.821 84.1971 170.821 83.8805V74.5762C170.821 74.2613 170.944 73.9589 171.164 73.7337L173.177 71.6736C173.404 71.4414 173.715 71.3105 174.039 71.3105H185.388C186.054 71.3105 186.594 71.8503 186.594 72.5161ZM184.884 79.4195V79.3838C184.884 78.7179 184.344 78.1782 183.678 78.1782H178.223C177.557 78.1782 177.018 78.7179 177.018 79.3837V79.4195C177.018 80.0853 177.557 80.6251 178.223 80.6251H183.678C184.344 80.6251 184.884 80.0853 184.884 79.4195ZM188.185 72.5161V72.7984C188.185 73.4642 188.724 74.004 189.39 74.004H192.317C192.982 74.004 193.522 74.5437 193.522 75.2095V85.9216C193.522 86.5874 194.062 87.1272 194.728 87.1272H196.723C197.396 87.1272 197.938 86.5761 197.928 85.9031L197.764 75.228C197.754 74.5551 198.297 74.004 198.97 74.004H202.009C202.674 74.004 203.214 73.4642 203.214 72.7984V72.5161C203.214 71.8503 202.674 71.3105 202.009 71.3105H189.39C188.724 71.3105 188.185 71.8503 188.185 72.5161ZM207.027 71.3105H207.968C208.634 71.3105 209.174 71.8503 209.174 72.5161V73.6804C209.174 74.3462 208.634 74.886 207.968 74.886H207.027C206.361 74.886 205.821 74.3462 205.821 73.6804V72.5161C205.821 71.8503 206.361 71.3105 207.027 71.3105ZM26.4243 74.0801H22.866C21.2681 74.0801 19.9727 75.3755 19.9727 76.9734V81.6055C19.9727 83.2034 21.2681 84.4988 22.866 84.4988H26.4243C28.0223 84.4988 29.3177 83.2034 29.3177 81.6055V76.9734C29.3177 75.3755 28.0223 74.0801 26.4243 74.0801ZM64.3646 76.8406V81.6445C64.3646 83.2425 63.0692 84.5379 61.4712 84.5379H57.9129C56.3149 84.5379 55.0195 83.2425 55.0195 81.6445V76.8406C55.0195 75.2427 56.3149 73.9473 57.9129 73.9473H59.6921H61.4712C63.0692 73.9473 64.3646 75.2427 64.3646 76.8406Z" fill="#5B5B5D"/>
</svg>
