<svg width="178" height="92" viewBox="0 0 178 92" fill="none" xmlns="http://www.w3.org/2000/svg">
<path d="M47.7842 52.8249C46.3947 52.8249 45.194 52.5213 44.1822 51.9142C43.1839 51.2937 42.4081 50.437 41.855 49.3442C41.3019 48.238 41.0253 46.9563 41.0253 45.4993C41.0253 44.0558 41.3019 42.7877 41.855 41.6949C42.4081 40.5887 43.1839 39.7252 44.1822 39.1047C45.194 38.4841 46.3947 38.1738 47.7842 38.1738C49.4032 38.1738 50.7185 38.565 51.7303 39.3475C52.7556 40.1165 53.4099 41.1957 53.6932 42.5853H51.8113C51.5954 41.7084 51.1502 41.0069 50.4757 40.4807C49.8146 39.9411 48.9175 39.6713 47.7842 39.6713C46.7724 39.6713 45.8888 39.9074 45.1333 40.3795C44.3778 40.8382 43.791 41.506 43.3727 42.3829C42.968 43.2464 42.7656 44.2851 42.7656 45.4993C42.7656 46.7135 42.968 47.759 43.3727 48.636C43.791 49.4994 44.3778 50.1672 45.1333 50.6393C45.8888 51.098 46.7724 51.3274 47.7842 51.3274C48.9175 51.3274 49.8146 51.0711 50.4757 50.5584C51.1502 50.0323 51.5954 49.3375 51.8113 48.4741H53.6932C53.4099 49.8366 52.7556 50.9024 51.7303 51.6714C50.7185 52.4404 49.4032 52.8249 47.7842 52.8249ZM61.8632 52.8249C60.4736 52.8249 59.2527 52.5213 58.2004 51.9142C57.1616 51.2937 56.3454 50.4302 55.7518 49.324C55.1717 48.2177 54.8817 46.9428 54.8817 45.4993C54.8817 44.0558 55.1717 42.7877 55.7518 41.6949C56.3454 40.5887 57.1616 39.7252 58.2004 39.1047C59.2527 38.4841 60.4736 38.1738 61.8632 38.1738C63.2662 38.1738 64.4871 38.4841 65.5259 39.1047C66.5782 39.7252 67.3944 40.5887 67.9745 41.6949C68.5546 42.7877 68.8447 44.0558 68.8447 45.4993C68.8447 46.9428 68.5546 48.2177 67.9745 49.324C67.3944 50.4302 66.5782 51.2937 65.5259 51.9142C64.4871 52.5213 63.2662 52.8249 61.8632 52.8249ZM61.8632 51.3274C62.902 51.3274 63.8126 51.098 64.5951 50.6393C65.391 50.1672 66.0049 49.4994 66.4366 48.636C66.8818 47.759 67.1044 46.7135 67.1044 45.4993C67.1044 44.2851 66.8818 43.2464 66.4366 42.3829C66.0049 41.5195 65.391 40.8585 64.5951 40.3998C63.8126 39.9276 62.902 39.6915 61.8632 39.6915C60.8244 39.6915 59.907 39.9276 59.111 40.3998C58.3286 40.8585 57.7147 41.5195 57.2695 42.3829C56.8378 43.2464 56.622 44.2851 56.622 45.4993C56.622 46.7135 56.8378 47.759 57.2695 48.636C57.7147 49.4994 58.3286 50.1672 59.111 50.6393C59.907 51.098 60.8244 51.3274 61.8632 51.3274ZM70.5887 52.582V38.4166H72.2885V51.2262H78.8855V52.582H70.5887ZM85.6234 52.8249C84.2339 52.8249 83.0129 52.5213 81.9607 51.9142C80.9219 51.2937 80.1057 50.4302 79.5121 49.324C78.932 48.2177 78.6419 46.9428 78.6419 45.4993C78.6419 44.0558 78.932 42.7877 79.5121 41.6949C80.1057 40.5887 80.9219 39.7252 81.9607 39.1047C83.0129 38.4841 84.2339 38.1738 85.6234 38.1738C87.0265 38.1738 88.2474 38.4841 89.2862 39.1047C90.3385 39.7252 91.1547 40.5887 91.7348 41.6949C92.3149 42.7877 92.605 44.0558 92.605 45.4993C92.605 46.9428 92.3149 48.2177 91.7348 49.324C91.1547 50.4302 90.3385 51.2937 89.2862 51.9142C88.2474 52.5213 87.0265 52.8249 85.6234 52.8249ZM85.6234 51.3274C86.6622 51.3274 87.5729 51.098 88.3553 50.6393C89.1513 50.1672 89.7651 49.4994 90.1968 48.636C90.642 47.759 90.8646 46.7135 90.8646 45.4993C90.8646 44.2851 90.642 43.2464 90.1968 42.3829C89.7651 41.5195 89.1513 40.8585 88.3553 40.3998C87.5729 39.9276 86.6622 39.6915 85.6234 39.6915C84.5846 39.6915 83.6673 39.9276 82.8713 40.3998C82.0888 40.8585 81.475 41.5195 81.0298 42.3829C80.5981 43.2464 80.3822 44.2851 80.3822 45.4993C80.3822 46.7135 80.5981 47.759 81.0298 48.636C81.475 49.4994 82.0888 50.1672 82.8713 50.6393C83.6673 51.098 84.5846 51.3274 85.6234 51.3274ZM94.3489 52.582V38.4166H98.9223C100.029 38.4166 100.932 38.5988 101.634 38.963C102.336 39.3273 102.855 39.8264 103.192 40.4605C103.529 41.0946 103.698 41.7961 103.698 42.5651C103.698 43.4555 103.455 44.2582 102.97 44.9732C102.497 45.6882 101.755 46.1941 100.744 46.4909L103.84 52.582H101.836L98.9628 46.7337H98.8414H96.0488V52.582H94.3489ZM96.0488 45.3981H98.8009C99.8937 45.3981 100.69 45.1351 101.189 44.6089C101.688 44.0828 101.938 43.4082 101.938 42.5853C101.938 41.7489 101.688 41.0878 101.189 40.6021C100.703 40.103 99.9004 39.8534 98.7807 39.8534H96.0488V45.3981ZM110.351 52.8249C109.312 52.8249 108.395 52.6495 107.599 52.2987C106.803 51.9345 106.176 51.4218 105.717 50.7608C105.258 50.0862 105.022 49.27 105.009 48.3122H107.741C107.768 48.9732 108.004 49.5331 108.449 49.9918C108.908 50.437 109.535 50.6596 110.331 50.6596C111.019 50.6596 111.565 50.4977 111.97 50.1739C112.375 49.8366 112.577 49.3914 112.577 48.8383C112.577 48.2582 112.395 47.8063 112.031 47.4825C111.68 47.1587 111.208 46.8956 110.614 46.6933C110.021 46.4909 109.387 46.2751 108.712 46.0457C107.619 45.668 106.783 45.1823 106.203 44.5887C105.636 43.9951 105.353 43.2059 105.353 42.221C105.339 41.3846 105.535 40.6696 105.94 40.076C106.358 39.4689 106.925 39.0035 107.64 38.6797C108.355 38.3424 109.178 38.1738 110.108 38.1738C111.053 38.1738 111.882 38.3424 112.597 38.6797C113.326 39.017 113.893 39.4891 114.297 40.0962C114.716 40.7033 114.938 41.4251 114.965 42.2615H112.193C112.179 41.7624 111.984 41.3239 111.606 40.9462C111.242 40.5549 110.729 40.3593 110.068 40.3593C109.501 40.3458 109.022 40.4875 108.631 40.7843C108.253 41.0676 108.065 41.4858 108.065 42.0389C108.065 42.5111 108.213 42.8888 108.51 43.1722C108.807 43.442 109.211 43.6713 109.724 43.8602C110.237 44.0491 110.823 44.2514 111.484 44.4673C112.186 44.7101 112.827 44.9934 113.407 45.3172C113.987 45.641 114.452 46.0727 114.803 46.6123C115.154 47.1385 115.329 47.8198 115.329 48.6562C115.329 49.3982 115.14 50.0862 114.763 50.7203C114.385 51.3544 113.825 51.867 113.083 52.2583C112.341 52.636 111.431 52.8249 110.351 52.8249ZM119.931 52.582V47.5432L115.176 38.4166H118.11L121.247 44.9529L124.363 38.4166H127.257L122.521 47.5432V52.582H119.931ZM132.234 52.8249C131.195 52.8249 130.278 52.6495 129.482 52.2987C128.686 51.9345 128.059 51.4218 127.6 50.7608C127.141 50.0862 126.905 49.27 126.892 48.3122H129.624C129.651 48.9732 129.887 49.5331 130.332 49.9918C130.791 50.437 131.418 50.6596 132.214 50.6596C132.902 50.6596 133.448 50.4977 133.853 50.1739C134.258 49.8366 134.46 49.3914 134.46 48.8383C134.46 48.2582 134.278 47.8063 133.914 47.4825C133.563 47.1587 133.091 46.8956 132.497 46.6933C131.904 46.4909 131.27 46.2751 130.595 46.0457C129.502 45.668 128.666 45.1823 128.086 44.5887C127.519 43.9951 127.236 43.2059 127.236 42.221C127.222 41.3846 127.418 40.6696 127.823 40.076C128.241 39.4689 128.807 39.0035 129.522 38.6797C130.237 38.3424 131.06 38.1738 131.991 38.1738C132.936 38.1738 133.765 38.3424 134.48 38.6797C135.209 39.017 135.775 39.4891 136.18 40.0962C136.598 40.7033 136.821 41.4251 136.848 42.2615H134.076C134.062 41.7624 133.866 41.3239 133.489 40.9462C133.125 40.5549 132.612 40.3593 131.951 40.3593C131.384 40.3458 130.905 40.4875 130.514 40.7843C130.136 41.0676 129.947 41.4858 129.947 42.0389C129.947 42.5111 130.096 42.8888 130.393 43.1722C130.689 43.442 131.094 43.6713 131.607 43.8602C132.119 44.0491 132.706 44.2514 133.367 44.4673C134.069 44.7101 134.71 44.9934 135.29 45.3172C135.87 45.641 136.335 46.0727 136.686 46.6123C137.037 47.1385 137.212 47.8198 137.212 48.6562C137.212 49.3982 137.023 50.0862 136.646 50.7203C136.268 51.3544 135.708 51.867 134.966 52.2583C134.224 52.636 133.313 52.8249 132.234 52.8249ZM141.885 52.582V40.501H137.756V38.4166H148.623V40.501H144.475V52.582H141.885ZM149.834 52.582V38.4166H159.082V40.501H152.424V44.3863H158.475V46.41H152.424V50.4977H159.082V52.582H149.834ZM160.825 52.582V38.4166H163.901L168.413 47.4015L172.865 38.4166H175.941V52.582H173.351V42.8079L169.405 50.5584H167.361L163.415 42.8079V52.582H160.825Z" fill="black"/>
<path d="M11.5166 75.3737C4.31303 66.4853 1.62515 58.2501 1.33594 50.1289L23.8053 72.1874C36.1923 71.9823 43.1327 72.3093 55.5129 68.0912C58.0001 66.746 60.4721 65.6935 63.7052 62.3262L79.3314 78.2559C65.8703 90.4197 53.8816 93.3404 35.9422 90.8478C25.2458 87.4907 18.7246 83.7564 11.5166 75.3737Z" fill="#0AA2E3"/>
<path d="M38.8431 1.32241C50.2137 0.367605 55.1511 0.694108 63.1886 3.4221L43.1149 8.0905L29.3434 13.4591L21.9908 24.5463L23.6102 51.5469C25.0793 56.3308 27.038 61.6044 35.6456 66.9113C44.0994 70.4602 48.4173 70.5163 56.2656 67.6158C53.8114 70.5432 51.3174 72.3563 46.4098 74.7724C39.2615 76.9566 34.8276 77.4151 27.0996 76.7137C19.1999 75.3799 12.4816 70.63 5.50704 62.3622C-0.331769 54.7208 -0.609518 42.4488 3.86634 29.5496C9.83686 15.5445 20.947 4.43373 38.8431 1.32241Z" fill="#245AA7"/>
<path d="M32.1196 16.9564L63.5531 3.52696C53.3085 0.00142539 46.0015 -0.107489 40.2733 0.846843C30.1017 2.44904 25.8112 4.6035 18.8478 9.63726C12.3501 15.0989 8.40628 18.9581 6.59899 25.7453C5.3918 30.9378 5.38944 33.8446 5.83451 39.0258C6.78751 45.6695 7.62001 49.1273 10.4725 54.0667C13.7544 59.9358 15.9126 62.3795 19.8902 66.2964C25.9054 71.1798 29.4164 72.3392 35.7746 73.3249C41.9903 74.1636 45.5274 72.8948 50.8968 70.7974L56.1822 67.7772C51.6431 69.8109 41.6243 70.0398 35.7746 66.8132C28.8468 62.992 23.295 54.0667 23.295 49.6556C22.4587 44.1619 22.5761 41.0495 24.3876 35.5115L32.1196 16.9564Z" fill="#124085"/>
<path d="M63.3738 29.0394L79.3616 14.3106C73.9388 9.12747 71.0191 7.06707 63.4322 3.79999C57.0638 2.81356 52.8142 2.96873 46.4365 4.07455C39.0779 5.63128 35.0921 7.47647 28.3127 13.0694C22.0726 20.8507 20.3882 25.7863 19.9883 35.3549C20.1793 42.9264 21.1864 46.2046 23.6429 51.5056C19.3478 25.9366 46.4365 14.3106 63.3738 29.0394Z" fill="#F11C14" stroke="#F11C14" stroke-width="0.505907"/>
</svg>
