<svg width="92" height="88" viewBox="0 0 92 88" fill="none" xmlns="http://www.w3.org/2000/svg">
<mask id="path-1-inside-1_264_1764" fill="white">
<rect x="0.707031" y="0.953613" width="73.2903" height="86.6195" rx="1.93753"/>
</mask>
<rect x="0.707031" y="0.953613" width="73.2903" height="86.6195" rx="1.93753" stroke="#FF9800" stroke-width="4.43673" mask="url(#path-1-inside-1_264_1764)"/>
<line x1="15.3084" y1="18.2023" x2="59.0782" y2="18.2023" stroke="#FF9800" stroke-width="2.21837" stroke-linecap="round"/>
<line x1="15.3084" y1="32.0847" x2="59.0782" y2="32.0847" stroke="#FF9800" stroke-width="2.21837" stroke-linecap="round"/>
<line x1="15.3084" y1="45.967" x2="59.0782" y2="45.967" stroke="#FF9800" stroke-width="2.21837" stroke-linecap="round"/>
<line x1="15.3084" y1="59.8493" x2="59.0782" y2="59.8493" stroke="#FF9800" stroke-width="2.21837" stroke-linecap="round"/>
<line x1="15.3084" y1="73.7321" x2="59.0782" y2="73.7321" stroke="#FF9800" stroke-width="2.21837" stroke-linecap="round"/>
<circle cx="66.8005" cy="46.0832" r="22.4287" transform="rotate(-32.5086 66.8005 46.0832)" fill="white" stroke="#FF9800" stroke-width="2.21837"/>
<path d="M89.4027 86.526C89.7319 87.0426 90.4176 87.1945 90.9342 86.8653C91.4508 86.5361 91.6027 85.8504 91.2734 85.3338L89.4027 86.526ZM75.842 65.247L89.4027 86.526L91.2734 85.3338L77.7127 64.0548L75.842 65.247Z" fill="#FF9800"/>
<path d="M73.6621 45.8252C74.1203 46.5442 74.3288 47.2499 74.2876 47.9424C74.2628 48.6245 74.0502 49.5526 73.6497 50.7268C73.3353 51.6395 72.7845 52.4155 71.9973 53.055C72.4659 53.7903 72.7552 54.2263 72.8652 54.3629C72.9694 54.5263 72.9903 54.6853 72.928 54.8399C72.882 54.984 72.7773 55.1082 72.6139 55.2123C72.4015 55.3477 72.1586 55.3991 71.8851 55.3666C71.6384 55.34 71.437 55.2042 71.2808 54.9591C71.1038 54.6813 70.8844 54.3731 70.6226 54.0345C70.2527 54.2472 69.8761 54.3953 69.4928 54.4788C69.1095 54.5622 68.7804 54.6226 68.5055 54.66C68.2469 54.6869 68.0745 54.7048 67.9884 54.7138C67.1398 54.6802 66.4904 54.6345 66.0401 54.5769C65.5794 54.5029 65.1603 54.3679 64.7827 54.172C64.4051 53.9761 64.0809 53.6657 63.8102 53.2409C63.5499 52.8324 63.4627 52.4974 63.5488 52.2358C63.6244 51.9579 63.8991 51.6679 64.3729 51.3659C64.5853 51.2306 64.826 51.1576 65.095 51.147C65.364 51.1365 65.5995 51.1816 65.8017 51.2825C66.9552 51.9029 68.0297 52.0568 69.0252 51.7441C68.9627 51.646 68.6302 51.0883 68.0277 50.0707C67.4252 49.0532 66.8093 48.0327 66.1801 47.0093C65.0405 47.276 64.2121 47.4363 63.695 47.4901C61.6103 47.7159 60.0889 47.0771 59.131 45.5739C58.7249 44.9367 58.5289 44.1425 58.5432 43.1915C58.5574 42.2404 58.7701 41.4386 59.1813 40.7859C59.3372 40.5258 59.5807 40.1868 59.9118 39.769C60.2429 39.3512 60.5733 38.9684 60.9029 38.6204C60.6114 38.1629 60.3898 37.8332 60.2381 37.6312C60.0506 37.3371 59.994 37.086 60.0682 36.8779C60.1319 36.6534 60.2373 36.4944 60.3844 36.4007C60.7602 36.1612 61.0722 36.1461 61.3205 36.3555C61.5852 36.5544 61.9124 36.9777 62.3021 37.6254C62.8562 37.3412 63.5612 37.1676 64.4171 37.1046C65.4231 37.0609 66.1937 37.0983 66.7287 37.2168C67.2697 37.3086 67.6963 37.5996 68.0087 38.0897C68.1857 38.3675 68.2171 38.6692 68.1029 38.9947C67.9887 39.3202 67.6702 39.6495 67.1473 39.9827C66.9186 40.1285 66.4787 40.0872 65.8277 39.8588C65.2718 39.7076 64.878 39.6484 64.6462 39.6812C64.5704 39.7065 64.4434 39.7415 64.2651 39.7862C64.0764 39.8146 63.8981 39.8593 63.7302 39.9203C64.6778 41.4072 65.4476 42.6513 66.0397 43.6524L66.274 44.0201C67.4062 43.8499 68.3728 43.7624 69.1737 43.7574C70.2704 43.7478 71.1547 43.8735 71.8265 44.1346C72.488 44.3794 73.0998 44.9429 73.6621 45.8252ZM61.5283 43.8738C61.7365 44.2006 62.0896 44.4121 62.5875 44.5084C63.0749 44.5883 63.5698 44.5717 64.072 44.4584L64.5177 44.3467L62.2685 40.8174C61.8022 41.2754 61.4801 41.7793 61.3021 42.3293C61.1405 42.8688 61.2159 43.3836 61.5283 43.8738ZM70.5046 50.7668C70.9887 50.2285 71.2855 49.6488 71.3951 49.0276C71.5046 48.4064 71.4292 47.8915 71.1689 47.483C70.7108 46.7641 69.6488 46.5218 67.9832 46.7562C68.4979 47.5999 69.3384 48.9368 70.5046 50.7668Z" fill="#FF9800"/>
</svg>
