<svg width="295" height="280" viewBox="0 0 295 280" fill="none" xmlns="http://www.w3.org/2000/svg">
<path d="M58.6885 104.88V167.634H49.1897V114.379H48.822L33.8077 124.184V115.114L49.4654 104.88H58.6885ZM97.5112 168.676C92.6699 168.655 88.5333 167.378 85.1014 164.845C81.6696 162.312 79.0446 158.625 77.2266 153.784C75.4085 148.943 74.4995 143.11 74.4995 136.288C74.4995 129.485 75.4085 123.674 77.2266 118.853C79.0651 114.032 81.7002 110.355 85.1321 107.822C88.5843 105.289 92.7107 104.022 97.5112 104.022C102.312 104.022 106.428 105.299 109.86 107.852C113.292 110.385 115.916 114.062 117.735 118.883C119.573 123.684 120.492 129.485 120.492 136.288C120.492 143.131 119.583 148.973 117.765 153.815C115.947 158.635 113.322 162.323 109.89 164.876C106.459 167.409 102.332 168.676 97.5112 168.676ZM97.5112 160.494C101.76 160.494 105.08 158.421 107.47 154.274C109.88 150.127 111.085 144.132 111.085 136.288C111.085 131.079 110.534 126.676 109.431 123.081C108.348 119.465 106.785 116.728 104.743 114.869C102.72 112.99 100.31 112.05 97.5112 112.05C93.2827 112.05 89.9632 114.134 87.5527 118.301C85.1423 122.468 83.9268 128.464 83.9064 136.288C83.9064 141.517 84.4477 145.94 85.5304 149.555C86.6335 153.151 88.1962 155.878 90.2185 157.737C92.2409 159.575 94.6718 160.494 97.5112 160.494ZM164.118 155.867V152.558C164.118 150.189 164.608 148.023 165.589 146.062C166.59 144.081 168.04 142.498 169.94 141.313C171.86 140.108 174.179 139.505 176.895 139.505C179.674 139.505 182.002 140.097 183.882 141.282C185.761 142.467 187.181 144.05 188.141 146.032C189.121 148.013 189.612 150.189 189.612 152.558V155.867C189.612 158.237 189.121 160.413 188.141 162.394C187.16 164.355 185.72 165.938 183.82 167.144C181.941 168.328 179.633 168.921 176.895 168.921C174.138 168.921 171.809 168.328 169.909 167.144C168.009 165.938 166.569 164.355 165.589 162.394C164.608 160.413 164.118 158.237 164.118 155.867ZM171.257 152.558V155.867C171.257 157.624 171.676 159.218 172.514 160.648C173.351 162.077 174.812 162.792 176.895 162.792C178.959 162.792 180.399 162.077 181.216 160.648C182.033 159.218 182.442 157.624 182.442 155.867V152.558C182.442 150.801 182.043 149.208 181.247 147.778C180.47 146.348 179.02 145.633 176.895 145.633C174.853 145.633 173.402 146.348 172.544 147.778C171.686 149.208 171.257 150.801 171.257 152.558ZM132.557 119.956V116.646C132.557 114.277 133.048 112.101 134.028 110.12C135.029 108.138 136.479 106.555 138.379 105.37C140.299 104.186 142.618 103.593 145.335 103.593C148.113 103.593 150.442 104.186 152.321 105.37C154.2 106.555 155.62 108.138 156.58 110.12C157.54 112.101 158.02 114.277 158.02 116.646V119.956C158.02 122.325 157.53 124.501 156.55 126.482C155.589 128.443 154.16 130.027 152.26 131.232C150.38 132.417 148.072 133.009 145.335 133.009C142.557 133.009 140.218 132.417 138.318 131.232C136.439 130.027 135.009 128.443 134.028 126.482C133.048 124.501 132.557 122.325 132.557 119.956ZM139.727 116.646V119.956C139.727 121.712 140.136 123.306 140.953 124.736C141.791 126.166 143.251 126.881 145.335 126.881C147.378 126.881 148.808 126.166 149.625 124.736C150.462 123.306 150.881 121.712 150.881 119.956V116.646C150.881 114.89 150.483 113.296 149.686 111.866C148.889 110.436 147.439 109.721 145.335 109.721C143.292 109.721 141.842 110.436 140.984 111.866C140.146 113.296 139.727 114.89 139.727 116.646ZM135.468 167.634L178.611 104.88H185.935L142.792 167.634H135.468Z" fill="#FF9800"/>
<path d="M16.4936 233.562C14.0552 233.562 11.8771 233.141 9.95952 232.301C8.05374 231.461 6.54451 230.295 5.43182 228.803C4.33097 227.3 3.73911 225.56 3.65625 223.583H9.23153C9.30256 224.66 9.66359 225.595 10.3146 226.388C10.9775 227.17 11.8416 227.773 12.907 228.199C13.9723 228.626 15.156 228.839 16.4581 228.839C17.8904 228.839 19.157 228.59 20.2578 228.093C21.3705 227.596 22.2405 226.903 22.8679 226.015C23.4953 225.116 23.8089 224.08 23.8089 222.908C23.8089 221.689 23.4953 220.618 22.8679 219.694C22.2524 218.759 21.3468 218.025 20.1513 217.493C18.9676 216.96 17.5353 216.694 15.8544 216.694H12.7827V212.219H15.8544C17.2038 212.219 18.3875 211.977 19.4055 211.491C20.4354 211.006 21.2403 210.331 21.8203 209.467C22.4003 208.591 22.6903 207.567 22.6903 206.395C22.6903 205.271 22.4358 204.294 21.9268 203.466C21.4297 202.625 20.7195 201.968 19.7962 201.495C18.8847 201.021 17.8075 200.785 16.5646 200.785C15.3809 200.785 14.2741 201.004 13.2443 201.442C12.2263 201.868 11.3977 202.483 10.7585 203.288C10.1193 204.081 9.77604 205.034 9.72869 206.147H4.41974C4.47893 204.182 5.05895 202.454 6.1598 200.962C7.27249 199.471 8.74029 198.305 10.5632 197.464C12.3861 196.624 14.4103 196.204 16.6357 196.204C18.9676 196.204 20.9799 196.659 22.6726 197.571C24.3771 198.47 25.6911 199.672 26.6143 201.175C27.5495 202.679 28.0111 204.324 27.9993 206.111C28.0111 208.147 27.4429 209.876 26.2947 211.296C25.1584 212.716 23.6432 213.669 21.7493 214.155V214.439C24.1641 214.806 26.0343 215.765 27.3601 217.315C28.6977 218.866 29.3606 220.789 29.3487 223.086C29.3606 225.086 28.8042 226.88 27.6797 228.466C26.567 230.052 25.0459 231.301 23.1165 232.212C21.187 233.112 18.9794 233.562 16.4936 233.562ZM36.5575 233.064V196.701H42.044V212.503H60.1726V196.701H65.6768V233.064H60.1726V217.209H42.044V233.064H36.5575ZM73.6669 196.701H79.1001V223.405H79.4375L97.9389 196.701H103.017V233.064H97.5305V206.395H97.1932L78.7273 233.064H73.6669V196.701ZM134.6 196.701V233.064H129.167V196.701H134.6ZM108.41 233.064L120.058 214.03L109.227 196.701H115.939L124.959 212.432H138.932L147.881 196.701H154.575L143.78 214.066L155.356 233.064H148.947L139.802 217.546H124.018L114.749 233.064H108.41ZM182.301 233.064L170.085 216.765H166.214V233.064H160.727V196.701H166.214V212.059H168.007L181.75 196.701H188.444L173.902 212.983L188.994 233.064H182.301ZM197.149 233.064H191.325L204.411 196.701H210.75L223.836 233.064H218.012L207.731 203.306H207.447L197.149 233.064ZM198.125 218.824H217.017V223.441H198.125V218.824Z" fill="#FF9800"/>
<path d="M5.16175 253.166H6.43975V257.36H12.3978V253.166H13.6758V262.634H12.3978V258.458H6.43975V262.634H5.16175V253.166ZM25.9122 253.166V262.634H24.6882V260.762C24.3042 261.398 23.7942 261.884 23.1582 262.22C22.5342 262.556 21.8262 262.724 21.0342 262.724C20.1462 262.724 19.3422 262.52 18.6222 262.112C17.9022 261.704 17.3382 261.134 16.9302 260.402C16.5222 259.67 16.3182 258.836 16.3182 257.9C16.3182 256.964 16.5222 256.13 16.9302 255.398C17.3382 254.666 17.9022 254.102 18.6222 253.706C19.3422 253.298 20.1462 253.094 21.0342 253.094C21.8022 253.094 22.4922 253.256 23.1042 253.58C23.7282 253.892 24.2382 254.354 24.6342 254.966V253.166H25.9122ZM21.1422 261.59C21.8022 261.59 22.3962 261.44 22.9242 261.14C23.4642 260.828 23.8842 260.39 24.1842 259.826C24.4962 259.262 24.6522 258.62 24.6522 257.9C24.6522 257.18 24.4962 256.538 24.1842 255.974C23.8842 255.41 23.4642 254.978 22.9242 254.678C22.3962 254.366 21.8022 254.21 21.1422 254.21C20.4702 254.21 19.8642 254.366 19.3242 254.678C18.7962 254.978 18.3762 255.41 18.0642 255.974C17.7642 256.538 17.6142 257.18 17.6142 257.9C17.6142 258.62 17.7642 259.262 18.0642 259.826C18.3762 260.39 18.7962 260.828 19.3242 261.14C19.8642 261.44 20.4702 261.59 21.1422 261.59ZM42.7144 253.166V262.634H41.4364V254.3H35.4964V262.634H34.2184V253.166H42.7144ZM50.3613 261.59C50.9493 261.59 51.4893 261.488 51.9813 261.284C52.4853 261.068 52.9113 260.756 53.2593 260.348L53.9793 261.176C53.5593 261.68 53.0373 262.064 52.4133 262.328C51.7893 262.592 51.0993 262.724 50.3433 262.724C49.3713 262.724 48.5073 262.52 47.7513 262.112C46.9953 261.692 46.4073 261.116 45.9873 260.384C45.5673 259.652 45.3573 258.824 45.3573 257.9C45.3573 256.976 45.5553 256.148 45.9513 255.416C46.3593 254.684 46.9173 254.114 47.6253 253.706C48.3333 253.298 49.1373 253.094 50.0373 253.094C50.8773 253.094 51.6333 253.286 52.3053 253.67C52.9893 254.054 53.5293 254.588 53.9253 255.272C54.3333 255.956 54.5493 256.736 54.5733 257.612L46.7973 259.124C47.0373 259.892 47.4693 260.498 48.0933 260.942C48.7293 261.374 49.4853 261.59 50.3613 261.59ZM50.0373 254.192C49.3773 254.192 48.7833 254.348 48.2553 254.66C47.7393 254.96 47.3313 255.386 47.0313 255.938C46.7433 256.478 46.5993 257.102 46.5993 257.81C46.5993 257.99 46.6053 258.122 46.6173 258.206L53.2953 256.91C53.1513 256.118 52.7853 255.47 52.1973 254.966C51.6093 254.45 50.8893 254.192 50.0373 254.192ZM61.5666 253.094C62.4906 253.094 63.3126 253.298 64.0326 253.706C64.7526 254.114 65.3106 254.684 65.7066 255.416C66.1146 256.148 66.3186 256.982 66.3186 257.918C66.3186 258.854 66.1206 259.688 65.7246 260.42C65.3286 261.14 64.7766 261.704 64.0686 262.112C63.3726 262.52 62.5746 262.724 61.6746 262.724C60.8826 262.724 60.1746 262.568 59.5506 262.256C58.9386 261.932 58.4406 261.47 58.0566 260.87V266.126H56.7786V257.936C56.7786 256.988 56.9766 256.148 57.3726 255.416C57.7806 254.684 58.3446 254.114 59.0646 253.706C59.7966 253.298 60.6306 253.094 61.5666 253.094ZM61.5306 261.608C62.2026 261.608 62.8086 261.452 63.3486 261.14C63.8886 260.828 64.3086 260.39 64.6086 259.826C64.9086 259.262 65.0586 258.626 65.0586 257.918C65.0586 257.21 64.9086 256.574 64.6086 256.01C64.3086 255.446 63.8886 255.008 63.3486 254.696C62.8086 254.372 62.2026 254.21 61.5306 254.21C60.8586 254.21 60.2526 254.366 59.7126 254.678C59.1846 254.99 58.7706 255.428 58.4706 255.992C58.1826 256.544 58.0386 257.18 58.0386 257.9C58.0386 258.62 58.1826 259.262 58.4706 259.826C58.7706 260.39 59.1846 260.828 59.7126 261.14C60.2526 261.452 60.8586 261.608 61.5306 261.608ZM82.1438 253.166V262.634H69.0758V253.166H70.3538V261.518H74.9978V253.166H76.2758V261.518H80.8658V253.166H82.1438ZM89.8066 261.59C90.3946 261.59 90.9346 261.488 91.4266 261.284C91.9306 261.068 92.3566 260.756 92.7046 260.348L93.4246 261.176C93.0046 261.68 92.4826 262.064 91.8586 262.328C91.2346 262.592 90.5446 262.724 89.7886 262.724C88.8166 262.724 87.9526 262.52 87.1966 262.112C86.4406 261.692 85.8526 261.116 85.4326 260.384C85.0126 259.652 84.8026 258.824 84.8026 257.9C84.8026 256.976 85.0006 256.148 85.3966 255.416C85.8046 254.684 86.3626 254.114 87.0706 253.706C87.7786 253.298 88.5826 253.094 89.4826 253.094C90.3226 253.094 91.0786 253.286 91.7506 253.67C92.4346 254.054 92.9746 254.588 93.3706 255.272C93.7786 255.956 93.9946 256.736 94.0186 257.612L86.2426 259.124C86.4826 259.892 86.9146 260.498 87.5386 260.942C88.1746 261.374 88.9306 261.59 89.8066 261.59ZM89.4826 254.192C88.8226 254.192 88.2286 254.348 87.7006 254.66C87.1846 254.96 86.7766 255.386 86.4766 255.938C86.1886 256.478 86.0446 257.102 86.0446 257.81C86.0446 257.99 86.0506 258.122 86.0626 258.206L92.7406 256.91C92.5966 256.118 92.2306 255.47 91.6426 254.966C91.0546 254.45 90.3346 254.192 89.4826 254.192ZM107.397 257.738C108.681 258.038 109.323 258.812 109.323 260.06C109.323 260.888 109.017 261.524 108.405 261.968C107.793 262.412 106.881 262.634 105.669 262.634H101.367V253.166H105.543C106.623 253.166 107.469 253.376 108.081 253.796C108.693 254.216 108.999 254.816 108.999 255.596C108.999 256.112 108.855 256.556 108.567 256.928C108.291 257.288 107.901 257.558 107.397 257.738ZM102.609 257.378H105.453C106.185 257.378 106.743 257.24 107.127 256.964C107.523 256.688 107.721 256.286 107.721 255.758C107.721 255.23 107.523 254.834 107.127 254.57C106.743 254.306 106.185 254.174 105.453 254.174H102.609V257.378ZM105.615 261.626C106.431 261.626 107.043 261.494 107.451 261.23C107.859 260.966 108.063 260.552 108.063 259.988C108.063 259.424 107.877 259.01 107.505 258.746C107.133 258.47 106.545 258.332 105.741 258.332H102.609V261.626H105.615ZM121.066 253.166V261.482C121.066 263.09 120.67 264.278 119.878 265.046C119.098 265.826 117.916 266.216 116.332 266.216C115.456 266.216 114.622 266.084 113.83 265.82C113.05 265.568 112.414 265.214 111.922 264.758L112.57 263.786C113.026 264.194 113.578 264.512 114.226 264.74C114.886 264.968 115.576 265.082 116.296 265.082C117.496 265.082 118.378 264.8 118.942 264.236C119.506 263.684 119.788 262.82 119.788 261.644V260.438C119.392 261.038 118.87 261.494 118.222 261.806C117.586 262.118 116.878 262.274 116.098 262.274C115.21 262.274 114.4 262.082 113.668 261.698C112.948 261.302 112.378 260.756 111.958 260.06C111.55 259.352 111.346 258.554 111.346 257.666C111.346 256.778 111.55 255.986 111.958 255.29C112.378 254.594 112.948 254.054 113.668 253.67C114.388 253.286 115.198 253.094 116.098 253.094C116.902 253.094 117.628 253.256 118.276 253.58C118.924 253.904 119.446 254.372 119.842 254.984V253.166H121.066ZM116.224 261.14C116.908 261.14 117.526 260.996 118.078 260.708C118.63 260.408 119.056 259.994 119.356 259.466C119.668 258.938 119.824 258.338 119.824 257.666C119.824 256.994 119.668 256.4 119.356 255.884C119.056 255.356 118.63 254.948 118.078 254.66C117.538 254.36 116.92 254.21 116.224 254.21C115.54 254.21 114.922 254.354 114.37 254.642C113.83 254.93 113.404 255.338 113.092 255.866C112.792 256.394 112.642 256.994 112.642 257.666C112.642 258.338 112.792 258.938 113.092 259.466C113.404 259.994 113.83 260.408 114.37 260.708C114.922 260.996 115.54 261.14 116.224 261.14ZM130.741 257.738C132.025 258.038 132.667 258.812 132.667 260.06C132.667 260.888 132.361 261.524 131.749 261.968C131.137 262.412 130.225 262.634 129.013 262.634H124.711V253.166H128.887C129.967 253.166 130.813 253.376 131.425 253.796C132.037 254.216 132.343 254.816 132.343 255.596C132.343 256.112 132.199 256.556 131.911 256.928C131.635 257.288 131.245 257.558 130.741 257.738ZM125.953 257.378H128.797C129.529 257.378 130.087 257.24 130.471 256.964C130.867 256.688 131.065 256.286 131.065 255.758C131.065 255.23 130.867 254.834 130.471 254.57C130.087 254.306 129.529 254.174 128.797 254.174H125.953V257.378ZM128.959 261.626C129.775 261.626 130.387 261.494 130.795 261.23C131.203 260.966 131.407 260.552 131.407 259.988C131.407 259.424 131.221 259.01 130.849 258.746C130.477 258.47 129.889 258.332 129.085 258.332H125.953V261.626H128.959ZM135.662 253.166H136.94V262.634H135.662V253.166ZM136.31 251.096C136.046 251.096 135.824 251.006 135.644 250.826C135.464 250.646 135.374 250.43 135.374 250.178C135.374 249.938 135.464 249.728 135.644 249.548C135.824 249.368 136.046 249.278 136.31 249.278C136.574 249.278 136.796 249.368 136.976 249.548C137.156 249.716 137.246 249.92 137.246 250.16C137.246 250.424 137.156 250.646 136.976 250.826C136.796 251.006 136.574 251.096 136.31 251.096ZM149.332 253.166V261.482C149.332 263.09 148.936 264.278 148.144 265.046C147.364 265.826 146.182 266.216 144.598 266.216C143.722 266.216 142.888 266.084 142.096 265.82C141.316 265.568 140.68 265.214 140.188 264.758L140.836 263.786C141.292 264.194 141.844 264.512 142.492 264.74C143.152 264.968 143.842 265.082 144.562 265.082C145.762 265.082 146.644 264.8 147.208 264.236C147.772 263.684 148.054 262.82 148.054 261.644V260.438C147.658 261.038 147.136 261.494 146.488 261.806C145.852 262.118 145.144 262.274 144.364 262.274C143.476 262.274 142.666 262.082 141.934 261.698C141.214 261.302 140.644 260.756 140.224 260.06C139.816 259.352 139.612 258.554 139.612 257.666C139.612 256.778 139.816 255.986 140.224 255.29C140.644 254.594 141.214 254.054 141.934 253.67C142.654 253.286 143.464 253.094 144.364 253.094C145.168 253.094 145.894 253.256 146.542 253.58C147.19 253.904 147.712 254.372 148.108 254.984V253.166H149.332ZM144.49 261.14C145.174 261.14 145.792 260.996 146.344 260.708C146.896 260.408 147.322 259.994 147.622 259.466C147.934 258.938 148.09 258.338 148.09 257.666C148.09 256.994 147.934 256.4 147.622 255.884C147.322 255.356 146.896 254.948 146.344 254.66C145.804 254.36 145.186 254.21 144.49 254.21C143.806 254.21 143.188 254.354 142.636 254.642C142.096 254.93 141.67 255.338 141.358 255.866C141.058 256.394 140.908 256.994 140.908 257.666C140.908 258.338 141.058 258.938 141.358 259.466C141.67 259.994 142.096 260.408 142.636 260.708C143.188 260.996 143.806 261.14 144.49 261.14ZM161.472 253.166V261.482C161.472 263.09 161.106 264.278 160.374 265.046C159.642 265.826 158.538 266.216 157.062 266.216C156.234 266.216 155.448 266.084 154.704 265.82C153.972 265.568 153.378 265.214 152.922 264.758L153.57 263.786C153.978 264.194 154.482 264.512 155.082 264.74C155.682 264.968 156.324 265.082 157.008 265.082C158.1 265.082 158.904 264.8 159.42 264.236C159.936 263.684 160.194 262.82 160.194 261.644V260.546C159.858 261.098 159.396 261.524 158.808 261.824C158.232 262.124 157.578 262.274 156.846 262.274C155.61 262.274 154.632 261.932 153.912 261.248C153.204 260.552 152.85 259.538 152.85 258.206V253.166H154.128V258.08C154.128 259.076 154.374 259.832 154.866 260.348C155.358 260.864 156.06 261.122 156.972 261.122C157.968 261.122 158.754 260.822 159.33 260.222C159.906 259.61 160.194 258.764 160.194 257.684V253.166H161.472ZM171.118 257.738C172.402 258.038 173.044 258.812 173.044 260.06C173.044 260.888 172.738 261.524 172.126 261.968C171.514 262.412 170.602 262.634 169.39 262.634H165.088V253.166H169.264C170.344 253.166 171.19 253.376 171.802 253.796C172.414 254.216 172.72 254.816 172.72 255.596C172.72 256.112 172.576 256.556 172.288 256.928C172.012 257.288 171.622 257.558 171.118 257.738ZM166.33 257.378H169.174C169.906 257.378 170.464 257.24 170.848 256.964C171.244 256.688 171.442 256.286 171.442 255.758C171.442 255.23 171.244 254.834 170.848 254.57C170.464 254.306 169.906 254.174 169.174 254.174H166.33V257.378ZM169.336 261.626C170.152 261.626 170.764 261.494 171.172 261.23C171.58 260.966 171.784 260.552 171.784 259.988C171.784 259.424 171.598 259.01 171.226 258.746C170.854 258.47 170.266 258.332 169.462 258.332H166.33V261.626H169.336ZM184.643 253.166V262.634H183.419V260.762C183.035 261.398 182.525 261.884 181.889 262.22C181.265 262.556 180.557 262.724 179.765 262.724C178.877 262.724 178.073 262.52 177.353 262.112C176.633 261.704 176.069 261.134 175.661 260.402C175.253 259.67 175.049 258.836 175.049 257.9C175.049 256.964 175.253 256.13 175.661 255.398C176.069 254.666 176.633 254.102 177.353 253.706C178.073 253.298 178.877 253.094 179.765 253.094C180.533 253.094 181.223 253.256 181.835 253.58C182.459 253.892 182.969 254.354 183.365 254.966V253.166H184.643ZM179.873 261.59C180.533 261.59 181.127 261.44 181.655 261.14C182.195 260.828 182.615 260.39 182.915 259.826C183.227 259.262 183.383 258.62 183.383 257.9C183.383 257.18 183.227 256.538 182.915 255.974C182.615 255.41 182.195 254.978 181.655 254.678C181.127 254.366 180.533 254.21 179.873 254.21C179.201 254.21 178.595 254.366 178.055 254.678C177.527 254.978 177.107 255.41 176.795 255.974C176.495 256.538 176.345 257.18 176.345 257.9C176.345 258.62 176.495 259.262 176.795 259.826C177.107 260.39 177.527 260.828 178.055 261.14C178.595 261.44 179.201 261.59 179.873 261.59ZM188.238 253.166H189.516V257.36H195.474V253.166H196.752V262.634H195.474V258.458H189.516V262.634H188.238V253.166ZM200.384 253.166H201.662V257.36H207.62V253.166H208.898V262.634H207.62V258.458H201.662V262.634H200.384V253.166ZM219.803 253.166V262.634H218.633V259.502H215.663H215.303L213.107 262.634H211.721L214.079 259.322C213.347 259.118 212.783 258.77 212.387 258.278C211.991 257.786 211.793 257.162 211.793 256.406C211.793 255.35 212.153 254.546 212.873 253.994C213.593 253.442 214.577 253.166 215.825 253.166H219.803ZM213.089 256.442C213.089 257.846 213.983 258.548 215.771 258.548H218.633V254.3H215.861C214.013 254.3 213.089 255.014 213.089 256.442Z" fill="#FF9800"/>
<path d="M220.193 243.449C229.679 236.186 234.148 231.495 240.504 221.928L230.717 201.375L250.885 204.381C256.621 195.169 259.357 184.299 260.558 172.427L242.135 160.117L263.489 150.009C263.698 139.161 262.926 132.992 260.016 121.84L236.702 118.523L251.836 99.7125C246.465 90.2784 242.891 85.0075 235.992 75.6231L214.714 80.882L218.535 60.1707C209.589 52.084 204.149 48.7136 193.788 44.4915L176.869 59.3746L171.557 37.7846C160.802 35.2085 154.738 34.443 143.81 34.2069L133.689 55.9288L119.403 38.2222C108.605 40.0029 102.699 42.2537 92.4276 48.2853L93.5776 70.8921L72.0313 60.9833C62.196 68.1316 57.9211 72.8975 51.9262 82.412L61.5548 100.517" stroke="#FF9800" stroke-width="1.72066"/>
</svg>
