<svg width="231" height="93" viewBox="0 0 231 93" fill="none" xmlns="http://www.w3.org/2000/svg">
<circle cx="149.973" cy="14.5467" r="14.41" fill="#E23527"/>
<path d="M61.912 4.20898H10.7279L1.98438 63.4636H53.3962L55.3778 49.4823H31.2131L32.4241 41.0747H54.6707L56.6456 27.4146H34.7565L35.744 18.5273H59.9372L61.912 4.20898Z" fill="#01457C" stroke="#01457C" stroke-width="0.339626"/>
<path d="M65.8242 63.5L74.4223 4.28246V4.07812H103.437L97.2106 47.1957H121.247L118.947 63.5H65.8242Z" fill="#01457C" stroke="#01457C" stroke-width="0.339626"/>
<path d="M128.809 63.4903L134.982 20.8633C136.541 23.9367 140.404 30.2015 148.537 31.1805C156.919 32.1894 162.663 25.1837 163.738 22.4115L157.647 63.4903H128.809Z" fill="#01457C" stroke="#01457C" stroke-width="0.339626"/>
<path d="M185.365 22.9077H172.34L175.006 4.11133H230.061L227.316 22.9077H214.254L208.415 63.4672H179.481L185.365 22.9077Z" fill="#01457C" stroke="#01457C" stroke-width="0.339626"/>
<path d="M2.34632 83.7677L2.29922 84.0189C2.16316 84.8091 2.23642 85.4554 2.51902 85.9578C2.80685 86.4602 3.31709 86.7114 4.04974 86.7114C4.78239 86.7114 5.37898 86.4602 5.83951 85.9578C6.30003 85.4554 6.59832 84.8091 6.73439 84.0189L6.78149 83.7677C6.91755 82.9932 6.84429 82.3547 6.56169 81.8523C6.2791 81.3499 5.77147 81.0987 5.03882 81.0987C4.30617 81.0987 3.70696 81.3499 3.2412 81.8523C2.78068 82.3547 2.48239 82.9932 2.34632 83.7677ZM5.72961 79.7329C6.82859 79.7329 7.62665 80.1123 8.12381 80.8711C8.62097 81.6299 8.76488 82.5954 8.55555 83.7677L8.50845 84.0189C8.29913 85.2225 7.76272 86.2011 6.89924 86.9547C6.04098 87.7083 5.01265 88.0851 3.81424 88.0851C2.5635 88.0851 1.6503 87.7083 1.07465 86.9547C0.49899 86.1959 0.365542 84.9556 0.674303 83.2339L0.744952 82.7708C1.07988 80.8868 1.65815 79.4346 2.47977 78.4141C3.30662 77.3936 4.57568 76.7578 6.28695 76.5066C7.18706 76.3757 7.713 76.2632 7.86477 76.169C8.02176 76.0696 8.12643 75.9519 8.17876 75.8158H9.73303C9.5708 76.449 9.25942 76.9331 8.7989 77.268C8.34361 77.5977 7.53769 77.8384 6.38114 77.9902C5.0676 78.1629 4.13085 78.5475 3.5709 79.1441C3.01094 79.7355 2.60275 80.5205 2.34632 81.4991H2.43267C2.79376 80.9496 3.2569 80.5178 3.82209 80.2039C4.39252 79.8899 5.02835 79.7329 5.72961 79.7329ZM9.62313 87.8496L11.0754 79.6308H12.8102L11.3658 87.8496H9.62313ZM11.3266 77.1974C11.3737 76.9148 11.5045 76.6793 11.719 76.4909C11.9336 76.2972 12.211 76.2004 12.5511 76.2004C12.8913 76.2004 13.1346 76.2972 13.2812 76.4909C13.4329 76.6793 13.4826 76.9148 13.4303 77.1974C13.378 77.4747 13.2445 77.7102 13.03 77.9038C12.8154 78.0922 12.538 78.1864 12.1979 78.1864C11.8577 78.1864 11.6118 78.0922 11.46 77.9038C11.3135 77.7102 11.269 77.4747 11.3266 77.1974ZM17.1747 80.9653L16.4918 84.066C16.1778 85.4842 15.8088 86.4994 15.3849 87.1117C14.9663 87.7188 14.3383 88.0223 13.501 88.0223C13.3178 88.0223 13.1503 88.0092 12.9986 87.9831C12.8416 87.9621 12.716 87.9281 12.6218 87.881L12.873 86.4602C12.9567 86.4968 13.0431 86.523 13.132 86.5387C13.221 86.5544 13.3204 86.5622 13.4303 86.5622C13.828 86.5622 14.1263 86.3686 14.3252 85.9813C14.5293 85.5889 14.7439 84.8771 14.9689 83.8462L15.8873 79.6308H21.8768L20.4324 87.8496H18.6976L19.9064 80.9653H17.1747ZM25.8488 79.6308L25.3621 82.394H27.2304C28.2665 82.394 29.0175 82.6373 29.4833 83.124C29.949 83.6107 30.1086 84.2753 29.9621 85.1179C29.8156 85.9604 29.4205 86.6276 28.7768 87.1196C28.1383 87.6063 27.3036 87.8496 26.2727 87.8496H22.6617L24.114 79.6308H25.8488ZM26.8614 83.6735H25.1344L24.6321 86.5701H26.3512C26.9425 86.5701 27.3821 86.4366 27.6699 86.1697C27.963 85.8976 28.1462 85.5418 28.2194 85.1022C28.2979 84.6783 28.2377 84.3355 28.0389 84.0738C27.8453 83.8069 27.4528 83.6735 26.8614 83.6735ZM31.014 87.8496L32.4662 79.6308H34.201L32.9921 86.5151H35.9437L37.1526 79.6308H38.8874L37.6785 86.5151H40.63L41.8389 79.6308H43.5737L42.1294 87.8496H31.014ZM44.5707 83.8619L44.6178 83.6107C44.8376 82.3652 45.3687 81.3525 46.2113 80.5728C47.0591 79.793 48.0534 79.4032 49.1942 79.4032C50.3403 79.4032 51.1645 79.7669 51.6669 80.4943C52.1693 81.2217 52.308 82.216 52.083 83.4772L51.9652 84.1445H45.6304L45.8502 82.8964H50.4502L50.4895 82.7237C50.5837 82.1742 50.5052 81.7084 50.254 81.3264C50.008 80.9391 49.5893 80.7455 48.998 80.7455C48.2915 80.7455 47.7132 81.0124 47.2632 81.5462C46.8131 82.08 46.5174 82.7551 46.3761 83.5714L46.3133 83.9011C46.172 84.7175 46.2427 85.3926 46.5253 85.9264C46.8079 86.4602 47.3364 86.7271 48.111 86.7271C48.6029 86.7271 49.0451 86.6146 49.4376 86.3895C49.8353 86.1645 50.1729 85.9002 50.4502 85.5967L51.4707 86.4366C51.141 86.8658 50.6622 87.2478 50.0342 87.5827C49.4062 87.9176 48.6892 88.0851 47.8833 88.0851C46.5907 88.0851 45.6592 87.6952 45.0888 86.9155C44.5236 86.1357 44.3509 85.1179 44.5707 83.8619ZM58.3236 79.6308H60.0584L59.4697 82.9906H62.8765L63.4574 79.6308H65.2001L63.7479 87.8496H62.013L62.6332 84.3172H59.2342L58.6141 87.8496H56.8714L58.3236 79.6308ZM66.0165 87.8496L67.4687 79.6308H69.2035L67.7591 87.8496H66.0165ZM67.7199 77.1974C67.767 76.9148 67.8978 76.6793 68.1124 76.4909C68.3269 76.2972 68.6043 76.2004 68.9445 76.2004C69.2846 76.2004 69.528 76.2972 69.6745 76.4909C69.8263 76.6793 69.876 76.9148 69.8236 77.1974C69.7713 77.4747 69.6379 77.7102 69.4233 77.9038C69.2087 78.0922 68.9314 78.1864 68.5912 78.1864C68.2511 78.1864 68.0051 78.0922 67.8533 77.9038C67.7068 77.7102 67.6623 77.4747 67.7199 77.1974ZM75.4441 87.8496H73.7486L75.1929 79.6308H76.8964L75.4441 87.8496ZM78.537 87.8496L76.3626 84.168L77.5322 83.0455L80.4602 87.8496H78.537ZM75.4441 83.0063H76.5981L79.738 79.6308H81.7083L77.1947 84.3015H75.2165L75.4441 83.0063ZM70.6636 87.8496H68.5441L73.1598 83.0455L74.1175 84.168L70.6636 87.8496ZM75.4441 83.0063L75.2165 84.3015H73.3482L70.5223 79.6308H72.3513L74.3059 83.0063H75.4441ZM85.3271 85.4319C85.4736 84.5736 85.9237 83.9142 86.6773 83.4537C87.4361 82.9879 88.3362 82.7551 89.3776 82.7551H91.1517L91.2459 82.2213C91.3296 81.766 91.2799 81.397 91.0967 81.1144C90.9136 80.8318 90.5316 80.6905 89.9507 80.6905C89.375 80.6905 88.9406 80.8083 88.6476 81.0438C88.3598 81.2793 88.1897 81.5566 88.1373 81.8759L88.1216 81.9465H86.4025L86.4182 81.8759C86.5386 81.1956 86.9494 80.6147 87.6507 80.1332C88.3519 79.6465 89.2154 79.4032 90.2411 79.4032C91.2668 79.4032 92.023 79.636 92.5097 80.1018C92.9964 80.5676 93.156 81.2741 92.9886 82.2213L92.3213 85.9813C92.2638 86.3163 92.235 86.6355 92.235 86.939C92.2402 87.2373 92.2716 87.499 92.3292 87.724L92.3056 87.8496H90.6101C90.563 87.724 90.5289 87.5592 90.508 87.3551C90.4923 87.1457 90.4923 86.9416 90.508 86.7428C90.2673 87.0725 89.9036 87.3655 89.4169 87.622C88.9354 87.8784 88.3571 88.0066 87.6821 88.0066C86.8918 88.0066 86.2639 87.7894 85.7981 87.3551C85.3323 86.9155 85.1753 86.2744 85.3271 85.4319ZM87.0776 85.3141C87.0044 85.7485 87.0698 86.0912 87.2739 86.3424C87.4832 86.5936 87.8548 86.7192 88.3885 86.7192C88.9328 86.7192 89.4457 86.5361 89.9271 86.1697C90.4086 85.7982 90.6886 85.3926 90.767 84.953L90.9554 83.909H89.3933C88.7078 83.909 88.1687 84.0346 87.7763 84.2858C87.389 84.5317 87.1561 84.8745 87.0776 85.3141ZM94.1739 87.8496L95.6261 79.6308H99.3705C100.323 79.6308 101.027 79.8114 101.482 80.1725C101.937 80.5335 102.102 81.0726 101.977 81.7895C101.888 82.271 101.673 82.6687 101.333 82.9827C100.998 83.2915 100.585 83.4956 100.093 83.595L100.085 83.6185C100.655 83.7075 101.074 83.9142 101.341 84.2387C101.613 84.5579 101.705 84.9739 101.616 85.4868C101.479 86.2352 101.105 86.816 100.493 87.2295C99.886 87.6429 99.1167 87.8496 98.1852 87.8496H94.1739ZM96.7408 83.0534H98.6326C99.1141 83.0534 99.4804 82.9539 99.7316 82.7551C99.9828 82.551 100.137 82.2736 100.195 81.923C100.258 81.5828 100.197 81.3211 100.014 81.138C99.8362 80.9548 99.5039 80.8632 99.0172 80.8632H97.1333L96.7408 83.0534ZM96.1207 86.6172H98.2323C98.7294 86.6172 99.1114 86.5099 99.3783 86.2953C99.6452 86.0755 99.8127 85.7877 99.8807 85.4319C99.9383 85.0865 99.8729 84.8091 99.6845 84.5998C99.4961 84.3852 99.1507 84.2779 98.6483 84.2779H96.5288L96.1207 86.6172ZM103.445 80.9653L103.672 79.6308H110.494L110.258 80.9653H107.723L106.506 87.8496H104.771L105.98 80.9653H103.445ZM110.619 83.8619L110.666 83.6107C110.886 82.3547 111.428 81.3395 112.291 80.5649C113.16 79.7904 114.196 79.4032 115.4 79.4032C116.604 79.4032 117.501 79.7904 118.092 80.5649C118.689 81.3395 118.875 82.3547 118.65 83.6107L118.603 83.8619C118.383 85.1231 117.839 86.1436 116.97 86.9233C116.106 87.6978 115.073 88.0851 113.869 88.0851C112.666 88.0851 111.768 87.6978 111.177 86.9233C110.585 86.1436 110.4 85.1231 110.619 83.8619ZM112.448 83.5714L112.386 83.909C112.244 84.7306 112.315 85.4031 112.597 85.9264C112.88 86.4497 113.385 86.7114 114.113 86.7114C114.84 86.7114 115.437 86.4497 115.902 85.9264C116.368 85.4031 116.674 84.7306 116.821 83.909L116.884 83.5714C117.025 82.7498 116.952 82.08 116.664 81.5619C116.381 81.0386 115.879 80.7769 115.157 80.7769C114.434 80.7769 113.838 81.0386 113.367 81.5619C112.896 82.08 112.59 82.7498 112.448 83.5714ZM122.716 88.0851C121.476 88.0851 120.612 87.7973 120.125 87.2216C119.639 86.646 119.461 85.9787 119.592 85.2199L119.6 85.1728H121.279L121.272 85.2199C121.204 85.6176 121.285 85.9761 121.515 86.2953C121.75 86.6093 122.227 86.7663 122.944 86.7663C123.53 86.7663 124.003 86.6486 124.364 86.4131C124.731 86.1724 124.951 85.8427 125.024 85.424C125.087 85.0786 125.021 84.8065 124.828 84.6076C124.639 84.4035 124.294 84.3015 123.791 84.3015H122.449L122.669 83.0534H123.776C124.278 83.0534 124.655 82.9539 124.906 82.7551C125.162 82.551 125.322 82.2762 125.385 81.9308C125.448 81.5436 125.364 81.2453 125.134 81.0359C124.909 80.8266 124.553 80.7219 124.066 80.7219C123.459 80.7219 122.975 80.8659 122.614 81.1537C122.253 81.4415 122.03 81.8131 121.947 82.2684L121.939 82.3155H120.259L120.267 82.2684C120.424 81.3892 120.858 80.6932 121.57 80.1803C122.287 79.6622 123.213 79.4032 124.349 79.4032C125.416 79.4032 126.186 79.6151 126.657 80.039C127.133 80.4629 127.305 81.0386 127.175 81.766C127.096 82.2108 126.876 82.6033 126.515 82.9435C126.159 83.2784 125.717 83.4982 125.189 83.6028L125.181 83.6264C125.777 83.7154 126.214 83.9195 126.492 84.2387C126.769 84.5527 126.863 84.9661 126.774 85.479C126.628 86.3163 126.178 86.96 125.424 87.41C124.671 87.8601 123.768 88.0851 122.716 88.0851ZM128.203 85.4319C128.35 84.5736 128.8 83.9142 129.553 83.4537C130.312 82.9879 131.212 82.7551 132.254 82.7551H134.028L134.122 82.2213C134.206 81.766 134.156 81.397 133.973 81.1144C133.789 80.8318 133.407 80.6905 132.827 80.6905C132.251 80.6905 131.817 80.8083 131.523 81.0438C131.236 81.2793 131.066 81.5566 131.013 81.8759L130.998 81.9465H129.278L129.294 81.8759C129.414 81.1956 129.825 80.6147 130.527 80.1332C131.228 79.6465 132.091 79.4032 133.117 79.4032C134.143 79.4032 134.899 79.636 135.386 80.1018C135.872 80.5676 136.032 81.2741 135.864 82.2213L135.197 85.9813C135.14 86.3163 135.111 86.6355 135.111 86.939C135.116 87.2373 135.147 87.499 135.205 87.724L135.182 87.8496H133.486C133.439 87.724 133.405 87.5592 133.384 87.3551C133.368 87.1457 133.368 86.9416 133.384 86.7428C133.143 87.0725 132.779 87.3655 132.293 87.622C131.811 87.8784 131.233 88.0066 130.558 88.0066C129.768 88.0066 129.14 87.7894 128.674 87.3551C128.208 86.9155 128.051 86.2744 128.203 85.4319ZM129.954 85.3141C129.88 85.7485 129.946 86.0912 130.15 86.3424C130.359 86.5936 130.731 86.7192 131.264 86.7192C131.809 86.7192 132.322 86.5361 132.803 86.1697C133.284 85.7982 133.564 85.3926 133.643 84.953L133.831 83.909H132.269C131.584 83.909 131.045 84.0346 130.652 84.2858C130.265 84.5317 130.032 84.8745 129.954 85.3141ZM138.502 79.6308H145.292L143.848 87.8496H142.113L143.33 80.9653H140.001L138.792 87.8496H137.05L138.502 79.6308ZM148.668 81.8209C148.558 82.4541 148.605 82.8937 148.809 83.1397C149.013 83.3804 149.419 83.5008 150.026 83.5008C150.491 83.5008 150.913 83.4668 151.289 83.3987C151.671 83.3307 152.098 83.2417 152.569 83.1318L152.341 84.4506C151.886 84.5501 151.444 84.639 151.015 84.7175C150.586 84.7908 150.039 84.8274 149.374 84.8274C148.359 84.8274 147.652 84.5893 147.255 84.1131C146.857 83.6369 146.744 82.8964 146.917 81.8916L147.317 79.6308H149.052L148.668 81.8209ZM154.053 79.6308L152.608 87.8496H150.873L152.318 79.6308H154.053ZM154.798 85.4319C154.945 84.5736 155.395 83.9142 156.148 83.4537C156.907 82.9879 157.807 82.7551 158.849 82.7551H160.623L160.717 82.2213C160.801 81.766 160.751 81.397 160.568 81.1144C160.385 80.8318 160.003 80.6905 159.422 80.6905C158.846 80.6905 158.412 80.8083 158.119 81.0438C157.831 81.2793 157.661 81.5566 157.609 81.8759L157.593 81.9465H155.874L155.889 81.8759C156.01 81.1956 156.421 80.6147 157.122 80.1332C157.823 79.6465 158.687 79.4032 159.712 79.4032C160.738 79.4032 161.494 79.636 161.981 80.1018C162.468 80.5676 162.627 81.2741 162.46 82.2213L161.793 85.9813C161.735 86.3163 161.706 86.6355 161.706 86.939C161.711 87.2373 161.743 87.499 161.8 87.724L161.777 87.8496H160.081C160.034 87.724 160 87.5592 159.979 87.3551C159.963 87.1457 159.963 86.9416 159.979 86.7428C159.738 87.0725 159.375 87.3655 158.888 87.622C158.407 87.8784 157.828 88.0066 157.153 88.0066C156.363 88.0066 155.735 87.7894 155.269 87.3551C154.804 86.9155 154.647 86.2744 154.798 85.4319ZM156.549 85.3141C156.476 85.7485 156.541 86.0912 156.745 86.3424C156.954 86.5936 157.326 86.7192 157.86 86.7192C158.404 86.7192 158.917 86.5361 159.398 86.1697C159.88 85.7982 160.16 85.3926 160.238 84.953L160.427 83.909H158.865C158.179 83.909 157.64 84.0346 157.247 84.2858C156.86 84.5317 156.627 84.8745 156.549 85.3141ZM163.873 83.8619L163.92 83.6107C164.14 82.3547 164.668 81.3395 165.505 80.5649C166.348 79.7904 167.374 79.4032 168.583 79.4032C169.708 79.4032 170.511 79.6988 170.993 80.2902C171.479 80.8763 171.662 81.554 171.542 82.3233L171.526 82.394H169.839L169.854 82.3312C169.928 81.9073 169.846 81.5409 169.611 81.2322C169.381 80.9182 168.954 80.7612 168.331 80.7612C167.609 80.7612 167.026 81.0281 166.581 81.5619C166.136 82.0904 165.843 82.7603 165.702 83.5714L165.639 83.909C165.498 84.7201 165.553 85.3926 165.804 85.9264C166.06 86.455 166.555 86.7192 167.287 86.7192C167.921 86.7192 168.405 86.5622 168.74 86.2482C169.075 85.929 169.281 85.5601 169.36 85.1414L169.368 85.0865H171.055L171.04 85.1493C170.909 85.9133 170.493 86.5936 169.792 87.1902C169.09 87.7868 168.177 88.0851 167.052 88.0851C165.848 88.0851 164.961 87.6978 164.391 86.9233C163.826 86.1436 163.653 85.1231 163.873 83.8619ZM172.492 80.9653L172.72 79.6308H179.541L179.306 80.9653H176.77L175.553 87.8496H173.818L175.027 80.9653H172.492ZM179.439 87.8496L180.891 79.6308H182.602L181.77 84.3721C181.744 84.5344 181.71 84.7201 181.668 84.9295C181.632 85.1336 181.592 85.3115 181.551 85.4633L181.621 85.4711C181.721 85.335 181.828 85.1885 181.943 85.0315C182.063 84.8745 182.194 84.7071 182.336 84.5291L186.041 79.6308H187.917L186.472 87.8496H184.753L185.585 83.1083C185.617 82.9461 185.653 82.7603 185.695 82.551C185.742 82.3416 185.784 82.1559 185.821 81.9936H185.719C185.63 82.1297 185.525 82.2788 185.405 82.4411C185.29 82.6033 185.164 82.7734 185.028 82.9513L181.315 87.8496H179.439ZM190.123 79.6308H191.857L191.269 82.9906H194.676L195.256 79.6308H196.999L195.547 87.8496H193.812L194.432 84.3172H191.033L190.413 87.8496H188.67L190.123 79.6308ZM197.761 87.8496L199.213 79.6308H200.924L200.092 84.3721C200.066 84.5344 200.032 84.7201 199.99 84.9295C199.953 85.1336 199.914 85.3115 199.872 85.4633L199.943 85.4711C200.042 85.335 200.15 85.1885 200.265 85.0315C200.385 84.8745 200.516 84.7071 200.657 84.5291L204.362 79.6308H206.238L204.794 87.8496H203.075L203.907 83.1083C203.938 82.9461 203.975 82.7603 204.017 82.551C204.064 82.3416 204.106 82.1559 204.142 81.9936H204.04C203.951 82.1297 203.847 82.2788 203.726 82.4411C203.611 82.6033 203.486 82.7734 203.35 82.9513L199.637 87.8496H197.761Z" fill="#00457E"/>
</svg>
