<svg width="141" height="92" viewBox="0 0 141 92" fill="none" xmlns="http://www.w3.org/2000/svg">
<path d="M90.0372 0.000691659L110.989 0H127.971L125.59 2.54748H86.5039C87.7423 1.55902 88.6485 0.995863 90.0372 0.000691659Z" fill="url(#paint0_linear_545_9996)"/>
<path d="M85.4823 3.32227L124.877 3.32243L122.503 5.86991H82.8516C83.7161 4.79656 84.4243 4.21964 85.4823 3.32227Z" fill="url(#paint1_linear_545_9996)"/>
<path d="M81.6655 6.64648H121.797L119.399 9.19396H80.9297L81.6655 6.64648Z" fill="url(#paint2_linear_545_9996)"/>
<path d="M81.1094 9.96875H118.668L116.288 12.5162H81.1105L81.1094 9.96875Z" fill="url(#paint3_linear_545_9996)"/>
<path d="M78.0492 13.291H115.573L113.193 15.8385H77.5586L78.0492 13.291Z" fill="url(#paint4_linear_545_9996)"/>
<path d="M77.6211 16.6152H112.458L111.166 18.0257H100.551C99.5693 18.1513 99.0709 18.2957 98.2649 18.7376H77.6211V16.6152Z" fill="url(#paint5_linear_545_9996)"/>
<path d="M75.4648 19.9375H97.2522C96.9023 20.7688 96.8676 21.5903 97.2522 22.485H75.4648V19.9375Z" fill="url(#paint6_linear_545_9996)"/>
<path d="M76.9453 23.2598H97.7448C98.1918 23.7518 98.5433 24.0271 99.0908 24.2318C99.6567 24.4433 100.27 24.4778 100.874 24.4811L113.363 24.5487C115.119 24.6062 118.334 25.0973 119.757 25.8072H76.9453V23.2598Z" fill="url(#paint7_linear_545_9996)"/>
<path d="M76.457 26.584H121.514C123.316 27.6385 123.99 28.1753 125.118 29.1315H76.457V26.584Z" fill="url(#paint8_linear_545_9996)"/>
<path d="M77.6211 29.9082H125.992C126.893 30.845 127.416 31.428 128.191 32.4557H77.6211V29.9082Z" fill="url(#paint9_linear_545_9996)"/>
<path d="M82.6914 33.2305H128.728C129.391 34.2262 129.682 34.7791 130.173 35.7779H84.3565C83.6508 34.865 83.2481 34.286 82.6914 33.2305Z" fill="url(#paint10_linear_545_9996)"/>
<path d="M84.9453 36.5527H130.535C130.953 37.5438 131.111 38.0908 131.403 39.1002H87.5593C86.3974 38.1929 85.8979 37.6597 84.9453 36.5527Z" fill="url(#paint11_linear_545_9996)"/>
<path d="M88.6328 39.875H131.579L131.715 40.4709L131.84 41.1419L131.934 41.7949L132.003 42.4225H109.939C109.194 42.08 108.695 41.9965 107.814 41.9769H92.7774C91.0985 41.251 90.2282 40.7939 88.6328 39.875Z" fill="url(#paint12_linear_545_9996)"/>
<path d="M110.836 43.1992H132.062C132.115 44.1654 132.115 44.7232 132.062 45.7467H111.554C111.595 44.4676 111.354 43.9489 110.836 43.1992Z" fill="url(#paint13_linear_545_9996)"/>
<path d="M89.9344 48.8154H108.388C109.909 48.5917 110.869 48.0423 111.385 46.5215H132.002C131.95 47.5432 131.79 48.0678 131.608 49.069H89.7188L89.9344 48.8154Z" fill="url(#paint14_linear_545_9996)"/>
<path d="M88.9978 49.8457H131.411C131.154 50.8275 131.01 51.3385 130.59 52.3932H86.7812L88.9978 49.8457Z" fill="url(#paint15_linear_545_9996)"/>
<path d="M86.09 53.168H130.27L128.998 55.7154H83.8398L86.09 53.168Z" fill="url(#paint16_linear_545_9996)"/>
<path d="M83.1686 56.4902H128.465L126.591 59.0379H80.8984L83.1686 56.4902Z" fill="url(#paint17_linear_545_9996)"/>
<path d="M80.2169 59.8125H125.76C124.872 60.8388 124.265 61.3972 122.971 62.36H77.957L80.2169 59.8125Z" fill="url(#paint18_linear_545_9996)"/>
<path d="M77.2782 63.1367H121.881C120.721 63.8344 119.717 64.7046 114.339 65.6842H75.0312L77.2782 63.1367Z" fill="url(#paint19_linear_545_9996)"/>
<path d="M26.4937 65.6846H8.29688L8.40126 0.00585938H54.2092L37.7895 16.5299H25.4485V24.1648H42.182L26.4937 39.7475V65.6846Z" fill="#019FE3"/>
<path d="M59.1032 0.00585938L42.6478 16.5299H67.6138C74.2793 16.5299 74.7701 24.1648 67.6138 24.1648H43.4369V65.6846H59.4963V40.925H74.7701C79.4541 38.8593 89.0518 31.8623 89.9707 20.3989C91.6849 7.97051 78.7803 1.62504 72.1137 0.00585938H59.1032Z" fill="#019FE3"/>
<path d="M1.25821 90.8945V78.8202H7.55409V80.2002H3.32809V84.1674H6.86413V85.5473H3.32809V90.8945H1.25821ZM11.8717 91.067C11.0668 91.067 10.3653 90.8773 9.76735 90.4978C9.18089 90.1068 8.72091 89.4571 8.38743 88.5487C8.06545 87.6402 7.90446 86.4098 7.90446 84.8574C7.90446 83.305 8.06545 82.0803 8.38743 81.1834C8.72091 80.2749 9.18089 79.6252 9.76735 79.2342C10.3653 78.8432 11.0668 78.6477 11.8717 78.6477C12.6767 78.6477 13.3724 78.8432 13.9589 79.2342C14.5568 79.6252 15.0168 80.2749 15.3388 81.1834C15.6723 82.0803 15.839 83.305 15.839 84.8574C15.839 86.4098 15.6723 87.6402 15.3388 88.5487C15.0168 89.4571 14.5568 90.1068 13.9589 90.4978C13.3724 90.8773 12.6767 91.067 11.8717 91.067ZM11.8717 89.8596C12.1132 89.8596 12.3432 89.7848 12.5617 89.6354C12.7917 89.4744 12.9929 89.2099 13.1654 88.8419C13.3494 88.4739 13.4931 87.968 13.5966 87.324C13.7116 86.6685 13.7691 85.8463 13.7691 84.8574C13.7691 83.8684 13.7116 83.052 13.5966 82.408C13.4931 81.7526 13.3494 81.2408 13.1654 80.8729C12.9929 80.5049 12.7917 80.2462 12.5617 80.0967C12.3432 79.9357 12.1132 79.8552 11.8717 79.8552C11.6302 79.8552 11.3945 79.9357 11.1645 80.0967C10.946 80.2462 10.7448 80.5049 10.5608 80.8729C10.3883 81.2408 10.2446 81.7526 10.1296 82.408C10.0261 83.052 9.97434 83.8684 9.97434 84.8574C9.97434 85.8463 10.0261 86.6685 10.1296 87.324C10.2446 87.968 10.3883 88.4739 10.5608 88.8419C10.7448 89.2099 10.946 89.4744 11.1645 89.6354C11.3945 89.7848 11.6302 89.8596 11.8717 89.8596ZM17.2155 90.8945V78.9927C17.6525 78.8662 18.101 78.78 18.561 78.734C19.0324 78.6765 19.5902 78.6477 20.2341 78.6477C21.1886 78.6477 21.959 78.7915 22.5455 79.079C23.1434 79.355 23.5804 79.7977 23.8564 80.4071C24.1439 81.0166 24.2876 81.8101 24.2876 82.7875C24.2876 83.558 24.2071 84.1962 24.0461 84.7021C23.8852 85.1966 23.6609 85.5933 23.3734 85.8923C23.0974 86.1798 22.7697 86.4098 22.3902 86.5823L24.7189 90.8945H22.3902L20.4066 87.0135H19.2854V90.8945H17.2155ZM19.2854 85.6336H20.2341C20.8781 85.6336 21.3668 85.4324 21.7003 85.0299C22.0453 84.6159 22.2178 83.8684 22.2178 82.7875C22.2178 82.063 22.143 81.4938 21.9935 81.0799C21.844 80.6659 21.6198 80.3726 21.3208 80.2002C21.0333 80.0277 20.6711 79.9414 20.2341 79.9414H19.2854V85.6336ZM25.4978 90.8945L26.1877 78.8202H28.4301L31.1554 87.0135H31.2244L33.9498 78.8202H36.1921L36.8821 90.8945H34.8985L34.4327 82.7185H34.3637L32.1386 89.4284H30.2412L28.0161 82.7185H27.9471L27.4814 90.8945H25.4978ZM37.3955 90.8945L40.5003 78.8202H43.0877L46.1925 90.8945H44.0364L43.2774 87.876H40.3106L39.5516 90.8945H37.3955ZM40.5866 86.496H42.9842L41.8285 81.5801H41.7595L40.5866 86.496ZM50.7641 90.8945V78.9927C51.2011 78.8662 51.6496 78.78 52.1096 78.734C52.581 78.6765 53.1388 78.6477 53.7827 78.6477C54.7372 78.6477 55.5076 78.7915 56.0941 79.079C56.6921 79.3665 57.129 79.8264 57.405 80.4589C57.6925 81.0914 57.8362 81.9251 57.8362 82.96C57.8362 84.0524 57.704 84.9264 57.4395 85.5818C57.175 86.2373 56.7783 86.7145 56.2493 87.0135C55.7319 87.301 55.0821 87.4447 54.3002 87.4447C54.1737 87.4447 53.9495 87.4275 53.6275 87.393C53.317 87.3585 53.0525 87.3182 52.834 87.2722V90.8945H50.7641ZM52.834 86.0648H53.7827C54.2197 86.0648 54.5819 85.9728 54.8694 85.7888C55.1684 85.6048 55.3926 85.2886 55.5421 84.8401C55.6916 84.3917 55.7664 83.7649 55.7664 82.96C55.7664 82.178 55.6916 81.5686 55.5421 81.1316C55.3926 80.6946 55.1684 80.3899 54.8694 80.2174C54.5819 80.0334 54.2197 79.9414 53.7827 79.9414H52.834V86.0648ZM57.5667 90.8945L60.6715 78.8202H63.2589L66.3637 90.8945H64.2076L63.4486 87.876H60.4818L59.7228 90.8945H57.5667ZM60.7578 86.496H63.1554L61.9997 81.5801H61.9307L60.7578 86.496ZM67.2268 90.8945V78.9927C67.6638 78.8662 68.1123 78.78 68.5722 78.734C69.0437 78.6765 69.6014 78.6477 70.2454 78.6477C71.1998 78.6477 71.9703 78.7915 72.5568 79.079C73.1547 79.355 73.5917 79.7977 73.8677 80.4071C74.1552 81.0166 74.2989 81.8101 74.2989 82.7875C74.2989 83.558 74.2184 84.1962 74.0574 84.7021C73.8964 85.1966 73.6722 85.5933 73.3847 85.8923C73.1087 86.1798 72.781 86.4098 72.4015 86.5823L74.7301 90.8945H72.4015L70.4179 87.0135H69.2967V90.8945H67.2268ZM69.2967 85.6336H70.2454C70.8894 85.6336 71.3781 85.4324 71.7116 85.0299C72.0565 84.6159 72.229 83.8684 72.229 82.7875C72.229 82.063 72.1543 81.4938 72.0048 81.0799C71.8553 80.6659 71.6311 80.3726 71.3321 80.2002C71.0446 80.0277 70.6824 79.9414 70.2454 79.9414H69.2967V85.6336ZM77.1558 90.8945V80.2002H74.4822V78.8202H81.8992V80.2002H79.2257V90.8945H77.1558ZM84.8349 91.067C84.237 91.067 83.6908 91.0268 83.1963 90.9463C82.7133 90.8773 82.3396 90.8025 82.0751 90.722V89.7733H84.49C85.3524 89.7733 85.9676 89.6066 86.3356 89.2731C86.7151 88.9281 86.9048 88.4337 86.9048 87.7897C86.9048 87.3182 86.7841 86.9388 86.5426 86.6513C86.3126 86.3638 86.0079 86.1223 85.6284 85.9268C85.2604 85.7313 84.8637 85.5416 84.4382 85.3576C84.0242 85.1621 83.6275 84.9264 83.248 84.6504C82.8801 84.3629 82.5753 83.9949 82.3338 83.5465C82.1039 83.0865 81.9889 82.4885 81.9889 81.7526C81.9889 80.7981 82.2878 80.0449 82.8858 79.493C83.4838 78.9295 84.3635 78.6477 85.5249 78.6477C86.1344 78.6477 86.6806 78.6822 87.1636 78.7512C87.658 78.8202 88.0318 78.9007 88.2847 78.9927V79.9414H85.8699C85.3064 79.9414 84.8637 80.1024 84.5417 80.4244C84.2197 80.7464 84.0587 81.1891 84.0587 81.7526C84.0587 82.2585 84.1737 82.6668 84.4037 82.9772C84.6452 83.2762 84.9499 83.5292 85.3179 83.7362C85.6974 83.9317 86.0941 84.1272 86.5081 84.3227C86.9336 84.5067 87.3303 84.7366 87.6983 85.0126C88.0778 85.2886 88.3825 85.6451 88.6125 86.0821C88.854 86.519 88.9747 87.0883 88.9747 87.7897C88.9747 88.8247 88.6527 89.6296 88.0088 90.2046C87.3648 90.7795 86.3069 91.067 84.8349 91.067ZM95.7854 91.067C95.2679 91.067 94.7734 91.0268 94.3019 90.9463C93.8305 90.8773 93.4625 90.8025 93.198 90.722V89.9458H95.4404C96.4293 89.9458 97.1193 89.7733 97.5103 89.4284C97.9127 89.0719 98.114 88.5257 98.114 87.7897C98.114 87.2837 97.9932 86.887 97.7517 86.5995C97.5218 86.3006 97.217 86.0533 96.8375 85.8578C96.4696 85.6623 96.0728 85.4726 95.6474 85.2886C95.2334 85.1046 94.8367 84.8804 94.4572 84.6159C94.0892 84.3399 93.7845 83.9777 93.543 83.5292C93.313 83.0807 93.198 82.4885 93.198 81.7526C93.198 80.7176 93.4625 79.9414 93.9915 79.424C94.5319 78.9065 95.3599 78.6477 96.4753 78.6477C96.9928 78.6477 97.4873 78.6822 97.9587 78.7512C98.4417 78.8202 98.8097 78.9007 99.0627 78.9927V79.7689H96.8203C96.1303 79.7689 95.6129 79.9414 95.2679 80.2864C94.9229 80.6199 94.7504 81.1086 94.7504 81.7526C94.7504 82.2815 94.8654 82.707 95.0954 83.029C95.3369 83.3395 95.6416 83.5982 96.0096 83.8052C96.3891 84.0007 96.7858 84.1962 97.1998 84.3917C97.6252 84.5757 98.022 84.7999 98.39 85.0644C98.7694 85.3174 99.0742 85.6623 99.3041 86.0993C99.5456 86.5248 99.6664 87.0883 99.6664 87.7897C99.6664 88.9051 99.3731 89.7331 98.7867 90.2736C98.2117 90.8025 97.2113 91.067 95.7854 91.067ZM102.44 90.8945V87.0998L99.5074 78.8202H101.06L103.216 84.9436L105.372 78.8202H106.924L103.992 87.0998V90.8945H102.44ZM109.688 91.067C109.17 91.067 108.676 91.0268 108.204 90.9463C107.733 90.8773 107.365 90.8025 107.1 90.722V89.9458H109.343C110.332 89.9458 111.022 89.7733 111.413 89.4284C111.815 89.0719 112.016 88.5257 112.016 87.7897C112.016 87.2837 111.896 86.887 111.654 86.5995C111.424 86.3006 111.119 86.0533 110.74 85.8578C110.372 85.6623 109.975 85.4726 109.55 85.2886C109.136 85.1046 108.739 84.8804 108.359 84.6159C107.991 84.3399 107.687 83.9777 107.445 83.5292C107.215 83.0807 107.1 82.4885 107.1 81.7526C107.1 80.7176 107.365 79.9414 107.894 79.424C108.434 78.9065 109.262 78.6477 110.378 78.6477C110.895 78.6477 111.39 78.6822 111.861 78.7512C112.344 78.8202 112.712 78.9007 112.965 78.9927V79.7689H110.723C110.033 79.7689 109.515 79.9414 109.17 80.2864C108.825 80.6199 108.653 81.1086 108.653 81.7526C108.653 82.2815 108.768 82.707 108.998 83.029C109.239 83.3395 109.544 83.5982 109.912 83.8052C110.291 84.0007 110.688 84.1962 111.102 84.3917C111.528 84.5757 111.924 84.7999 112.292 85.0644C112.672 85.3174 112.976 85.6623 113.206 86.0993C113.448 86.5248 113.569 87.0883 113.569 87.7897C113.569 88.9051 113.275 89.7331 112.689 90.2736C112.114 90.8025 111.114 91.067 109.688 91.067ZM116.169 90.8945V80.0277H113.41V78.8202H120.482V80.0277H117.722V90.8945H116.169ZM121.253 90.8945V78.8202H127.117V80.0277H122.805V83.9949H126.6V85.2024H122.805V89.6871H127.117V90.8945H121.253ZM128.156 90.8945L128.845 78.8202H130.743L133.554 87.0998H133.623L136.435 78.8202H138.332L139.022 90.8945H137.47L136.952 81.9251H136.866L134.365 89.3421H132.813L130.312 81.9251H130.225L129.708 90.8945H128.156Z" fill="#00193E"/>
<defs>
<linearGradient id="paint0_linear_545_9996" x1="128.579" y1="1.04932" x2="91.1619" y2="7.60057" gradientUnits="userSpaceOnUse">
<stop stop-color="#39B6EA"/>
<stop offset="1" stop-color="#ABDFF4"/>
</linearGradient>
<linearGradient id="paint1_linear_545_9996" x1="125.493" y1="4.37165" x2="87.6026" y2="11.0946" gradientUnits="userSpaceOnUse">
<stop stop-color="#39B6EA"/>
<stop offset="1" stop-color="#ABDFF4"/>
</linearGradient>
<linearGradient id="paint2_linear_545_9996" x1="122.396" y1="7.69581" x2="85.4887" y2="14.0642" gradientUnits="userSpaceOnUse">
<stop stop-color="#39B6EA"/>
<stop offset="1" stop-color="#ABDFF4"/>
</linearGradient>
<linearGradient id="paint3_linear_545_9996" x1="119.218" y1="11.0181" x2="85.1462" y2="16.4213" gradientUnits="userSpaceOnUse">
<stop stop-color="#39B6EA"/>
<stop offset="1" stop-color="#ABDFF4"/>
</linearGradient>
<linearGradient id="paint4_linear_545_9996" x1="116.13" y1="14.3403" x2="81.665" y2="19.8721" gradientUnits="userSpaceOnUse">
<stop stop-color="#39B6EA"/>
<stop offset="1" stop-color="#ABDFF4"/>
</linearGradient>
<linearGradient id="paint5_linear_545_9996" x1="112.968" y1="17.4894" x2="81.55" y2="23.0365" gradientUnits="userSpaceOnUse">
<stop stop-color="#39B6EA"/>
<stop offset="1" stop-color="#ABDFF4"/>
</linearGradient>
<linearGradient id="paint6_linear_545_9996" x1="97.5715" y1="20.9868" x2="77.4796" y2="22.8351" gradientUnits="userSpaceOnUse">
<stop stop-color="#39B6EA"/>
<stop offset="1" stop-color="#ABDFF4"/>
</linearGradient>
<linearGradient id="paint7_linear_545_9996" x1="120.384" y1="24.3091" x2="81.8299" y2="31.2783" gradientUnits="userSpaceOnUse">
<stop stop-color="#39B6EA"/>
<stop offset="1" stop-color="#ABDFF4"/>
</linearGradient>
<linearGradient id="paint8_linear_545_9996" x1="125.832" y1="27.6333" x2="82.4101" y2="36.5548" gradientUnits="userSpaceOnUse">
<stop stop-color="#39B6EA"/>
<stop offset="1" stop-color="#ABDFF4"/>
</linearGradient>
<linearGradient id="paint9_linear_545_9996" x1="128.932" y1="30.9575" x2="83.9533" y2="40.5613" gradientUnits="userSpaceOnUse">
<stop stop-color="#39B6EA"/>
<stop offset="1" stop-color="#ABDFF4"/>
</linearGradient>
<linearGradient id="paint10_linear_545_9996" x1="130.869" y1="34.2798" x2="88.4179" y2="42.7906" gradientUnits="userSpaceOnUse">
<stop stop-color="#39B6EA"/>
<stop offset="1" stop-color="#ABDFF4"/>
</linearGradient>
<linearGradient id="paint11_linear_545_9996" x1="132.084" y1="37.6021" x2="90.4796" y2="45.763" gradientUnits="userSpaceOnUse">
<stop stop-color="#39B6EA"/>
<stop offset="1" stop-color="#ABDFF4"/>
</linearGradient>
<linearGradient id="paint12_linear_545_9996" x1="132.639" y1="40.9243" x2="93.6135" y2="48.0707" gradientUnits="userSpaceOnUse">
<stop stop-color="#39B6EA"/>
<stop offset="1" stop-color="#ABDFF4"/>
</linearGradient>
<linearGradient id="paint13_linear_545_9996" x1="132.413" y1="44.2485" x2="112.795" y2="46.0101" gradientUnits="userSpaceOnUse">
<stop stop-color="#39B6EA"/>
<stop offset="1" stop-color="#ABDFF4"/>
</linearGradient>
<linearGradient id="paint14_linear_545_9996" x1="132.622" y1="47.5708" x2="94.5134" y2="54.3743" gradientUnits="userSpaceOnUse">
<stop stop-color="#39B6EA"/>
<stop offset="1" stop-color="#ABDFF4"/>
</linearGradient>
<linearGradient id="paint15_linear_545_9996" x1="132.065" y1="50.895" x2="91.9833" y2="58.4481" gradientUnits="userSpaceOnUse">
<stop stop-color="#39B6EA"/>
<stop offset="1" stop-color="#ABDFF4"/>
</linearGradient>
<linearGradient id="paint16_linear_545_9996" x1="130.951" y1="54.2173" x2="89.369" y2="62.369" gradientUnits="userSpaceOnUse">
<stop stop-color="#39B6EA"/>
<stop offset="1" stop-color="#ABDFF4"/>
</linearGradient>
<linearGradient id="paint17_linear_545_9996" x1="129.162" y1="57.5396" x2="86.6407" y2="66.0791" gradientUnits="userSpaceOnUse">
<stop stop-color="#39B6EA"/>
<stop offset="1" stop-color="#ABDFF4"/>
</linearGradient>
<linearGradient id="paint18_linear_545_9996" x1="126.46" y1="60.8618" x2="83.7445" y2="69.4834" gradientUnits="userSpaceOnUse">
<stop stop-color="#39B6EA"/>
<stop offset="1" stop-color="#ABDFF4"/>
</linearGradient>
<linearGradient id="paint19_linear_545_9996" x1="122.568" y1="64.186" x2="80.6386" y2="72.4801" gradientUnits="userSpaceOnUse">
<stop stop-color="#39B6EA"/>
<stop offset="1" stop-color="#ABDFF4"/>
</linearGradient>
</defs>
</svg>
