<svg width="842" height="563" viewBox="0 0 842 563" fill="none" xmlns="http://www.w3.org/2000/svg">
<path fill-rule="evenodd" clip-rule="evenodd" d="M10.5312 0.953613C5.0084 0.953613 0.53125 5.43078 0.53125 10.9536V552.926C0.53125 558.449 5.00838 562.926 10.5312 562.926H331.168C338.539 562.926 343.467 555.135 341.617 548C339.909 541.41 339 534.498 339 527.375C339 482.112 375.693 445.419 420.956 445.419C466.219 445.419 502.912 482.112 502.912 527.375C502.912 534.498 502.003 541.41 500.294 548C498.445 555.135 503.373 562.926 510.744 562.926H831.379C836.902 562.926 841.379 558.449 841.379 552.926V10.9536C841.379 5.43077 836.902 0.953613 831.379 0.953613H10.5312Z" fill="#FF9800"/>
</svg>
