<svg width="376" height="659" viewBox="0 0 376 659" fill="none" xmlns="http://www.w3.org/2000/svg">
<path fill-rule="evenodd" clip-rule="evenodd" d="M375.75 10.2666C375.75 4.74375 371.273 0.266602 365.75 0.266602H10.75C5.22715 0.266602 0.75 4.74376 0.75 10.2666V648.267C0.75 653.789 5.22715 658.267 10.75 658.267H118.193C125.902 658.267 130.934 649.663 129.412 642.106C128.736 638.75 128.383 635.288 128.383 631.749C128.383 600.931 155.188 575.949 188.253 575.949C221.318 575.949 248.123 600.931 248.123 631.749C248.123 635.288 247.77 638.75 247.094 642.106C245.572 649.663 250.604 658.267 258.313 658.267H365.75C371.273 658.267 375.75 653.789 375.75 648.267V10.2666Z" fill="#FF9800"/>
</svg>
