<svg width="96" height="87" viewBox="0 0 96 87" fill="none" xmlns="http://www.w3.org/2000/svg">
<circle cx="50.5852" cy="43.4963" r="14.5189" stroke="#FF9800" stroke-width="2.21837"/>
<mask id="path-2-inside-1_264_1780" fill="white">
<path fill-rule="evenodd" clip-rule="evenodd" d="M47.8522 17.208C47.5598 17.208 47.3015 17.3983 47.2149 17.6776L46.1387 21.1467C46.0673 21.3769 45.8771 21.5499 45.6425 21.6047C43.1423 22.1893 40.8032 23.1928 38.7034 24.5372C38.49 24.6738 38.2183 24.6835 37.9986 24.5573L34.9025 22.7776C34.6354 22.624 34.2978 22.6734 34.0858 22.897L29.8982 27.3132C29.697 27.5253 29.6573 27.8438 29.8004 28.0988L31.5557 31.2284C31.6749 31.4409 31.6681 31.701 31.5428 31.9099C30.3287 33.9346 29.4254 36.167 28.8991 38.5413C28.8435 38.7921 28.6534 38.9926 28.4043 39.0555L24.9611 39.924C24.6623 39.9993 24.454 40.2695 24.4571 40.5776L24.5175 46.6633C24.5205 46.9556 24.7133 47.2121 24.9934 47.2959L28.5733 48.3676C28.8029 48.4363 28.9772 48.6231 29.0353 48.8556C29.605 51.1352 30.524 53.2764 31.7322 55.2191C31.8687 55.4386 31.8722 55.7168 31.7357 55.9364L29.8766 58.9293C29.714 59.1911 29.7518 59.5302 29.968 59.7497L34.2386 64.0857C34.4438 64.294 34.7606 64.3445 35.0204 64.2103L38.3836 62.4721C38.595 62.3629 38.8482 62.3751 39.0509 62.4997C41.0442 63.725 43.244 64.6469 45.586 65.2009C45.8198 65.2562 46.0092 65.429 46.0804 65.6585L47.2149 69.3156C47.3015 69.5948 47.5598 69.7852 47.8522 69.7852H53.9382C54.2463 69.7852 54.5144 69.5742 54.5868 69.2746L55.452 65.6947C55.5121 65.4462 55.709 65.2548 55.9577 65.1956C58.2862 64.6423 60.4738 63.7253 62.4573 62.508C62.6599 62.3836 62.9129 62.3714 63.1241 62.4806L66.1422 64.0403C66.4019 64.1746 66.7188 64.1241 66.924 63.9158L71.1946 59.5798C71.4108 59.3602 71.4486 59.0212 71.286 58.7594L69.6583 56.139C69.5205 55.9173 69.5255 55.636 69.6657 55.4157C70.9869 53.3397 71.9756 51.0312 72.5567 48.5655C72.6124 48.329 72.7881 48.1381 73.0208 48.0685L76.1691 47.126C76.4492 47.0421 76.6421 46.7857 76.645 46.4933L76.7055 40.4077C76.7086 40.0996 76.5003 39.8294 76.2015 39.754L73.0985 38.9713C72.8502 38.9087 72.6606 38.7094 72.6042 38.4597C72.0429 35.9722 71.0676 33.6416 69.7545 31.544C69.6228 31.3336 69.6133 31.068 69.7347 30.8514L71.3739 27.9288C71.517 27.6738 71.4773 27.3554 71.2762 27.1433L67.0885 22.7271C66.8765 22.5035 66.5389 22.4541 66.2718 22.6077L63.2161 24.3642C62.9998 24.4885 62.7326 24.4811 62.5204 24.3498C60.508 23.1056 58.2838 22.1711 55.9144 21.613C55.6651 21.5543 55.4675 21.3626 55.4073 21.1136L54.5868 17.7185C54.5144 17.419 54.2463 17.208 53.9382 17.208H47.8522Z"/>
</mask>
<path d="M54.5868 17.7185L56.7431 17.1974L54.5868 17.7185ZM55.9144 21.613L55.4058 23.7723L55.9144 21.613ZM55.4073 21.1136L57.5636 20.5925L55.4073 21.1136ZM63.2161 24.3642L64.3216 26.2874L63.2161 24.3642ZM62.5204 24.3498L61.3538 26.2367L62.5204 24.3498ZM67.0885 22.7271L68.6983 21.2007L67.0885 22.7271ZM66.2718 22.6077L67.3773 24.531L66.2718 22.6077ZM71.3739 27.9288L69.4391 26.8437L71.3739 27.9288ZM71.2762 27.1433L72.8859 25.6168L71.2762 27.1433ZM69.7545 31.544L71.6349 30.3669L69.7545 31.544ZM73.0985 38.9713L72.5559 41.1223L73.0985 38.9713ZM72.6042 38.4597L70.4403 38.948L72.6042 38.4597ZM76.7055 40.4077L78.9238 40.4297L76.7055 40.4077ZM76.2015 39.754L76.744 37.603L76.2015 39.754ZM76.1691 47.126L75.533 45.0008L76.1691 47.126ZM76.645 46.4933L74.4268 46.4713L76.645 46.4933ZM72.5567 48.5655L70.3974 48.0566L72.5567 48.5655ZM73.0208 48.0685L73.657 50.1936L73.0208 48.0685ZM69.6657 55.4157L67.7942 54.2247L69.6657 55.4157ZM71.1946 59.5798L72.7751 61.1364L71.1946 59.5798ZM71.286 58.7594L69.4016 59.93L71.286 58.7594ZM66.1422 64.0403L67.1607 62.0696L66.1422 64.0403ZM66.924 63.9158L65.3435 62.3591L66.924 63.9158ZM62.4573 62.508L63.6177 64.3986L62.4573 62.508ZM63.1241 62.4806L62.1056 64.4513L63.1241 62.4806ZM55.452 65.6947L53.2957 65.1736L55.452 65.6947ZM55.9577 65.1956L55.4448 63.0374L55.9577 65.1956ZM47.2149 69.3156L49.3336 68.6583L47.2149 69.3156ZM45.586 65.2009L46.0967 63.0421L45.586 65.2009ZM46.0804 65.6585L48.1991 65.0012L46.0804 65.6585ZM38.3836 62.4721L39.4021 64.4429L38.3836 62.4721ZM39.0509 62.4997L37.8892 64.3896L39.0509 62.4997ZM34.2386 64.0857L35.8191 62.529L34.2386 64.0857ZM35.0204 64.2103L36.0389 66.181L35.0204 64.2103ZM29.8766 58.9293L27.9922 57.7588L29.8766 58.9293ZM29.968 59.7497L31.5485 58.1931L29.968 59.7497ZM31.7322 55.2191L33.6159 54.0475L31.7322 55.2191ZM31.7357 55.9364L33.6201 57.107L31.7357 55.9364ZM28.5733 48.3676L27.9371 50.4927L28.5733 48.3676ZM24.9934 47.2959L24.3573 49.4211L24.9934 47.2959ZM24.9611 39.924L24.4186 37.773L24.9611 39.924ZM28.8991 38.5413L26.7333 38.0612L28.8991 38.5413ZM28.4043 39.0555L27.8617 36.9045L28.4043 39.0555ZM29.8982 27.3132L28.2884 25.7868L29.8982 27.3132ZM29.8004 28.0988L27.8655 29.184L29.8004 28.0988ZM38.7034 24.5372L39.8995 26.4055L38.7034 24.5372ZM37.9986 24.5573L39.1042 22.634L37.9986 24.5573ZM46.1387 21.1467L48.2574 21.804L46.1387 21.1467ZM45.6425 21.6047L46.1476 23.7648L45.6425 21.6047ZM48.2574 21.804L49.3336 18.3349L45.0961 17.0203L44.0199 20.4895L48.2574 21.804ZM39.8995 26.4055C41.7914 25.1943 43.8974 24.291 46.1476 23.7648L45.1375 19.4446C42.3873 20.0877 39.8151 21.1914 37.5073 22.6689L39.8995 26.4055ZM33.797 24.7009L36.8931 26.4806L39.1042 22.634L36.0081 20.8543L33.797 24.7009ZM31.5079 28.8396L35.6955 24.4234L32.476 21.3706L28.2884 25.7868L31.5079 28.8396ZM33.4905 30.1432L31.7352 27.0136L27.8655 29.184L29.6209 32.3136L33.4905 30.1432ZM31.0649 39.0214C31.5386 36.8845 32.3516 34.8746 33.4453 33.0507L29.6403 30.769C28.3057 32.9945 27.3122 35.4496 26.7333 38.0612L31.0649 39.0214ZM25.5037 42.0749L28.9468 41.2065L27.8617 36.9045L24.4186 37.773L25.5037 42.0749ZM26.7358 46.6412L26.6753 40.5556L22.2388 40.5997L22.2993 46.6853L26.7358 46.6412ZM29.2095 46.2424L25.6296 45.1707L24.3573 49.4211L27.9371 50.4927L29.2095 46.2424ZM33.6159 54.0475C32.5274 52.2974 31.7002 50.3695 31.1875 48.3178L26.8831 49.3934C27.5097 51.9009 28.5205 54.2555 29.8484 56.3907L33.6159 54.0475ZM31.761 60.0999L33.6201 57.107L29.8514 54.7659L27.9922 57.7588L31.761 60.0999ZM35.8191 62.529L31.5485 58.1931L28.3875 61.3064L32.6581 65.6424L35.8191 62.529ZM37.3652 60.5014L34.0019 62.2395L36.0389 66.181L39.4021 64.4429L37.3652 60.5014ZM46.0967 63.0421C43.9888 62.5435 42.0083 61.7137 40.2126 60.6099L37.8892 64.3896C40.0801 65.7363 42.4991 66.7502 45.0753 67.3597L46.0967 63.0421ZM49.3336 68.6583L48.1991 65.0012L43.9616 66.3158L45.0961 69.9728L49.3336 68.6583ZM53.9382 67.5668H47.8522V72.0035H53.9382V67.5668ZM53.2957 65.1736L52.4305 68.7535L56.7431 69.7958L57.6083 66.2159L53.2957 65.1736ZM61.2969 60.6173C59.5101 61.7139 57.5405 62.5393 55.4448 63.0374L56.4707 67.3539C59.0319 66.7452 61.4376 65.7366 63.6177 64.3986L61.2969 60.6173ZM67.1607 62.0696L64.1426 60.5099L62.1056 64.4513L65.1237 66.0111L67.1607 62.0696ZM69.6141 58.0231L65.3435 62.3591L68.5045 65.4724L72.7751 61.1364L69.6141 58.0231ZM67.7739 57.3096L69.4016 59.93L73.1704 57.5889L71.5427 54.9685L67.7739 57.3096ZM70.3974 48.0566C69.8745 50.2759 68.9845 52.3542 67.7942 54.2247L71.5372 56.6068C72.9893 54.3251 74.0767 51.7866 74.7159 49.0743L70.3974 48.0566ZM75.533 45.0008L72.3846 45.9433L73.657 50.1936L76.8053 49.2512L75.533 45.0008ZM74.4873 40.3856L74.4268 46.4713L78.8633 46.5154L78.9238 40.4297L74.4873 40.3856ZM72.5559 41.1223L75.6589 41.905L76.744 37.603L73.641 36.8203L72.5559 41.1223ZM67.8742 32.7211C69.0572 34.6108 69.9351 36.7091 70.4403 38.948L74.7682 37.9714C74.1508 35.2352 73.0781 32.6723 71.6349 30.3669L67.8742 32.7211ZM69.4391 26.8437L67.7999 29.7662L71.6696 31.9366L73.3088 29.014L69.4391 26.8437ZM65.4788 24.2535L69.6664 28.6697L72.8859 25.6168L68.6983 21.2007L65.4788 24.2535ZM64.3216 26.2874L67.3773 24.531L65.1663 20.6844L62.1105 22.4409L64.3216 26.2874ZM55.4058 23.7723C57.5384 24.2746 59.5408 25.1157 61.3538 26.2367L63.687 22.463C61.4752 21.0954 59.0293 20.0676 56.423 19.4537L55.4058 23.7723ZM52.4305 18.2397L53.2511 21.6348L57.5636 20.5925L56.7431 17.1974L52.4305 18.2397ZM47.8522 19.4264H53.9382V14.9896H47.8522V19.4264ZM56.7431 17.1974C56.43 15.9021 55.2707 14.9896 53.9382 14.9896V19.4264C53.2219 19.4264 52.5988 18.9359 52.4305 18.2397L56.7431 17.1974ZM56.423 19.4537C56.9646 19.5813 57.4218 20.0055 57.5636 20.5925L53.2511 21.6348C53.5133 22.7197 54.3656 23.5273 55.4058 23.7723L56.423 19.4537ZM62.1105 22.4409C62.6202 22.1479 63.2253 22.1775 63.687 22.463L61.3538 26.2367C62.2399 26.7846 63.3793 26.8291 64.3216 26.2874L62.1105 22.4409ZM68.6983 21.2007C67.7814 20.2337 66.3216 20.0203 65.1663 20.6844L67.3773 24.531C66.7563 24.8879 65.9717 24.7732 65.4788 24.2535L68.6983 21.2007ZM73.3088 29.014C73.9273 27.9113 73.7559 26.5343 72.8859 25.6168L69.6664 28.6697C69.1988 28.1765 69.1067 27.4364 69.4391 26.8437L73.3088 29.014ZM71.6349 30.3669C71.9216 30.8249 71.9557 31.4264 71.6696 31.9366L67.7999 29.7662C67.2709 30.7095 67.3241 31.8423 67.8742 32.7211L71.6349 30.3669ZM73.641 36.8203C74.2263 36.968 74.6458 37.4289 74.7682 37.9714L70.4403 38.948C70.6754 39.9899 71.4742 40.8495 72.5559 41.1223L73.641 36.8203ZM78.9238 40.4297C78.937 39.0972 78.0361 37.9289 76.744 37.603L75.6589 41.905C74.9644 41.7298 74.4801 41.1019 74.4873 40.3856L78.9238 40.4297ZM76.8053 49.2512C78.0166 48.8886 78.8507 47.7797 78.8633 46.5154L74.4268 46.4713C74.4335 45.7917 74.8819 45.1957 75.533 45.0008L76.8053 49.2512ZM74.7159 49.0743C74.5947 49.5887 74.2055 50.0294 73.657 50.1936L72.3846 45.9433C71.3706 46.2468 70.6301 47.0694 70.3974 48.0566L74.7159 49.0743ZM71.5427 54.9685C71.8674 55.4912 71.8418 56.1281 71.5372 56.6068L67.7942 54.2247C67.2091 55.1439 67.1736 56.3433 67.7739 57.3096L71.5427 54.9685ZM72.7751 61.1364C73.7102 60.187 73.8736 58.7208 73.1704 57.5889L69.4016 59.93C69.0237 59.3215 69.1115 58.5334 69.6141 58.0231L72.7751 61.1364ZM65.1237 66.0111C66.2469 66.5916 67.6173 66.3732 68.5045 65.4724L65.3435 62.3591C65.8204 61.8749 66.5569 61.7576 67.1607 62.0696L65.1237 66.0111ZM63.6177 64.3986C63.1762 64.6696 62.6032 64.7085 62.1056 64.4513L64.1426 60.5099C63.2226 60.0344 62.1437 60.0976 61.2969 60.6173L63.6177 64.3986ZM57.6083 66.2159C57.4667 66.8017 57.011 67.2255 56.4707 67.3539L55.4448 63.0374C54.4071 63.284 53.5574 64.0908 53.2957 65.1736L57.6083 66.2159ZM53.9382 72.0035C55.2707 72.0035 56.43 71.0911 56.7431 69.7958L52.4305 68.7535C52.5988 68.0572 53.2219 67.5668 53.9382 67.5668V72.0035ZM45.0961 69.9728C45.4707 71.1804 46.5878 72.0035 47.8522 72.0035V67.5668C48.5318 67.5668 49.1323 68.0092 49.3336 68.6583L45.0961 69.9728ZM45.0753 67.3597C44.5665 67.2393 44.1294 66.8567 43.9616 66.3158L48.1991 65.0012C47.8889 64.0013 47.0732 63.2731 46.0967 63.0421L45.0753 67.3597ZM39.4021 64.4429C38.9042 64.7002 38.3308 64.6611 37.8892 64.3896L40.2126 60.6099C39.3656 60.0892 38.2859 60.0256 37.3652 60.5014L39.4021 64.4429ZM32.6581 65.6424C33.5453 66.5432 34.9156 66.7615 36.0389 66.181L34.0019 62.2395C34.6057 61.9275 35.3422 62.0448 35.8191 62.529L32.6581 65.6424ZM27.9922 57.7588C27.289 58.8907 27.4524 60.357 28.3875 61.3064L31.5485 58.1931C32.0511 58.7034 32.1389 59.4915 31.761 60.0999L27.9922 57.7588ZM29.8484 56.3907C29.5516 55.9134 29.5298 55.2835 29.8514 54.7659L33.6201 57.107C34.2145 56.1502 34.1858 54.9638 33.6159 54.0475L29.8484 56.3907ZM27.9371 50.4927C27.396 50.3308 27.0096 49.8994 26.8831 49.3934L31.1875 48.3178C30.9449 47.3469 30.2098 46.5418 29.2095 46.2424L27.9371 50.4927ZM22.2993 46.6853C22.3119 47.9496 23.146 49.0585 24.3573 49.4211L25.6296 45.1707C26.2807 45.3656 26.7291 45.9616 26.7358 46.6412L22.2993 46.6853ZM24.4186 37.773C23.1265 38.0989 22.2256 39.2672 22.2388 40.5997L26.6753 40.5556C26.6824 41.2718 26.1982 41.8998 25.5037 42.0749L24.4186 37.773ZM26.7333 38.0612C26.8541 37.5163 27.2744 37.0526 27.8617 36.9045L28.9468 41.2065C30.0324 40.9326 30.8328 40.068 31.0649 39.0214L26.7333 38.0612ZM29.6209 32.3136C29.3402 31.8131 29.3676 31.2238 29.6403 30.769L33.4453 33.0507C33.9686 32.1781 34.0096 31.0686 33.4905 30.1432L29.6209 32.3136ZM28.2884 25.7868C27.4184 26.7042 27.247 28.0812 27.8655 29.184L31.7352 27.0136C32.0676 27.6063 31.9755 28.3464 31.5079 28.8396L28.2884 25.7868ZM36.0081 20.8543C34.8527 20.1903 33.393 20.4036 32.476 21.3706L35.6955 24.4234C35.2026 24.9431 34.418 25.0578 33.797 24.7009L36.0081 20.8543ZM37.5073 22.6689C37.9714 22.3718 38.5866 22.3365 39.1042 22.634L36.8931 26.4806C37.85 27.0306 39.0087 26.9758 39.8995 26.4055L37.5073 22.6689ZM49.3336 18.3349C49.1323 18.984 48.5318 19.4264 47.8522 19.4264V14.9896C46.5878 14.9896 45.4707 15.8127 45.0961 17.0203L49.3336 18.3349ZM44.0199 20.4895C44.1882 19.9471 44.627 19.564 45.1375 19.4446L46.1476 23.7648C47.1272 23.5358 47.9464 22.8066 48.2574 21.804L44.0199 20.4895Z" fill="#FF9800" mask="url(#path-2-inside-1_264_1780)"/>
<path d="M15.8051 20.0578C15.5063 20.5926 15.6978 21.2684 16.2326 21.5671C16.7674 21.8658 17.4431 21.6744 17.7418 21.1395L15.8051 20.0578ZM76.6904 13.9574C77.3003 13.9001 77.7483 13.3592 77.691 12.7493L76.757 2.81045C76.6996 2.20055 76.1588 1.7526 75.5489 1.80991C74.939 1.86723 74.491 2.40811 74.5483 3.01801L75.3786 11.8526L66.544 12.6828C65.9341 12.7401 65.4862 13.281 65.5435 13.8909C65.6008 14.5008 66.1417 14.9487 66.7516 14.8914L76.6904 13.9574ZM17.7418 21.1395C21.2464 14.8648 29.3775 7.66543 39.8524 4.71753C50.2556 1.78979 63.0056 3.04551 75.8792 13.7073L77.2942 11.9988C63.8552 0.868795 50.3506 -0.541498 39.2514 2.58212C28.2238 5.68558 19.6046 13.2549 15.8051 20.0578L17.7418 21.1395Z" fill="#FF9800"/>
<path d="M85.675 25.4299C93.5912 38.1463 95.3339 69.0357 63.5366 81.5326" stroke="#FF9800" stroke-width="2.21837" stroke-linecap="round" stroke-dasharray="5.34 5.34"/>
<path d="M46.6377 85.548C47.2503 85.5501 47.7486 85.0552 47.7507 84.4426C47.7528 83.83 47.2579 83.3317 46.6454 83.3296L46.6377 85.548ZM11.7954 35.2463C11.4497 34.7406 10.7595 34.6109 10.2538 34.9566L2.01264 40.5902C1.50692 40.9359 1.37721 41.6261 1.72291 42.1318C2.06861 42.6375 2.75882 42.7672 3.26454 42.4215L10.59 37.4139L15.5976 44.7394C15.9433 45.2451 16.6335 45.3748 17.1392 45.0291C17.645 44.6834 17.7747 43.9932 17.429 43.4875L11.7954 35.2463ZM46.6454 83.3296C39.4583 83.305 29.2204 79.6814 21.5654 71.9474C13.9629 64.2662 8.88242 52.5049 11.9698 36.0772L9.78963 35.6674C6.56664 52.8166 11.8776 65.3129 19.9888 73.5079C28.0476 81.6501 38.8458 85.5212 46.6377 85.548L46.6454 83.3296Z" fill="#FF9800"/>
</svg>
