<svg width="112" height="116" viewBox="0 0 112 116" fill="none" xmlns="http://www.w3.org/2000/svg">
<path d="M21.1662 36.0195C21.1662 22.8538 31.8391 12.1809 45.0048 12.1809H69.5069C82.6726 12.1809 93.3455 22.8538 93.3455 36.0195V40.1809C93.3455 53.3466 82.6726 64.0195 69.5069 64.0195H44.1623C38.7032 64.0195 33.3647 65.6262 28.8124 68.6392L24.1855 71.7016C23.5922 72.0942 22.8289 71.5427 23.0155 70.8562L23.709 68.3035C24.8759 64.0091 24.4738 59.4394 22.575 55.4147C21.6473 53.4484 21.1662 51.3011 21.1662 49.1269V36.0195Z" stroke="white" stroke-width="3.9731"/>
<path d="M63.5312 37.0993L79.004 2.88859C79.2218 2.40698 79.7786 2.18032 80.2709 2.3729L88.0183 5.40388C88.5496 5.61177 88.797 6.22356 88.5595 6.74236L73.132 40.4393L65.1368 46.6976C64.4848 47.208 63.5312 46.7434 63.5312 45.9155V37.0993Z" fill="#FF9800"/>
<path d="M63.5312 37.0993L79.004 2.88859C79.2218 2.40698 79.7786 2.18032 80.2709 2.3729L88.0183 5.40388C88.5496 5.61177 88.797 6.22356 88.5595 6.74237L73.132 40.4393M63.5312 37.0993V45.9155C63.5312 46.7434 64.4848 47.208 65.1368 46.6976L73.132 40.4393M63.5312 37.0993L73.132 40.4393" stroke="white" stroke-width="3.9731"/>
<path d="M32.0117 29.5273H56.2267" stroke="white" stroke-width="3.9731"/>
<path d="M32.0117 38.4668H54.5583" stroke="white" stroke-width="3.9731"/>
<path d="M32.0117 47.4053H65.8296" stroke="white" stroke-width="3.9731"/>
<path d="M7.57712 86.044L8.91344 85.586C8.98414 86.0764 9.12605 86.5503 9.33918 87.0077C9.56513 87.4656 9.83791 87.8741 10.1575 88.233C10.4772 88.5919 10.8126 88.8745 11.1638 89.0806C11.5213 89.2935 11.8665 89.4064 12.1996 89.4194C12.5328 89.4324 12.8291 89.3188 13.0887 89.0787C13.4015 88.7894 13.5144 88.4441 13.4274 88.0429C13.3532 87.6423 13.113 87.2223 12.7067 86.783L11.2014 85.1556L12.2198 84.2137L13.6327 85.7412C13.9959 86.1339 14.3559 86.3629 14.7126 86.4281C15.0755 86.5 15.3934 86.4098 15.6663 86.1574C15.8926 85.9481 16.0113 85.7025 16.0222 85.4206C16.0394 85.1454 15.9707 84.8508 15.8161 84.5368C15.6677 84.2295 15.4486 83.9258 15.1587 83.6258C14.8817 83.3262 14.5458 83.0565 14.1509 82.8166C13.7627 82.5704 13.3467 82.381 12.9028 82.2482L13.5725 80.8692C14.2117 81.0931 14.7996 81.4015 15.336 81.7945C15.8786 82.1942 16.3393 82.6388 16.7179 83.1284C17.0966 83.6179 17.369 84.1194 17.535 84.6327C17.7072 85.1527 17.7585 85.6487 17.6887 86.1208C17.6257 86.5867 17.4111 86.9889 17.045 87.3275C16.7122 87.6353 16.3329 87.8194 15.9071 87.8798C15.4941 87.9407 15.0761 87.8827 14.6532 87.7058C14.2302 87.5289 13.831 87.2374 13.4554 86.8314L13.8211 86.5858C14.2459 87.0451 14.5354 87.5183 14.6896 88.0055C14.8566 88.4932 14.8899 88.9565 14.7894 89.3953C14.695 89.8407 14.4681 90.2296 14.1087 90.5621C13.7692 90.876 13.3864 91.0696 12.9601 91.1428C12.5404 91.2099 12.1022 91.1767 11.6455 91.0434C11.1954 90.904 10.7486 90.6812 10.305 90.3752C9.86803 90.063 9.46254 89.6847 9.08851 89.2403C8.71447 88.7958 8.39369 88.3021 8.12615 87.7592C7.86477 87.2229 7.68176 86.6512 7.57712 86.044Z" fill="white"/>
<path d="M14.1192 94.4171L23.2446 89.3469L24.64 90.3876L22.3937 100.588L20.9111 99.4823L23.087 90.3999L23.6539 90.8227L15.5801 95.5066L14.1192 94.4171ZM17.0171 93.8299L18.228 93.0025L22.3489 96.0758L21.9011 97.4723L17.0171 93.8299Z" fill="white"/>
<path d="M24.8724 102.032L28.9136 93.412L36.5357 96.9856L32.4945 105.605L30.9183 104.866L34.5092 97.2071L34.6939 97.7743L29.4853 95.3323L30.0394 95.1115L26.4485 102.77L24.8724 102.032Z" fill="white"/>
<path d="M36.7706 107.179L38.9343 97.908L40.6295 98.3036L39.0933 104.886L45.6092 99.4658L47.2117 99.8398L45.048 109.11L43.3528 108.715L44.8859 102.146L38.3731 107.553L36.7706 107.179Z" fill="white"/>
<path d="M53.7972 109.973C53.0722 109.952 52.4005 109.815 51.7821 109.561C51.173 109.298 50.6437 108.942 50.1943 108.494C49.7542 108.036 49.416 107.505 49.1798 106.899C48.9436 106.294 48.8358 105.638 48.8565 104.931C48.8773 104.224 49.0233 103.575 49.2946 102.984C49.5658 102.394 49.939 101.888 50.4139 101.466C50.8891 101.036 51.4383 100.711 52.0615 100.494C52.6849 100.267 53.3636 100.165 54.0977 100.186C54.8771 100.209 55.5845 100.366 56.22 100.657C56.8557 100.938 57.3879 101.348 57.8166 101.887L56.6432 102.928C56.3098 102.546 55.9327 102.258 55.5121 102.064C55.0917 101.862 54.6323 101.753 54.1339 101.738C53.6354 101.724 53.1754 101.792 52.7537 101.943C52.3411 102.094 51.9763 102.315 51.6595 102.605C51.3516 102.895 51.1056 103.241 50.9215 103.644C50.7464 104.047 50.6517 104.493 50.6373 104.983C50.623 105.472 50.6914 105.923 50.8426 106.336C51.0028 106.749 51.2281 107.109 51.5184 107.417C51.8178 107.725 52.169 107.967 52.572 108.142C52.9841 108.317 53.4394 108.412 53.9378 108.427C54.4362 108.441 54.9011 108.364 55.3324 108.195C55.7639 108.018 56.1574 107.743 56.5129 107.373L57.623 108.494C57.1637 108.997 56.6084 109.376 55.957 109.629C55.3056 109.882 54.5857 109.997 53.7972 109.973Z" fill="white"/>
<path d="M60.0936 109.907L62.7944 99.8227L64.5126 99.5434L70.2821 108.25L68.4565 108.547L63.4417 100.668L64.1397 100.555L61.8924 109.614L60.0936 109.907ZM61.6865 107.416L61.9337 105.97L67.0078 105.145L67.7002 106.438L61.6865 107.416Z" fill="white"/>
<path d="M74.7415 106.764L71.9489 98.7792L72.4906 99.0508L69.1272 100.227L68.6333 98.815L76.233 96.1571L76.7269 97.5692L73.3635 98.7455L73.6049 98.2L76.3975 106.185L74.7415 106.764Z" fill="white"/>
<path d="M82.0827 103.975L77.3603 95.7094L78.8717 94.8459L82.2247 100.715L83.3118 92.3092L84.7406 91.4929L89.463 99.7589L87.9515 100.622L84.6053 94.7654L83.5115 103.159L82.0827 103.975Z" fill="white"/>
<path d="M96.6244 94.259C96.0807 94.739 95.4964 95.0977 94.8714 95.3351C94.2472 95.5596 93.6178 95.6618 92.9831 95.6416C92.3493 95.6086 91.7392 95.4519 91.1528 95.1713C90.5665 94.8908 90.0393 94.4854 89.5712 93.9553C89.1031 93.4252 88.7662 92.8518 88.5605 92.2352C88.3547 91.6186 88.2811 90.9942 88.3397 90.3619C88.3923 89.7229 88.5717 89.111 88.8778 88.5262C89.178 87.9346 89.6033 87.3958 90.1538 86.9098C90.7383 86.3937 91.3618 86.0246 92.0244 85.8024C92.681 85.5735 93.3498 85.5091 94.0309 85.6092L93.8856 87.1707C93.3813 87.1201 92.9094 87.1678 92.47 87.3139C92.0245 87.4532 91.6149 87.6879 91.2411 88.018C90.8673 88.348 90.5781 88.7122 90.3735 89.1106C90.1756 89.503 90.0602 89.9133 90.0271 90.3416C90.0009 90.7639 90.0582 91.185 90.1991 91.6049C90.3468 92.0187 90.5827 92.4091 90.9067 92.7762C91.2307 93.1432 91.589 93.4256 91.9813 93.6234C92.3805 93.8152 92.7912 93.9243 93.2135 93.9505C93.6427 93.9708 94.0641 93.9071 94.478 93.7594C94.8986 93.6057 95.2959 93.3638 95.6697 93.0338C96.0435 92.7037 96.3301 92.3297 96.5295 91.9117C96.7229 91.487 96.8228 91.0179 96.829 90.5044L98.4054 90.5639C98.4145 91.2453 98.2677 91.901 97.9652 92.5309C97.6627 93.1609 97.2157 93.7369 96.6244 94.259Z" fill="white"/>
<path d="M99.6011 81.6197C100.292 80.7216 101.027 80.1832 101.806 80.0043C102.584 79.8254 103.375 80.0456 104.18 80.665C105.028 81.3175 105.464 82.0819 105.487 82.9581C105.509 83.8215 105.152 84.7311 104.417 85.6866L101.92 88.9306L94.3759 83.1241L95.4377 81.7446L97.9919 83.7105L99.6011 81.6197ZM103.289 84.9218C103.704 84.3829 103.899 83.8694 103.874 83.3813C103.855 82.886 103.605 82.4531 103.123 82.0826C102.649 81.7176 102.191 81.5995 101.749 81.7281C101.299 81.8513 100.864 82.1859 100.444 82.7319L99.0588 84.5317L101.904 86.7216L103.289 84.9218Z" fill="white"/>
</svg>
